STARTFONT 2.1
FONT -FontForge-Roboto Condensed-Bold-R-Condensed---16-150-75-75-P-81-ISO10646-1
SIZE 15 75 75
FONTBOUNDINGBOX 29 23 -12 -4
COMMENT "Generated by fontforge, http://fontforge.sourceforge.net"
COMMENT "Copyright 2011 Google Inc. All Rights Reserved."
STARTPROPERTIES 41
FOUNDRY "FontForge"
FAMILY_NAME "Roboto Condensed"
WEIGHT_NAME "Bold"
SLANT "R"
SETWIDTH_NAME "Condensed"
ADD_STYLE_NAME ""
PIXEL_SIZE 16
POINT_SIZE 150
RESOLUTION_X 75
RESOLUTION_Y 75
SPACING "P"
AVERAGE_WIDTH 81
CHARSET_REGISTRY "ISO10646"
CHARSET_ENCODING "1"
FONTNAME_REGISTRY ""
CHARSET_COLLECTIONS "ISO8859-2 ISO8859-5 ISO8859-7 ISO8859-9 ISO8859-4 ISO10646-1"
FONT_NAME "RobotoCondensed-Bold"
FACE_NAME "Roboto Condensed Bold"
COPYRIGHT "Copyright 2011 Google Inc. All Rights Reserved."
FONT_VERSION "2.137; 2017"
FONT_ASCENT 12
FONT_DESCENT 4
UNDERLINE_POSITION -2
UNDERLINE_THICKNESS 1
X_HEIGHT 8
CAP_HEIGHT 11
DEFAULT_CHAR 1
RAW_ASCENT 750
RAW_DESCENT 250
NORM_SPACE 4
RELATIVE_WEIGHT 70
RELATIVE_SETWIDTH 50
SUPERSCRIPT_X 0
SUPERSCRIPT_Y 7
SUPERSCRIPT_SIZE 10
SUBSCRIPT_X 0
SUBSCRIPT_Y 2
SUBSCRIPT_SIZE 10
FIGURE_WIDTH 8
AVG_LOWERCASE_WIDTH 79
AVG_UPPERCASE_WIDTH 94
ENDPROPERTIES
CHARS 1296
STARTCHAR uni0000
ENCODING 0
SWIDTH 0 0
DWIDTH 0 0
BBX 1 1 0 0
BITMAP
00
ENDCHAR
STARTCHAR uni0002
ENCODING 2
SWIDTH 0 0
DWIDTH 0 0
BBX 1 1 0 0
BITMAP
00
ENDCHAR
STARTCHAR uni000D
ENCODING 13
SWIDTH 230 0
DWIDTH 4 0
BBX 1 1 0 0
BITMAP
00
ENDCHAR
STARTCHAR space
ENCODING 32
SWIDTH 230 0
DWIDTH 4 0
BBX 1 1 0 0
BITMAP
00
ENDCHAR
STARTCHAR exclam
ENCODING 33
SWIDTH 260 0
DWIDTH 4 0
BBX 2 12 1 0
BITMAP
C0
C0
C0
C0
C0
C0
C0
C0
C0
00
C0
C0
ENDCHAR
STARTCHAR quotedbl
ENCODING 34
SWIDTH 320 0
DWIDTH 5 0
BBX 5 4 0 8
BITMAP
D8
D8
D0
D0
ENDCHAR
STARTCHAR numbersign
ENCODING 35
SWIDTH 527 0
DWIDTH 8 0
BBX 8 12 0 0
BITMAP
16
16
14
7F
34
34
2C
FE
2C
28
28
68
ENDCHAR
STARTCHAR dollar
ENCODING 36
SWIDTH 505 0
DWIDTH 8 0
BBX 6 16 1 -2
BITMAP
10
10
78
FC
CC
CC
E0
70
3C
0C
CC
CC
FC
78
30
30
ENDCHAR
STARTCHAR percent
ENCODING 37
SWIDTH 638 0
DWIDTH 10 0
BBX 8 12 1 0
BITMAP
E0
B2
B4
B4
E8
08
10
17
2D
2D
4D
07
ENDCHAR
STARTCHAR ampersand
ENCODING 38
SWIDTH 579 0
DWIDTH 9 0
BBX 9 12 0 0
BITMAP
3800
3C00
6600
6400
3C00
3800
7B00
7F00
EF00
6700
7F00
3F80
ENDCHAR
STARTCHAR quotesingle
ENCODING 39
SWIDTH 161 0
DWIDTH 3 0
BBX 1 4 1 8
BITMAP
80
80
80
80
ENDCHAR
STARTCHAR parenleft
ENCODING 40
SWIDTH 323 0
DWIDTH 5 0
BBX 4 17 1 -4
BITMAP
20
30
60
40
C0
C0
C0
C0
C0
C0
C0
C0
C0
40
60
20
30
ENDCHAR
STARTCHAR parenright
ENCODING 41
SWIDTH 323 0
DWIDTH 5 0
BBX 4 17 0 -4
BITMAP
80
40
60
20
30
30
30
30
30
30
30
30
30
20
60
40
80
ENDCHAR
STARTCHAR asterisk
ENCODING 42
SWIDTH 454 0
DWIDTH 7 0
BBX 7 6 0 6
BITMAP
10
10
FE
18
28
6C
ENDCHAR
STARTCHAR plus
ENCODING 43
SWIDTH 475 0
DWIDTH 8 0
BBX 7 8 0 1
BITMAP
18
18
18
FE
FE
18
18
18
ENDCHAR
STARTCHAR comma
ENCODING 44
SWIDTH 245 0
DWIDTH 4 0
BBX 3 5 0 -3
BITMAP
60
60
60
60
C0
ENDCHAR
STARTCHAR hyphen
ENCODING 45
SWIDTH 363 0
DWIDTH 6 0
BBX 4 2 1 4
BITMAP
F0
F0
ENDCHAR
STARTCHAR period
ENCODING 46
SWIDTH 291 0
DWIDTH 5 0
BBX 3 2 1 0
BITMAP
E0
E0
ENDCHAR
STARTCHAR slash
ENCODING 47
SWIDTH 331 0
DWIDTH 5 0
BBX 5 13 0 -1
BITMAP
18
18
10
30
30
30
20
60
60
60
40
C0
C0
ENDCHAR
STARTCHAR zero
ENCODING 48
SWIDTH 505 0
DWIDTH 8 0
BBX 6 12 1 0
BITMAP
78
FC
CC
CC
CC
CC
CC
CC
CC
CC
FC
78
ENDCHAR
STARTCHAR one
ENCODING 49
SWIDTH 505 0
DWIDTH 8 0
BBX 5 12 1 0
BITMAP
18
78
F8
B8
38
38
38
38
38
38
38
38
ENDCHAR
STARTCHAR two
ENCODING 50
SWIDTH 505 0
DWIDTH 8 0
BBX 6 12 1 0
BITMAP
78
FC
CC
CC
0C
1C
18
30
70
E0
FC
FC
ENDCHAR
STARTCHAR three
ENCODING 51
SWIDTH 505 0
DWIDTH 8 0
BBX 7 12 0 0
BITMAP
3C
7E
66
06
1C
1C
06
06
06
E6
7E
3C
ENDCHAR
STARTCHAR four
ENCODING 52
SWIDTH 505 0
DWIDTH 8 0
BBX 8 12 0 0
BITMAP
0E
0E
1E
1E
3E
2E
6E
FF
7F
0E
0E
0E
ENDCHAR
STARTCHAR five
ENCODING 53
SWIDTH 505 0
DWIDTH 8 0
BBX 6 12 1 0
BITMAP
FC
FC
C0
C0
F8
FC
0C
0C
0C
CC
FC
78
ENDCHAR
STARTCHAR six
ENCODING 54
SWIDTH 505 0
DWIDTH 8 0
BBX 6 12 1 0
BITMAP
18
78
60
C0
F8
FC
CC
CC
CC
CC
7C
78
ENDCHAR
STARTCHAR seven
ENCODING 55
SWIDTH 505 0
DWIDTH 8 0
BBX 6 12 1 0
BITMAP
FC
FC
0C
0C
18
18
38
30
30
70
60
E0
ENDCHAR
STARTCHAR eight
ENCODING 56
SWIDTH 505 0
DWIDTH 8 0
BBX 6 12 1 0
BITMAP
78
FC
CC
CC
CC
78
78
CC
CC
CC
FC
78
ENDCHAR
STARTCHAR nine
ENCODING 57
SWIDTH 505 0
DWIDTH 8 0
BBX 6 12 1 0
BITMAP
78
F8
CC
CC
CC
CC
FC
7C
0C
18
78
70
ENDCHAR
STARTCHAR colon
ENCODING 58
SWIDTH 274 0
DWIDTH 4 0
BBX 3 8 1 0
BITMAP
E0
E0
00
00
00
00
E0
E0
ENDCHAR
STARTCHAR semicolon
ENCODING 59
SWIDTH 254 0
DWIDTH 4 0
BBX 4 11 0 -3
BITMAP
60
70
00
00
00
00
60
60
60
60
C0
ENDCHAR
STARTCHAR less
ENCODING 60
SWIDTH 446 0
DWIDTH 7 0
BBX 6 8 0 1
BITMAP
04
1C
7C
F0
F0
7C
1C
04
ENDCHAR
STARTCHAR equal
ENCODING 61
SWIDTH 502 0
DWIDTH 8 0
BBX 6 5 1 2
BITMAP
FC
FC
00
FC
FC
ENDCHAR
STARTCHAR greater
ENCODING 62
SWIDTH 454 0
DWIDTH 7 0
BBX 6 8 1 1
BITMAP
80
E0
F8
1C
3C
F8
E0
80
ENDCHAR
STARTCHAR question
ENCODING 63
SWIDTH 448 0
DWIDTH 7 0
BBX 6 12 0 0
BITMAP
38
7C
EC
0C
0C
1C
18
30
30
00
30
38
ENDCHAR
STARTCHAR at
ENCODING 64
SWIDTH 766 0
DWIDTH 12 0
BBX 10 14 1 -3
BITMAP
1F00
2180
40C0
CE40
9B40
9240
B240
B240
B240
9640
9B80
C000
6200
3E00
ENDCHAR
STARTCHAR A
ENCODING 65
SWIDTH 597 0
DWIDTH 10 0
BBX 10 12 0 0
BITMAP
0C00
0C00
1E00
1E00
1E00
3300
3300
3300
7F80
7F80
6180
E1C0
ENDCHAR
STARTCHAR B
ENCODING 66
SWIDTH 561 0
DWIDTH 9 0
BBX 7 12 1 0
BITMAP
FC
FE
C6
C6
FC
FE
C6
C6
C6
C6
FE
FC
ENDCHAR
STARTCHAR C
ENCODING 67
SWIDTH 570 0
DWIDTH 9 0
BBX 8 12 1 0
BITMAP
3C
7E
C6
C7
C0
C0
C0
C0
C7
C6
7E
3C
ENDCHAR
STARTCHAR D
ENCODING 68
SWIDTH 564 0
DWIDTH 9 0
BBX 7 12 1 0
BITMAP
F8
FC
CE
C6
C6
C6
C6
C6
C6
CE
FC
F8
ENDCHAR
STARTCHAR E
ENCODING 69
SWIDTH 490 0
DWIDTH 8 0
BBX 6 12 1 0
BITMAP
FC
FC
C0
C0
C0
FC
FC
C0
C0
C0
FC
FC
ENDCHAR
STARTCHAR F
ENCODING 70
SWIDTH 475 0
DWIDTH 8 0
BBX 6 12 1 0
BITMAP
FC
FC
C0
C0
C0
FC
FC
C0
C0
C0
C0
C0
ENDCHAR
STARTCHAR G
ENCODING 71
SWIDTH 584 0
DWIDTH 9 0
BBX 7 12 1 0
BITMAP
3C
FE
C6
C6
C0
C0
CE
CE
C6
E6
FE
3C
ENDCHAR
STARTCHAR H
ENCODING 72
SWIDTH 613 0
DWIDTH 10 0
BBX 8 12 1 0
BITMAP
C3
C3
C3
C3
C3
FF
FF
C3
C3
C3
C3
C3
ENDCHAR
STARTCHAR I
ENCODING 73
SWIDTH 270 0
DWIDTH 4 0
BBX 2 12 1 0
BITMAP
C0
C0
C0
C0
C0
C0
C0
C0
C0
C0
C0
C0
ENDCHAR
STARTCHAR J
ENCODING 74
SWIDTH 490 0
DWIDTH 8 0
BBX 7 12 0 0
BITMAP
06
06
06
06
06
06
06
06
E6
6E
7C
38
ENDCHAR
STARTCHAR K
ENCODING 75
SWIDTH 553 0
DWIDTH 9 0
BBX 8 12 1 0
BITMAP
C7
CE
CC
DC
D8
F8
F8
FC
CC
CE
C6
C7
ENDCHAR
STARTCHAR L
ENCODING 76
SWIDTH 478 0
DWIDTH 8 0
BBX 6 12 1 0
BITMAP
C0
C0
C0
C0
C0
C0
C0
C0
C0
C0
FC
FC
ENDCHAR
STARTCHAR M
ENCODING 77
SWIDTH 758 0
DWIDTH 12 0
BBX 10 12 1 0
BITMAP
E1C0
E1C0
F1C0
F3C0
F3C0
F3C0
DAC0
DEC0
DEC0
CEC0
CCC0
CCC0
ENDCHAR
STARTCHAR N
ENCODING 78
SWIDTH 612 0
DWIDTH 10 0
BBX 8 12 1 0
BITMAP
E3
E3
E3
F3
D3
DB
DB
CF
CF
C7
C7
C7
ENDCHAR
STARTCHAR O
ENCODING 79
SWIDTH 603 0
DWIDTH 10 0
BBX 8 12 1 0
BITMAP
3C
7E
E7
C3
C3
C3
C3
C3
C3
E7
7E
3C
ENDCHAR
STARTCHAR P
ENCODING 80
SWIDTH 568 0
DWIDTH 9 0
BBX 7 12 1 0
BITMAP
FC
FE
C6
C6
C6
C6
FE
FC
C0
C0
C0
C0
ENDCHAR
STARTCHAR Q
ENCODING 81
SWIDTH 603 0
DWIDTH 10 0
BBX 8 14 1 -2
BITMAP
3C
7E
E7
C3
C3
C3
C3
C3
C3
E7
7E
3E
07
02
ENDCHAR
STARTCHAR R
ENCODING 82
SWIDTH 553 0
DWIDTH 9 0
BBX 8 12 1 0
BITMAP
FC
FE
C6
C6
C6
C6
FE
FC
CC
CE
CE
C7
ENDCHAR
STARTCHAR S
ENCODING 83
SWIDTH 540 0
DWIDTH 9 0
BBX 7 12 1 0
BITMAP
3C
7E
E6
C6
E0
78
3C
0E
C6
C6
FE
3C
ENDCHAR
STARTCHAR T
ENCODING 84
SWIDTH 542 0
DWIDTH 9 0
BBX 8 12 0 0
BITMAP
FF
FF
18
18
18
18
18
18
18
18
18
18
ENDCHAR
STARTCHAR U
ENCODING 85
SWIDTH 571 0
DWIDTH 9 0
BBX 7 12 1 0
BITMAP
C6
C6
C6
C6
C6
C6
C6
C6
C6
C6
FE
7C
ENDCHAR
STARTCHAR V
ENCODING 86
SWIDTH 578 0
DWIDTH 9 0
BBX 9 12 0 0
BITMAP
E380
E380
6300
6300
7700
3600
3600
3600
3600
1C00
1C00
1C00
ENDCHAR
STARTCHAR W
ENCODING 87
SWIDTH 749 0
DWIDTH 12 0
BBX 12 12 0 0
BITMAP
E670
6660
6660
6F60
6F60
6F60
7FE0
3FC0
39C0
39C0
39C0
39C0
ENDCHAR
STARTCHAR X
ENCODING 88
SWIDTH 559 0
DWIDTH 9 0
BBX 9 12 0 0
BITMAP
E380
7700
7700
3600
3E00
1C00
1C00
3E00
3600
7700
6700
E380
ENDCHAR
STARTCHAR Y
ENCODING 89
SWIDTH 542 0
DWIDTH 9 0
BBX 9 12 0 0
BITMAP
E380
6300
6700
3600
3600
3C00
1C00
1C00
1C00
1C00
1C00
1C00
ENDCHAR
STARTCHAR Z
ENCODING 90
SWIDTH 530 0
DWIDTH 8 0
BBX 7 12 1 0
BITMAP
FE
FE
0C
1C
18
38
30
70
60
E0
FE
FE
ENDCHAR
STARTCHAR bracketleft
ENCODING 91
SWIDTH 263 0
DWIDTH 4 0
BBX 3 16 1 -3
BITMAP
E0
E0
C0
C0
C0
C0
C0
C0
C0
C0
C0
C0
C0
C0
E0
E0
ENDCHAR
STARTCHAR backslash
ENCODING 92
SWIDTH 381 0
DWIDTH 6 0
BBX 6 13 0 -1
BITMAP
C0
60
60
60
70
30
30
38
18
18
1C
0C
0C
ENDCHAR
STARTCHAR bracketright
ENCODING 93
SWIDTH 263 0
DWIDTH 4 0
BBX 3 16 0 -3
BITMAP
E0
E0
60
60
60
60
60
60
60
60
60
60
60
60
E0
E0
ENDCHAR
STARTCHAR asciicircum
ENCODING 94
SWIDTH 390 0
DWIDTH 6 0
BBX 6 6 0 6
BITMAP
30
30
78
78
48
CC
ENDCHAR
STARTCHAR underscore
ENCODING 95
SWIDTH 399 0
DWIDTH 6 0
BBX 6 2 0 -2
BITMAP
FC
FC
ENDCHAR
STARTCHAR grave
ENCODING 96
SWIDTH 331 0
DWIDTH 5 0
BBX 4 2 0 10
BITMAP
E0
30
ENDCHAR
STARTCHAR a
ENCODING 97
SWIDTH 470 0
DWIDTH 8 0
BBX 6 9 1 0
BITMAP
78
FC
CC
0C
7C
FC
CC
FC
7C
ENDCHAR
STARTCHAR b
ENCODING 98
SWIDTH 495 0
DWIDTH 8 0
BBX 6 12 1 0
BITMAP
C0
C0
C0
F8
FC
CC
CC
CC
CC
CC
FC
F8
ENDCHAR
STARTCHAR c
ENCODING 99
SWIDTH 459 0
DWIDTH 7 0
BBX 7 9 0 0
BITMAP
38
7C
6E
E0
E0
E0
66
7C
38
ENDCHAR
STARTCHAR d
ENCODING 100
SWIDTH 495 0
DWIDTH 8 0
BBX 6 12 1 0
BITMAP
0C
0C
0C
7C
FC
CC
CC
CC
CC
CC
FC
7C
ENDCHAR
STARTCHAR e
ENCODING 101
SWIDTH 478 0
DWIDTH 8 0
BBX 6 9 1 0
BITMAP
78
FC
CC
CC
FC
FC
C8
FC
78
ENDCHAR
STARTCHAR f
ENCODING 102
SWIDTH 327 0
DWIDTH 5 0
BBX 5 12 0 0
BITMAP
38
78
60
F8
F8
60
60
60
60
60
60
60
ENDCHAR
STARTCHAR g
ENCODING 103
SWIDTH 502 0
DWIDTH 8 0
BBX 6 12 1 -3
BITMAP
7C
FC
CC
CC
CC
CC
CC
FC
7C
0C
FC
78
ENDCHAR
STARTCHAR h
ENCODING 104
SWIDTH 492 0
DWIDTH 8 0
BBX 6 12 1 0
BITMAP
C0
C0
C0
F8
FC
CC
CC
CC
CC
CC
CC
CC
ENDCHAR
STARTCHAR i
ENCODING 105
SWIDTH 251 0
DWIDTH 4 0
BBX 2 12 1 0
BITMAP
C0
C0
00
C0
C0
C0
C0
C0
C0
C0
C0
C0
ENDCHAR
STARTCHAR j
ENCODING 106
SWIDTH 245 0
DWIDTH 4 0
BBX 3 15 0 -3
BITMAP
60
60
00
60
60
60
60
60
60
60
60
60
60
E0
C0
ENDCHAR
STARTCHAR k
ENCODING 107
SWIDTH 478 0
DWIDTH 8 0
BBX 7 12 1 0
BITMAP
C0
C0
C0
CC
D8
F8
F0
F0
F8
D8
DC
CE
ENDCHAR
STARTCHAR l
ENCODING 108
SWIDTH 251 0
DWIDTH 4 0
BBX 2 12 1 0
BITMAP
C0
C0
C0
C0
C0
C0
C0
C0
C0
C0
C0
C0
ENDCHAR
STARTCHAR m
ENCODING 109
SWIDTH 741 0
DWIDTH 12 0
BBX 10 9 1 0
BITMAP
FB80
FFC0
CCC0
CCC0
CCC0
CCC0
CCC0
CCC0
CCC0
ENDCHAR
STARTCHAR n
ENCODING 110
SWIDTH 492 0
DWIDTH 8 0
BBX 6 9 1 0
BITMAP
F8
FC
CC
CC
CC
CC
CC
CC
CC
ENDCHAR
STARTCHAR o
ENCODING 111
SWIDTH 497 0
DWIDTH 8 0
BBX 6 9 1 0
BITMAP
78
FC
CC
CC
CC
CC
CC
FC
78
ENDCHAR
STARTCHAR p
ENCODING 112
SWIDTH 495 0
DWIDTH 8 0
BBX 6 12 1 -3
BITMAP
F8
FC
CC
CC
CC
CC
CC
FC
F8
C0
C0
C0
ENDCHAR
STARTCHAR q
ENCODING 113
SWIDTH 497 0
DWIDTH 8 0
BBX 6 12 1 -3
BITMAP
7C
FC
CC
CC
CC
CC
CC
FC
7C
0C
0C
0C
ENDCHAR
STARTCHAR r
ENCODING 114
SWIDTH 331 0
DWIDTH 5 0
BBX 4 9 1 0
BITMAP
F0
F0
C0
C0
C0
C0
C0
C0
C0
ENDCHAR
STARTCHAR s
ENCODING 115
SWIDTH 454 0
DWIDTH 7 0
BBX 7 9 0 0
BITMAP
38
7C
6E
70
7C
1C
EE
7C
38
ENDCHAR
STARTCHAR t
ENCODING 116
SWIDTH 307 0
DWIDTH 5 0
BBX 5 11 0 0
BITMAP
60
60
F8
F8
60
60
60
60
60
78
38
ENDCHAR
STARTCHAR u
ENCODING 117
SWIDTH 492 0
DWIDTH 8 0
BBX 6 9 1 0
BITMAP
CC
CC
CC
CC
CC
CC
CC
FC
7C
ENDCHAR
STARTCHAR v
ENCODING 118
SWIDTH 449 0
DWIDTH 7 0
BBX 7 9 0 0
BITMAP
EE
EC
6C
6C
6C
28
38
38
38
ENDCHAR
STARTCHAR w
ENCODING 119
SWIDTH 632 0
DWIDTH 10 0
BBX 10 9 0 0
BITMAP
CCC0
ED80
6D80
7F80
7F80
7F80
7380
3300
3300
ENDCHAR
STARTCHAR x
ENCODING 120
SWIDTH 452 0
DWIDTH 7 0
BBX 7 9 0 0
BITMAP
EE
6C
7C
38
38
3C
7C
6C
E6
ENDCHAR
STARTCHAR y
ENCODING 121
SWIDTH 446 0
DWIDTH 7 0
BBX 7 12 0 -3
BITMAP
EE
EC
6C
6C
6C
38
38
38
38
30
70
60
ENDCHAR
STARTCHAR z
ENCODING 122
SWIDTH 452 0
DWIDTH 7 0
BBX 6 9 1 0
BITMAP
FC
FC
18
30
70
60
E0
FC
FC
ENDCHAR
STARTCHAR braceleft
ENCODING 123
SWIDTH 297 0
DWIDTH 5 0
BBX 3 15 1 -3
BITMAP
20
60
60
60
60
60
C0
C0
C0
E0
60
60
60
60
20
ENDCHAR
STARTCHAR bar
ENCODING 124
SWIDTH 253 0
DWIDTH 4 0
BBX 2 14 1 -2
BITMAP
C0
C0
C0
C0
C0
C0
C0
C0
C0
C0
C0
C0
C0
C0
ENDCHAR
STARTCHAR braceright
ENCODING 125
SWIDTH 297 0
DWIDTH 5 0
BBX 3 15 1 -3
BITMAP
80
C0
C0
C0
C0
C0
60
60
60
E0
C0
C0
C0
C0
80
ENDCHAR
STARTCHAR asciitilde
ENCODING 126
SWIDTH 557 0
DWIDTH 9 0
BBX 7 3 1 3
BITMAP
72
FE
9C
ENDCHAR
STARTCHAR uni00A0
ENCODING 160
SWIDTH 230 0
DWIDTH 4 0
BBX 1 1 0 0
BITMAP
00
ENDCHAR
STARTCHAR exclamdown
ENCODING 161
SWIDTH 270 0
DWIDTH 4 0
BBX 2 12 1 -3
BITMAP
C0
C0
00
C0
C0
C0
C0
C0
C0
C0
C0
C0
ENDCHAR
STARTCHAR cent
ENCODING 162
SWIDTH 508 0
DWIDTH 8 0
BBX 6 12 1 -2
BITMAP
30
78
FC
CC
C0
C0
C0
CC
FC
78
30
30
ENDCHAR
STARTCHAR sterling
ENCODING 163
SWIDTH 524 0
DWIDTH 8 0
BBX 7 12 1 0
BITMAP
38
7C
6E
60
60
F8
F8
60
60
60
FE
FE
ENDCHAR
STARTCHAR currency
ENCODING 164
SWIDTH 691 0
DWIDTH 11 0
BBX 9 10 1 0
BITMAP
BE80
FF80
E380
C180
8080
8080
C180
E380
FF80
BE80
ENDCHAR
STARTCHAR yen
ENCODING 165
SWIDTH 474 0
DWIDTH 8 0
BBX 8 12 0 0
BITMAP
E7
66
7E
3C
3C
3C
7E
18
7E
18
18
18
ENDCHAR
STARTCHAR brokenbar
ENCODING 166
SWIDTH 252 0
DWIDTH 4 0
BBX 2 14 1 -2
BITMAP
C0
C0
C0
C0
C0
C0
C0
00
C0
C0
C0
C0
C0
C0
ENDCHAR
STARTCHAR section
ENCODING 167
SWIDTH 552 0
DWIDTH 9 0
BBX 7 16 1 -4
BITMAP
78
FC
CE
C6
E0
7C
FE
CE
C6
F6
7C
0E
C6
C6
FE
7C
ENDCHAR
STARTCHAR dieresis
ENCODING 168
SWIDTH 468 0
DWIDTH 8 0
BBX 6 2 1 10
BITMAP
CC
CC
ENDCHAR
STARTCHAR copyright
ENCODING 169
SWIDTH 784 0
DWIDTH 13 0
BBX 11 12 1 0
BITMAP
1F00
2180
4E40
9340
9120
9020
9020
9120
9340
4E40
2180
1F00
ENDCHAR
STARTCHAR ordfeminine
ENCODING 170
SWIDTH 393 0
DWIDTH 6 0
BBX 4 6 1 6
BITMAP
E0
10
F0
90
90
F0
ENDCHAR
STARTCHAR guillemotleft
ENCODING 171
SWIDTH 449 0
DWIDTH 7 0
BBX 5 6 1 1
BITMAP
68
D8
D0
F0
D8
68
ENDCHAR
STARTCHAR logicalnot
ENCODING 172
SWIDTH 484 0
DWIDTH 8 0
BBX 6 3 1 3
BITMAP
FC
FC
0C
ENDCHAR
STARTCHAR uni00AD
ENCODING 173
SWIDTH 363 0
DWIDTH 6 0
BBX 4 2 1 4
BITMAP
F0
F0
ENDCHAR
STARTCHAR registered
ENCODING 174
SWIDTH 784 0
DWIDTH 13 0
BBX 11 12 1 0
BITMAP
1E00
2180
5E40
9340
9320
9E20
9320
9320
9340
4040
2180
1E00
ENDCHAR
STARTCHAR macron
ENCODING 175
SWIDTH 458 0
DWIDTH 7 0
BBX 5 1 1 10
BITMAP
F8
ENDCHAR
STARTCHAR degree
ENCODING 176
SWIDTH 388 0
DWIDTH 6 0
BBX 4 4 1 8
BITMAP
60
90
90
60
ENDCHAR
STARTCHAR plusminus
ENCODING 177
SWIDTH 472 0
DWIDTH 8 0
BBX 6 10 1 0
BITMAP
30
30
30
FC
FC
30
30
00
FC
FC
ENDCHAR
STARTCHAR uni00B2
ENCODING 178
SWIDTH 335 0
DWIDTH 5 0
BBX 5 7 0 5
BITMAP
70
58
98
10
30
60
78
ENDCHAR
STARTCHAR uni00B3
ENCODING 179
SWIDTH 335 0
DWIDTH 5 0
BBX 5 7 0 5
BITMAP
70
98
30
10
D8
D0
70
ENDCHAR
STARTCHAR acute
ENCODING 180
SWIDTH 332 0
DWIDTH 5 0
BBX 4 2 1 10
BITMAP
70
C0
ENDCHAR
STARTCHAR mu
ENCODING 181
SWIDTH 549 0
DWIDTH 9 0
BBX 7 12 1 -3
BITMAP
CE
CE
CE
CE
CE
CE
EE
FE
FE
C0
C0
C0
ENDCHAR
STARTCHAR paragraph
ENCODING 182
SWIDTH 435 0
DWIDTH 7 0
BBX 5 12 1 0
BITMAP
78
F8
F8
F8
F8
F8
F8
38
18
18
18
18
ENDCHAR
STARTCHAR periodcentered
ENCODING 183
SWIDTH 284 0
DWIDTH 5 0
BBX 3 2 1 5
BITMAP
E0
E0
ENDCHAR
STARTCHAR cedilla
ENCODING 184
SWIDTH 249 0
DWIDTH 4 0
BBX 2 4 1 -4
BITMAP
C0
C0
40
C0
ENDCHAR
STARTCHAR uni00B9
ENCODING 185
SWIDTH 335 0
DWIDTH 5 0
BBX 3 7 1 5
BITMAP
60
E0
60
60
60
60
60
ENDCHAR
STARTCHAR ordmasculine
ENCODING 186
SWIDTH 405 0
DWIDTH 7 0
BBX 5 6 1 6
BITMAP
70
90
98
98
90
70
ENDCHAR
STARTCHAR guillemotright
ENCODING 187
SWIDTH 449 0
DWIDTH 7 0
BBX 6 6 1 1
BITMAP
B0
D8
68
6C
D8
B0
ENDCHAR
STARTCHAR onequarter
ENCODING 188
SWIDTH 622 0
DWIDTH 10 0
BBX 8 12 1 0
BITMAP
40
C0
42
44
4C
48
1B
17
37
2F
6F
03
ENDCHAR
STARTCHAR onehalf
ENCODING 189
SWIDTH 662 0
DWIDTH 11 0
BBX 9 12 1 0
BITMAP
4000
C000
4600
4400
4C00
4800
1700
1580
2980
6300
4600
0780
ENDCHAR
STARTCHAR threequarters
ENCODING 190
SWIDTH 704 0
DWIDTH 11 0
BBX 9 12 1 0
BITMAP
E000
B000
6100
3200
B200
E400
0D80
0980
1B80
1780
3780
0180
ENDCHAR
STARTCHAR questiondown
ENCODING 191
SWIDTH 446 0
DWIDTH 7 0
BBX 7 12 0 -3
BITMAP
18
38
00
18
38
30
70
60
6E
EE
7C
38
ENDCHAR
STARTCHAR Agrave
ENCODING 192
SWIDTH 597 0
DWIDTH 10 0
BBX 10 15 0 0
BITMAP
3800
0C00
0000
0C00
0C00
1E00
1E00
1E00
3300
3300
3300
7F80
7F80
6180
E1C0
ENDCHAR
STARTCHAR Aacute
ENCODING 193
SWIDTH 597 0
DWIDTH 10 0
BBX 10 15 0 0
BITMAP
0700
0C00
0000
0C00
0C00
1E00
1E00
1E00
3300
3300
3300
7F80
7F80
6180
E1C0
ENDCHAR
STARTCHAR Acircumflex
ENCODING 194
SWIDTH 597 0
DWIDTH 10 0
BBX 10 15 0 0
BITMAP
1C00
3700
0000
0C00
0C00
1E00
1E00
1E00
3300
3300
3300
7F80
7F80
6180
E1C0
ENDCHAR
STARTCHAR Atilde
ENCODING 195
SWIDTH 597 0
DWIDTH 10 0
BBX 10 15 0 0
BITMAP
1A00
3600
0000
0C00
0C00
1E00
1E00
1E00
3300
3300
3300
7F80
7F80
6180
E1C0
ENDCHAR
STARTCHAR Adieresis
ENCODING 196
SWIDTH 597 0
DWIDTH 10 0
BBX 10 15 0 0
BITMAP
3300
3300
0000
0C00
0C00
1E00
1E00
1E00
3300
3300
3300
7F80
7F80
6180
E1C0
ENDCHAR
STARTCHAR Aring
ENCODING 197
SWIDTH 597 0
DWIDTH 10 0
BBX 10 16 0 0
BITMAP
1C00
1400
1C00
0000
0C00
0C00
1E00
1E00
1E00
3300
3300
3300
7F80
7F80
6180
E1C0
ENDCHAR
STARTCHAR AE
ENCODING 198
SWIDTH 817 0
DWIDTH 13 0
BBX 13 12 0 0
BITMAP
07F0
07F0
0F00
0F00
1F00
1BF0
3BF0
3F80
3F80
7380
63F8
E3F8
ENDCHAR
STARTCHAR Ccedilla
ENCODING 199
SWIDTH 570 0
DWIDTH 9 0
BBX 8 16 1 -4
BITMAP
3C
7E
C6
C7
C0
C0
C0
C0
C7
C6
7E
3C
10
18
08
18
ENDCHAR
STARTCHAR Egrave
ENCODING 200
SWIDTH 490 0
DWIDTH 8 0
BBX 6 15 1 0
BITMAP
E0
30
00
FC
FC
C0
C0
C0
FC
FC
C0
C0
C0
FC
FC
ENDCHAR
STARTCHAR Eacute
ENCODING 201
SWIDTH 490 0
DWIDTH 8 0
BBX 6 15 1 0
BITMAP
1C
38
00
FC
FC
C0
C0
C0
FC
FC
C0
C0
C0
FC
FC
ENDCHAR
STARTCHAR Ecircumflex
ENCODING 202
SWIDTH 490 0
DWIDTH 8 0
BBX 6 15 1 0
BITMAP
38
6C
00
FC
FC
C0
C0
C0
FC
FC
C0
C0
C0
FC
FC
ENDCHAR
STARTCHAR Edieresis
ENCODING 203
SWIDTH 490 0
DWIDTH 8 0
BBX 6 15 1 0
BITMAP
CC
EC
00
FC
FC
C0
C0
C0
FC
FC
C0
C0
C0
FC
FC
ENDCHAR
STARTCHAR Igrave
ENCODING 204
SWIDTH 270 0
DWIDTH 4 0
BBX 4 15 -1 0
BITMAP
E0
30
00
30
30
30
30
30
30
30
30
30
30
30
30
ENDCHAR
STARTCHAR Iacute
ENCODING 205
SWIDTH 270 0
DWIDTH 4 0
BBX 4 15 1 0
BITMAP
70
C0
00
C0
C0
C0
C0
C0
C0
C0
C0
C0
C0
C0
C0
ENDCHAR
STARTCHAR Icircumflex
ENCODING 206
SWIDTH 270 0
DWIDTH 4 0
BBX 6 15 -1 0
BITMAP
38
EC
00
30
30
30
30
30
30
30
30
30
30
30
30
ENDCHAR
STARTCHAR Idieresis
ENCODING 207
SWIDTH 270 0
DWIDTH 4 0
BBX 6 15 -1 0
BITMAP
CC
CC
00
30
30
30
30
30
30
30
30
30
30
30
30
ENDCHAR
STARTCHAR Eth
ENCODING 208
SWIDTH 579 0
DWIDTH 9 0
BBX 8 12 0 0
BITMAP
7C
7E
63
63
63
FB
63
63
63
67
7E
7C
ENDCHAR
STARTCHAR Ntilde
ENCODING 209
SWIDTH 612 0
DWIDTH 10 0
BBX 8 15 1 0
BITMAP
34
6C
00
E3
E3
E3
F3
D3
DB
DB
CF
CF
C7
C7
C7
ENDCHAR
STARTCHAR Ograve
ENCODING 210
SWIDTH 603 0
DWIDTH 10 0
BBX 8 15 1 0
BITMAP
70
18
00
3C
7E
E7
C3
C3
C3
C3
C3
C3
E7
7E
3C
ENDCHAR
STARTCHAR Oacute
ENCODING 211
SWIDTH 603 0
DWIDTH 10 0
BBX 8 15 1 0
BITMAP
0E
18
00
3C
7E
E7
C3
C3
C3
C3
C3
C3
E7
7E
3C
ENDCHAR
STARTCHAR Ocircumflex
ENCODING 212
SWIDTH 603 0
DWIDTH 10 0
BBX 8 15 1 0
BITMAP
38
6E
00
3C
7E
E7
C3
C3
C3
C3
C3
C3
E7
7E
3C
ENDCHAR
STARTCHAR Otilde
ENCODING 213
SWIDTH 603 0
DWIDTH 10 0
BBX 8 15 1 0
BITMAP
34
6C
00
3C
7E
E7
C3
C3
C3
C3
C3
C3
E7
7E
3C
ENDCHAR
STARTCHAR Odieresis
ENCODING 214
SWIDTH 603 0
DWIDTH 10 0
BBX 8 15 1 0
BITMAP
66
66
00
3C
7E
E7
C3
C3
C3
C3
C3
C3
E7
7E
3C
ENDCHAR
STARTCHAR multiply
ENCODING 215
SWIDTH 468 0
DWIDTH 8 0
BBX 7 7 0 2
BITMAP
44
EE
3C
18
3C
6E
44
ENDCHAR
STARTCHAR Oslash
ENCODING 216
SWIDTH 602 0
DWIDTH 10 0
BBX 8 13 1 -1
BITMAP
3F
7E
E6
CF
CB
DB
D3
D3
E7
E6
7E
7C
C0
ENDCHAR
STARTCHAR Ugrave
ENCODING 217
SWIDTH 571 0
DWIDTH 9 0
BBX 7 15 1 0
BITMAP
70
38
00
C6
C6
C6
C6
C6
C6
C6
C6
C6
C6
FE
7C
ENDCHAR
STARTCHAR Uacute
ENCODING 218
SWIDTH 571 0
DWIDTH 9 0
BBX 7 15 1 0
BITMAP
1C
38
00
C6
C6
C6
C6
C6
C6
C6
C6
C6
C6
FE
7C
ENDCHAR
STARTCHAR Ucircumflex
ENCODING 219
SWIDTH 571 0
DWIDTH 9 0
BBX 7 15 1 0
BITMAP
38
6C
00
C6
C6
C6
C6
C6
C6
C6
C6
C6
C6
FE
7C
ENDCHAR
STARTCHAR Udieresis
ENCODING 220
SWIDTH 571 0
DWIDTH 9 0
BBX 7 15 1 0
BITMAP
6C
6E
00
C6
C6
C6
C6
C6
C6
C6
C6
C6
C6
FE
7C
ENDCHAR
STARTCHAR Yacute
ENCODING 221
SWIDTH 542 0
DWIDTH 9 0
BBX 9 15 0 0
BITMAP
0E00
1C00
0000
E380
6300
6700
3600
3600
3C00
1C00
1C00
1C00
1C00
1C00
1C00
ENDCHAR
STARTCHAR Thorn
ENCODING 222
SWIDTH 533 0
DWIDTH 9 0
BBX 7 12 1 0
BITMAP
C0
C0
FC
FE
C6
C6
C6
C6
FE
FC
C0
C0
ENDCHAR
STARTCHAR germandbls
ENCODING 223
SWIDTH 559 0
DWIDTH 9 0
BBX 7 12 1 0
BITMAP
78
FC
CC
CC
CC
DC
DC
CE
C6
C6
DE
DC
ENDCHAR
STARTCHAR agrave
ENCODING 224
SWIDTH 470 0
DWIDTH 8 0
BBX 6 12 1 0
BITMAP
E0
70
00
78
FC
CC
0C
7C
FC
CC
FC
7C
ENDCHAR
STARTCHAR aacute
ENCODING 225
SWIDTH 470 0
DWIDTH 8 0
BBX 6 12 1 0
BITMAP
1C
30
00
78
FC
CC
0C
7C
FC
CC
FC
7C
ENDCHAR
STARTCHAR acircumflex
ENCODING 226
SWIDTH 470 0
DWIDTH 8 0
BBX 6 12 1 0
BITMAP
70
D8
00
78
FC
CC
0C
7C
FC
CC
FC
7C
ENDCHAR
STARTCHAR atilde
ENCODING 227
SWIDTH 470 0
DWIDTH 8 0
BBX 6 12 1 0
BITMAP
68
98
00
78
FC
CC
0C
7C
FC
CC
FC
7C
ENDCHAR
STARTCHAR adieresis
ENCODING 228
SWIDTH 470 0
DWIDTH 8 0
BBX 6 12 1 0
BITMAP
CC
CC
00
78
FC
CC
0C
7C
FC
CC
FC
7C
ENDCHAR
STARTCHAR aring
ENCODING 229
SWIDTH 470 0
DWIDTH 8 0
BBX 6 13 1 0
BITMAP
70
50
70
00
78
FC
CC
0C
7C
FC
CC
FC
7C
ENDCHAR
STARTCHAR ae
ENCODING 230
SWIDTH 728 0
DWIDTH 12 0
BBX 10 9 1 0
BITMAP
7B80
FFC0
CEC0
0CC0
7FC0
FFC0
CC40
FFC0
73C0
ENDCHAR
STARTCHAR ccedilla
ENCODING 231
SWIDTH 459 0
DWIDTH 7 0
BBX 7 13 0 -4
BITMAP
38
7C
6E
E0
E0
E0
66
7C
38
18
18
0C
18
ENDCHAR
STARTCHAR egrave
ENCODING 232
SWIDTH 478 0
DWIDTH 8 0
BBX 6 12 1 0
BITMAP
E0
70
00
78
FC
CC
CC
FC
FC
C8
FC
78
ENDCHAR
STARTCHAR eacute
ENCODING 233
SWIDTH 478 0
DWIDTH 8 0
BBX 6 12 1 0
BITMAP
1C
30
00
78
FC
CC
CC
FC
FC
C8
FC
78
ENDCHAR
STARTCHAR ecircumflex
ENCODING 234
SWIDTH 478 0
DWIDTH 8 0
BBX 6 12 1 0
BITMAP
70
D8
00
78
FC
CC
CC
FC
FC
C8
FC
78
ENDCHAR
STARTCHAR edieresis
ENCODING 235
SWIDTH 478 0
DWIDTH 8 0
BBX 6 12 1 0
BITMAP
CC
CC
00
78
FC
CC
CC
FC
FC
C8
FC
78
ENDCHAR
STARTCHAR igrave
ENCODING 236
SWIDTH 262 0
DWIDTH 4 0
BBX 4 12 -1 0
BITMAP
E0
30
00
30
30
30
30
30
30
30
30
30
ENDCHAR
STARTCHAR iacute
ENCODING 237
SWIDTH 262 0
DWIDTH 4 0
BBX 4 12 1 0
BITMAP
70
C0
00
C0
C0
C0
C0
C0
C0
C0
C0
C0
ENDCHAR
STARTCHAR icircumflex
ENCODING 238
SWIDTH 262 0
DWIDTH 4 0
BBX 6 12 -1 0
BITMAP
30
EC
00
30
30
30
30
30
30
30
30
30
ENDCHAR
STARTCHAR idieresis
ENCODING 239
SWIDTH 262 0
DWIDTH 4 0
BBX 6 12 -1 0
BITMAP
CC
CC
00
30
30
30
30
30
30
30
30
30
ENDCHAR
STARTCHAR eth
ENCODING 240
SWIDTH 502 0
DWIDTH 8 0
BBX 6 12 1 0
BITMAP
60
7C
38
7C
0C
7C
FC
CC
CC
CC
FC
78
ENDCHAR
STARTCHAR ntilde
ENCODING 241
SWIDTH 492 0
DWIDTH 8 0
BBX 6 12 1 0
BITMAP
68
D8
00
F8
FC
CC
CC
CC
CC
CC
CC
CC
ENDCHAR
STARTCHAR ograve
ENCODING 242
SWIDTH 497 0
DWIDTH 8 0
BBX 6 12 1 0
BITMAP
E0
30
00
78
FC
CC
CC
CC
CC
CC
FC
78
ENDCHAR
STARTCHAR oacute
ENCODING 243
SWIDTH 497 0
DWIDTH 8 0
BBX 6 12 1 0
BITMAP
1C
30
00
78
FC
CC
CC
CC
CC
CC
FC
78
ENDCHAR
STARTCHAR ocircumflex
ENCODING 244
SWIDTH 497 0
DWIDTH 8 0
BBX 6 12 1 0
BITMAP
30
DC
00
78
FC
CC
CC
CC
CC
CC
FC
78
ENDCHAR
STARTCHAR otilde
ENCODING 245
SWIDTH 497 0
DWIDTH 8 0
BBX 6 12 1 0
BITMAP
68
D8
00
78
FC
CC
CC
CC
CC
CC
FC
78
ENDCHAR
STARTCHAR odieresis
ENCODING 246
SWIDTH 497 0
DWIDTH 8 0
BBX 6 12 1 0
BITMAP
CC
CC
00
78
FC
CC
CC
CC
CC
CC
FC
78
ENDCHAR
STARTCHAR divide
ENCODING 247
SWIDTH 499 0
DWIDTH 8 0
BBX 6 8 1 1
BITMAP
30
30
00
FC
FC
00
30
30
ENDCHAR
STARTCHAR oslash
ENCODING 248
SWIDTH 496 0
DWIDTH 8 0
BBX 6 11 1 -1
BITMAP
0C
78
FC
DC
DC
FC
EC
EC
FC
78
C0
ENDCHAR
STARTCHAR ugrave
ENCODING 249
SWIDTH 492 0
DWIDTH 8 0
BBX 6 12 1 0
BITMAP
E0
30
00
CC
CC
CC
CC
CC
CC
CC
FC
7C
ENDCHAR
STARTCHAR uacute
ENCODING 250
SWIDTH 492 0
DWIDTH 8 0
BBX 6 12 1 0
BITMAP
1C
30
00
CC
CC
CC
CC
CC
CC
CC
FC
7C
ENDCHAR
STARTCHAR ucircumflex
ENCODING 251
SWIDTH 492 0
DWIDTH 8 0
BBX 6 12 1 0
BITMAP
30
DC
00
CC
CC
CC
CC
CC
CC
CC
FC
7C
ENDCHAR
STARTCHAR udieresis
ENCODING 252
SWIDTH 492 0
DWIDTH 8 0
BBX 6 12 1 0
BITMAP
CC
CC
00
CC
CC
CC
CC
CC
CC
CC
FC
7C
ENDCHAR
STARTCHAR yacute
ENCODING 253
SWIDTH 446 0
DWIDTH 7 0
BBX 7 15 0 -3
BITMAP
0E
38
00
EE
EC
6C
6C
6C
38
38
38
38
30
70
60
ENDCHAR
STARTCHAR thorn
ENCODING 254
SWIDTH 499 0
DWIDTH 8 0
BBX 6 15 1 -3
BITMAP
C0
C0
C0
F8
FC
CC
CC
CC
CC
CC
FC
F8
C0
C0
C0
ENDCHAR
STARTCHAR ydieresis
ENCODING 255
SWIDTH 446 0
DWIDTH 7 0
BBX 7 15 0 -3
BITMAP
64
6E
00
EE
EC
6C
6C
6C
38
38
38
38
30
70
60
ENDCHAR
STARTCHAR Amacron
ENCODING 256
SWIDTH 597 0
DWIDTH 10 0
BBX 10 14 0 0
BITMAP
3E00
0000
0C00
0C00
1E00
1E00
1E00
3300
3300
3300
7F80
7F80
6180
E1C0
ENDCHAR
STARTCHAR amacron
ENCODING 257
SWIDTH 470 0
DWIDTH 8 0
BBX 6 11 1 0
BITMAP
F8
00
78
FC
CC
0C
7C
FC
CC
FC
7C
ENDCHAR
STARTCHAR Abreve
ENCODING 258
SWIDTH 597 0
DWIDTH 10 0
BBX 10 15 0 0
BITMAP
3300
1E00
0000
0C00
0C00
1E00
1E00
1E00
3300
3300
3300
7F80
7F80
6180
E1C0
ENDCHAR
STARTCHAR abreve
ENCODING 259
SWIDTH 470 0
DWIDTH 8 0
BBX 6 12 1 0
BITMAP
C8
78
00
78
FC
CC
0C
7C
FC
CC
FC
7C
ENDCHAR
STARTCHAR Aogonek
ENCODING 260
SWIDTH 597 0
DWIDTH 10 0
BBX 10 15 0 -3
BITMAP
0C00
0E00
1E00
1E00
1E00
3300
3300
3300
7F80
7F80
6180
6180
8140
0300
0180
ENDCHAR
STARTCHAR aogonek
ENCODING 261
SWIDTH 470 0
DWIDTH 8 0
BBX 6 12 1 -3
BITMAP
78
FC
CC
0C
7C
FC
CC
FC
7C
08
18
0C
ENDCHAR
STARTCHAR Cacute
ENCODING 262
SWIDTH 570 0
DWIDTH 9 0
BBX 8 15 1 0
BITMAP
0E
18
00
3C
7E
C6
C7
C0
C0
C0
C0
C7
C6
7E
3C
ENDCHAR
STARTCHAR cacute
ENCODING 263
SWIDTH 459 0
DWIDTH 7 0
BBX 7 12 0 0
BITMAP
0E
18
00
38
7C
6E
E0
E0
E0
66
7C
38
ENDCHAR
STARTCHAR Ccircumflex
ENCODING 264
SWIDTH 570 0
DWIDTH 9 0
BBX 8 15 1 0
BITMAP
38
6C
00
3C
7E
C6
C7
C0
C0
C0
C0
C7
C6
7E
3C
ENDCHAR
STARTCHAR ccircumflex
ENCODING 265
SWIDTH 459 0
DWIDTH 7 0
BBX 7 12 0 0
BITMAP
38
6C
00
38
7C
6E
E0
E0
E0
66
7C
38
ENDCHAR
STARTCHAR Cdotaccent
ENCODING 266
SWIDTH 570 0
DWIDTH 9 0
BBX 8 15 1 0
BITMAP
18
18
00
3C
7E
C6
C7
C0
C0
C0
C0
C7
C6
7E
3C
ENDCHAR
STARTCHAR cdotaccent
ENCODING 267
SWIDTH 459 0
DWIDTH 7 0
BBX 7 12 0 0
BITMAP
18
38
00
38
7C
6E
E0
E0
E0
66
7C
38
ENDCHAR
STARTCHAR Ccaron
ENCODING 268
SWIDTH 570 0
DWIDTH 9 0
BBX 8 15 1 0
BITMAP
6C
38
00
3C
7E
C6
C7
C0
C0
C0
C0
C7
C6
7E
3C
ENDCHAR
STARTCHAR ccaron
ENCODING 269
SWIDTH 459 0
DWIDTH 7 0
BBX 7 12 0 0
BITMAP
6C
38
00
38
7C
6E
E0
E0
E0
66
7C
38
ENDCHAR
STARTCHAR Dcaron
ENCODING 270
SWIDTH 564 0
DWIDTH 9 0
BBX 7 15 1 0
BITMAP
D8
70
00
F8
FC
CE
C6
C6
C6
C6
C6
C6
CE
FC
F8
ENDCHAR
STARTCHAR dcaron
ENCODING 271
SWIDTH 568 0
DWIDTH 9 0
BBX 9 12 1 0
BITMAP
0D80
0D80
0D00
7C00
FC00
CC00
CC00
CC00
CC00
CC00
FC00
7C00
ENDCHAR
STARTCHAR Dcroat
ENCODING 272
SWIDTH 579 0
DWIDTH 9 0
BBX 8 12 0 0
BITMAP
7C
7E
63
63
63
FB
63
63
63
67
7E
7C
ENDCHAR
STARTCHAR dcroat
ENCODING 273
SWIDTH 562 0
DWIDTH 9 0
BBX 7 12 1 0
BITMAP
0C
3E
0C
7C
FC
CC
CC
CC
CC
CC
FC
7C
ENDCHAR
STARTCHAR Emacron
ENCODING 274
SWIDTH 490 0
DWIDTH 8 0
BBX 6 14 1 0
BITMAP
78
00
FC
FC
C0
C0
C0
FC
FC
C0
C0
C0
FC
FC
ENDCHAR
STARTCHAR emacron
ENCODING 275
SWIDTH 478 0
DWIDTH 8 0
BBX 6 11 1 0
BITMAP
F8
00
78
FC
CC
CC
FC
FC
C8
FC
78
ENDCHAR
STARTCHAR Ebreve
ENCODING 276
SWIDTH 490 0
DWIDTH 8 0
BBX 6 15 1 0
BITMAP
4C
78
00
FC
FC
C0
C0
C0
FC
FC
C0
C0
C0
FC
FC
ENDCHAR
STARTCHAR ebreve
ENCODING 277
SWIDTH 478 0
DWIDTH 8 0
BBX 6 12 1 0
BITMAP
C8
78
00
78
FC
CC
CC
FC
FC
C8
FC
78
ENDCHAR
STARTCHAR Edotaccent
ENCODING 278
SWIDTH 490 0
DWIDTH 8 0
BBX 6 15 1 0
BITMAP
30
38
00
FC
FC
C0
C0
C0
FC
FC
C0
C0
C0
FC
FC
ENDCHAR
STARTCHAR edotaccent
ENCODING 279
SWIDTH 478 0
DWIDTH 8 0
BBX 6 12 1 0
BITMAP
30
30
00
78
FC
CC
CC
FC
FC
C8
FC
78
ENDCHAR
STARTCHAR Eogonek
ENCODING 280
SWIDTH 490 0
DWIDTH 8 0
BBX 7 15 1 -3
BITMAP
FE
FE
C0
C0
C0
FC
FC
C0
C0
C0
FE
FE
18
10
1C
ENDCHAR
STARTCHAR eogonek
ENCODING 281
SWIDTH 478 0
DWIDTH 8 0
BBX 6 12 1 -3
BITMAP
78
FC
CC
CC
FC
FC
C4
FC
78
10
30
18
ENDCHAR
STARTCHAR Ecaron
ENCODING 282
SWIDTH 490 0
DWIDTH 8 0
BBX 6 15 1 0
BITMAP
6C
38
00
FC
FC
C0
C0
C0
FC
FC
C0
C0
C0
FC
FC
ENDCHAR
STARTCHAR ecaron
ENCODING 283
SWIDTH 478 0
DWIDTH 8 0
BBX 6 12 1 0
BITMAP
D8
70
00
78
FC
CC
CC
FC
FC
C8
FC
78
ENDCHAR
STARTCHAR Gcircumflex
ENCODING 284
SWIDTH 584 0
DWIDTH 9 0
BBX 7 15 1 0
BITMAP
38
6C
00
3C
FE
C6
C6
C0
C0
CE
CE
C6
E6
FE
3C
ENDCHAR
STARTCHAR gcircumflex
ENCODING 285
SWIDTH 502 0
DWIDTH 8 0
BBX 6 15 1 -3
BITMAP
70
D8
00
7C
FC
CC
CC
CC
CC
CC
FC
7C
0C
FC
78
ENDCHAR
STARTCHAR Gbreve
ENCODING 286
SWIDTH 584 0
DWIDTH 9 0
BBX 7 15 1 0
BITMAP
64
3C
00
3C
FE
C6
C6
C0
C0
CE
CE
C6
E6
FE
3C
ENDCHAR
STARTCHAR gbreve
ENCODING 287
SWIDTH 502 0
DWIDTH 8 0
BBX 6 15 1 -3
BITMAP
CC
78
00
7C
FC
CC
CC
CC
CC
CC
FC
7C
0C
FC
78
ENDCHAR
STARTCHAR Gdotaccent
ENCODING 288
SWIDTH 584 0
DWIDTH 9 0
BBX 7 15 1 0
BITMAP
18
18
00
3C
FE
C6
C6
C0
C0
CE
CE
C6
E6
FE
3C
ENDCHAR
STARTCHAR gdotaccent
ENCODING 289
SWIDTH 502 0
DWIDTH 8 0
BBX 6 15 1 -3
BITMAP
30
30
00
7C
FC
CC
CC
CC
CC
CC
FC
7C
0C
FC
78
ENDCHAR
STARTCHAR uni0122
ENCODING 290
SWIDTH 584 0
DWIDTH 9 0
BBX 7 16 1 -4
BITMAP
3C
FE
C6
C6
C0
C0
CE
CE
C6
E6
FE
3C
00
18
18
10
ENDCHAR
STARTCHAR uni0123
ENCODING 291
SWIDTH 502 0
DWIDTH 8 0
BBX 6 17 1 -3
BITMAP
10
30
30
30
00
7C
FC
CC
CC
CC
CC
CC
FC
7C
0C
FC
78
ENDCHAR
STARTCHAR Hcircumflex
ENCODING 292
SWIDTH 613 0
DWIDTH 10 0
BBX 8 15 1 0
BITMAP
18
6E
00
C3
C3
C3
C3
C3
FF
FF
C3
C3
C3
C3
C3
ENDCHAR
STARTCHAR hcircumflex
ENCODING 293
SWIDTH 492 0
DWIDTH 8 0
BBX 6 15 1 0
BITMAP
70
D8
00
C0
C0
C0
F8
FC
CC
CC
CC
CC
CC
CC
CC
ENDCHAR
STARTCHAR Hbar
ENCODING 294
SWIDTH 631 0
DWIDTH 10 0
BBX 10 12 0 0
BITMAP
6180
6180
FFC0
6180
6180
7F80
7F80
6180
6180
6180
6180
6180
ENDCHAR
STARTCHAR hbar
ENCODING 295
SWIDTH 506 0
DWIDTH 8 0
BBX 7 12 0 0
BITMAP
60
F0
60
6C
7E
66
66
66
66
66
66
66
ENDCHAR
STARTCHAR Itilde
ENCODING 296
SWIDTH 270 0
DWIDTH 4 0
BBX 5 15 0 0
BITMAP
D8
B0
00
60
60
60
60
60
60
60
60
60
60
60
60
ENDCHAR
STARTCHAR itilde
ENCODING 297
SWIDTH 262 0
DWIDTH 4 0
BBX 5 12 0 0
BITMAP
D8
B0
00
60
60
60
60
60
60
60
60
60
ENDCHAR
STARTCHAR Imacron
ENCODING 298
SWIDTH 270 0
DWIDTH 4 0
BBX 4 14 0 0
BITMAP
F0
00
60
60
60
60
60
60
60
60
60
60
60
60
ENDCHAR
STARTCHAR imacron
ENCODING 299
SWIDTH 262 0
DWIDTH 4 0
BBX 5 11 -1 0
BITMAP
F8
00
30
30
30
30
30
30
30
30
30
ENDCHAR
STARTCHAR Ibreve
ENCODING 300
SWIDTH 270 0
DWIDTH 4 0
BBX 6 15 -1 0
BITMAP
CC
78
00
30
30
30
30
30
30
30
30
30
30
30
30
ENDCHAR
STARTCHAR ibreve
ENCODING 301
SWIDTH 262 0
DWIDTH 4 0
BBX 6 12 -1 0
BITMAP
CC
78
00
30
30
30
30
30
30
30
30
30
ENDCHAR
STARTCHAR Iogonek
ENCODING 302
SWIDTH 270 0
DWIDTH 4 0
BBX 2 15 1 -3
BITMAP
C0
C0
C0
C0
C0
C0
C0
C0
C0
C0
C0
C0
C0
80
C0
ENDCHAR
STARTCHAR iogonek
ENCODING 303
SWIDTH 251 0
DWIDTH 4 0
BBX 3 15 0 -3
BITMAP
60
60
00
60
60
60
60
60
60
60
60
60
60
C0
60
ENDCHAR
STARTCHAR Idotaccent
ENCODING 304
SWIDTH 270 0
DWIDTH 4 0
BBX 2 15 1 0
BITMAP
C0
C0
00
C0
C0
C0
C0
C0
C0
C0
C0
C0
C0
C0
C0
ENDCHAR
STARTCHAR dotlessi
ENCODING 305
SWIDTH 262 0
DWIDTH 4 0
BBX 2 9 1 0
BITMAP
C0
C0
C0
C0
C0
C0
C0
C0
C0
ENDCHAR
STARTCHAR IJ
ENCODING 306
SWIDTH 760 0
DWIDTH 12 0
BBX 10 12 1 0
BITMAP
C0C0
C0C0
C0C0
C0C0
C0C0
C0C0
C0C0
C0C0
CCC0
CCC0
CFC0
C780
ENDCHAR
STARTCHAR ij
ENCODING 307
SWIDTH 497 0
DWIDTH 8 0
BBX 6 15 1 -3
BITMAP
CC
CC
00
CC
CC
CC
CC
CC
CC
CC
CC
CC
0C
1C
18
ENDCHAR
STARTCHAR Jcircumflex
ENCODING 308
SWIDTH 490 0
DWIDTH 8 0
BBX 8 15 0 0
BITMAP
0E
1B
00
06
06
06
06
06
06
06
06
E6
6E
7C
38
ENDCHAR
STARTCHAR jcircumflex
ENCODING 309
SWIDTH 268 0
DWIDTH 4 0
BBX 6 15 -1 -3
BITMAP
30
EC
00
30
30
30
30
30
30
30
30
30
30
70
60
ENDCHAR
STARTCHAR uni0136
ENCODING 310
SWIDTH 553 0
DWIDTH 9 0
BBX 8 15 1 -3
BITMAP
C7
CE
CC
DC
D8
F8
F8
FC
CC
CE
C6
C7
10
10
30
ENDCHAR
STARTCHAR uni0137
ENCODING 311
SWIDTH 478 0
DWIDTH 8 0
BBX 7 16 1 -4
BITMAP
C0
C0
C0
CC
D8
F8
F0
F0
F8
D8
DC
CC
02
30
30
20
ENDCHAR
STARTCHAR kgreenlandic
ENCODING 312
SWIDTH 525 0
DWIDTH 8 0
BBX 7 9 1 0
BITMAP
CE
DC
D8
F8
F8
D8
DC
CC
CE
ENDCHAR
STARTCHAR Lacute
ENCODING 313
SWIDTH 478 0
DWIDTH 8 0
BBX 6 15 1 0
BITMAP
70
C0
00
C0
C0
C0
C0
C0
C0
C0
C0
C0
C0
FC
FC
ENDCHAR
STARTCHAR lacute
ENCODING 314
SWIDTH 251 0
DWIDTH 4 0
BBX 4 15 1 0
BITMAP
70
C0
00
C0
C0
C0
C0
C0
C0
C0
C0
C0
C0
C0
C0
ENDCHAR
STARTCHAR uni013B
ENCODING 315
SWIDTH 478 0
DWIDTH 8 0
BBX 6 16 1 -4
BITMAP
C0
C0
C0
C0
C0
C0
C0
C0
C0
C0
FC
FC
00
30
30
20
ENDCHAR
STARTCHAR uni013C
ENCODING 316
SWIDTH 251 0
DWIDTH 4 0
BBX 2 16 1 -4
BITMAP
C0
C0
C0
C0
C0
C0
C0
C0
C0
C0
C0
C0
00
C0
C0
80
ENDCHAR
STARTCHAR Lcaron
ENCODING 317
SWIDTH 478 0
DWIDTH 8 0
BBX 6 12 1 0
BITMAP
C8
C8
D8
C0
C0
C0
C0
C0
C0
C0
FC
FC
ENDCHAR
STARTCHAR lcaron
ENCODING 318
SWIDTH 325 0
DWIDTH 5 0
BBX 5 12 1 0
BITMAP
D8
D8
D0
C0
C0
C0
C0
C0
C0
C0
C0
C0
ENDCHAR
STARTCHAR Ldot
ENCODING 319
SWIDTH 478 0
DWIDTH 8 0
BBX 6 12 1 0
BITMAP
C0
C0
C0
C0
D8
D8
C0
C0
C0
C0
FC
FC
ENDCHAR
STARTCHAR ldot
ENCODING 320
SWIDTH 359 0
DWIDTH 6 0
BBX 5 12 1 0
BITMAP
C0
C0
C0
C0
C0
D8
D8
C0
C0
C0
C0
C0
ENDCHAR
STARTCHAR Lslash
ENCODING 321
SWIDTH 494 0
DWIDTH 8 0
BBX 8 12 0 0
BITMAP
60
60
60
60
78
E0
60
60
60
60
7F
7F
ENDCHAR
STARTCHAR lslash
ENCODING 322
SWIDTH 286 0
DWIDTH 5 0
BBX 4 12 0 0
BITMAP
60
60
60
60
60
70
E0
60
60
60
60
60
ENDCHAR
STARTCHAR Nacute
ENCODING 323
SWIDTH 612 0
DWIDTH 10 0
BBX 8 15 1 0
BITMAP
0E
18
00
E3
E3
E3
F3
D3
DB
DB
CF
CF
C7
C7
C7
ENDCHAR
STARTCHAR nacute
ENCODING 324
SWIDTH 492 0
DWIDTH 8 0
BBX 6 12 1 0
BITMAP
1C
30
00
F8
FC
CC
CC
CC
CC
CC
CC
CC
ENDCHAR
STARTCHAR uni0145
ENCODING 325
SWIDTH 612 0
DWIDTH 10 0
BBX 8 16 1 -4
BITMAP
E3
E3
E3
F3
D3
DB
DB
CF
CF
C7
C7
C7
00
18
18
10
ENDCHAR
STARTCHAR uni0146
ENCODING 326
SWIDTH 492 0
DWIDTH 8 0
BBX 6 13 1 -4
BITMAP
F8
FC
CC
CC
CC
CC
CC
CC
CC
00
30
30
20
ENDCHAR
STARTCHAR Ncaron
ENCODING 327
SWIDTH 612 0
DWIDTH 10 0
BBX 8 15 1 0
BITMAP
6E
18
00
E3
E3
E3
F3
D3
DB
DB
CF
CF
C7
C7
C7
ENDCHAR
STARTCHAR ncaron
ENCODING 328
SWIDTH 492 0
DWIDTH 8 0
BBX 6 12 1 0
BITMAP
FC
30
00
F8
FC
CC
CC
CC
CC
CC
CC
CC
ENDCHAR
STARTCHAR napostrophe
ENCODING 329
SWIDTH 492 0
DWIDTH 8 0
BBX 8 12 -1 0
BITMAP
40
40
C0
3E
3F
33
33
33
33
33
33
33
ENDCHAR
STARTCHAR Eng
ENCODING 330
SWIDTH 609 0
DWIDTH 10 0
BBX 8 15 1 -3
BITMAP
E3
E3
E3
F3
F3
DB
DB
CF
CF
C7
C7
C3
03
0F
0E
ENDCHAR
STARTCHAR eng
ENCODING 331
SWIDTH 496 0
DWIDTH 8 0
BBX 6 12 1 -3
BITMAP
D8
FC
CC
CC
CC
CC
CC
CC
CC
0C
1C
18
ENDCHAR
STARTCHAR Omacron
ENCODING 332
SWIDTH 603 0
DWIDTH 10 0
BBX 8 14 1 0
BITMAP
7C
00
3C
7E
E7
C3
C3
C3
C3
C3
C3
E7
7E
3C
ENDCHAR
STARTCHAR omacron
ENCODING 333
SWIDTH 497 0
DWIDTH 8 0
BBX 6 11 1 0
BITMAP
F8
00
78
FC
CC
CC
CC
CC
CC
FC
78
ENDCHAR
STARTCHAR Obreve
ENCODING 334
SWIDTH 603 0
DWIDTH 10 0
BBX 8 15 1 0
BITMAP
66
3C
00
3C
7E
E7
C3
C3
C3
C3
C3
C3
E7
7E
3C
ENDCHAR
STARTCHAR obreve
ENCODING 335
SWIDTH 497 0
DWIDTH 8 0
BBX 6 12 1 0
BITMAP
CC
78
00
78
FC
CC
CC
CC
CC
CC
FC
78
ENDCHAR
STARTCHAR Ohungarumlaut
ENCODING 336
SWIDTH 603 0
DWIDTH 10 0
BBX 8 15 1 0
BITMAP
3E
3C
00
3C
7E
E7
C3
C3
C3
C3
C3
C3
E7
7E
3C
ENDCHAR
STARTCHAR ohungarumlaut
ENCODING 337
SWIDTH 497 0
DWIDTH 8 0
BBX 7 12 1 0
BITMAP
3E
78
00
78
FC
CC
CC
CC
CC
CC
FC
78
ENDCHAR
STARTCHAR OE
ENCODING 338
SWIDTH 841 0
DWIDTH 13 0
BBX 11 12 1 0
BITMAP
3FE0
7FE0
C600
C600
C600
C7E0
C7E0
C600
C600
C600
7FE0
3FE0
ENDCHAR
STARTCHAR oe
ENCODING 339
SWIDTH 770 0
DWIDTH 12 0
BBX 11 9 0 0
BITMAP
3DC0
7FE0
6760
6660
E7E0
67E0
6720
7FE0
3DE0
ENDCHAR
STARTCHAR Racute
ENCODING 340
SWIDTH 553 0
DWIDTH 9 0
BBX 8 15 1 0
BITMAP
1C
30
00
FC
FE
C6
C6
C6
C6
FE
FC
CC
CE
CE
C7
ENDCHAR
STARTCHAR racute
ENCODING 341
SWIDTH 331 0
DWIDTH 5 0
BBX 5 12 1 0
BITMAP
38
60
00
F0
F0
C0
C0
C0
C0
C0
C0
C0
ENDCHAR
STARTCHAR uni0156
ENCODING 342
SWIDTH 553 0
DWIDTH 9 0
BBX 8 16 1 -4
BITMAP
FC
FE
C6
C6
C6
C6
FE
FC
CC
CE
CE
C6
01
30
30
20
ENDCHAR
STARTCHAR uni0157
ENCODING 343
SWIDTH 331 0
DWIDTH 5 0
BBX 4 13 1 -4
BITMAP
F0
F0
C0
C0
C0
C0
C0
C0
C0
00
C0
C0
80
ENDCHAR
STARTCHAR Rcaron
ENCODING 344
SWIDTH 553 0
DWIDTH 9 0
BBX 8 15 1 0
BITMAP
EC
30
00
FC
FE
C6
C6
C6
C6
FE
FC
CC
CE
CE
C7
ENDCHAR
STARTCHAR rcaron
ENCODING 345
SWIDTH 331 0
DWIDTH 5 0
BBX 6 12 0 0
BITMAP
DC
30
00
78
78
60
60
60
60
60
60
60
ENDCHAR
STARTCHAR Sacute
ENCODING 346
SWIDTH 540 0
DWIDTH 9 0
BBX 7 15 1 0
BITMAP
1C
38
00
3C
7E
E6
C6
E0
78
3C
0E
C6
C6
FE
3C
ENDCHAR
STARTCHAR sacute
ENCODING 347
SWIDTH 454 0
DWIDTH 7 0
BBX 7 12 0 0
BITMAP
0E
18
00
38
7C
6E
70
7C
1C
EE
7C
38
ENDCHAR
STARTCHAR Scircumflex
ENCODING 348
SWIDTH 540 0
DWIDTH 9 0
BBX 7 15 1 0
BITMAP
38
6C
00
3C
7E
E6
C6
E0
78
3C
0E
C6
C6
FE
3C
ENDCHAR
STARTCHAR scircumflex
ENCODING 349
SWIDTH 454 0
DWIDTH 7 0
BBX 7 12 0 0
BITMAP
38
6C
00
38
7C
6E
70
7C
1C
EE
7C
38
ENDCHAR
STARTCHAR Scedilla
ENCODING 350
SWIDTH 540 0
DWIDTH 9 0
BBX 7 16 1 -4
BITMAP
3C
7E
E6
C6
E0
78
3C
0E
C6
C6
FE
3C
10
38
18
10
ENDCHAR
STARTCHAR scedilla
ENCODING 351
SWIDTH 454 0
DWIDTH 7 0
BBX 7 13 0 -4
BITMAP
38
7C
6E
70
7C
1C
EE
7C
38
10
18
18
18
ENDCHAR
STARTCHAR Scaron
ENCODING 352
SWIDTH 540 0
DWIDTH 9 0
BBX 7 15 1 0
BITMAP
6C
38
00
3C
7E
E6
C6
E0
78
3C
0E
C6
C6
FE
3C
ENDCHAR
STARTCHAR scaron
ENCODING 353
SWIDTH 454 0
DWIDTH 7 0
BBX 7 12 0 0
BITMAP
6C
38
00
38
7C
6E
70
7C
1C
EE
7C
38
ENDCHAR
STARTCHAR uni0162
ENCODING 354
SWIDTH 542 0
DWIDTH 9 0
BBX 8 16 0 -4
BITMAP
FF
FF
18
18
18
18
18
18
18
18
18
18
18
0C
0C
08
ENDCHAR
STARTCHAR uni0163
ENCODING 355
SWIDTH 307 0
DWIDTH 5 0
BBX 5 15 0 -4
BITMAP
60
60
F8
F8
60
60
60
60
60
78
38
30
38
18
30
ENDCHAR
STARTCHAR Tcaron
ENCODING 356
SWIDTH 542 0
DWIDTH 9 0
BBX 8 15 0 0
BITMAP
36
1C
00
FF
FF
18
18
18
18
18
18
18
18
18
18
ENDCHAR
STARTCHAR tcaron
ENCODING 357
SWIDTH 326 0
DWIDTH 5 0
BBX 6 13 0 0
BITMAP
0C
0C
68
60
F8
F8
60
60
60
60
60
78
38
ENDCHAR
STARTCHAR Tbar
ENCODING 358
SWIDTH 542 0
DWIDTH 9 0
BBX 8 12 0 0
BITMAP
FF
FF
18
18
3E
18
18
18
18
18
18
18
ENDCHAR
STARTCHAR tbar
ENCODING 359
SWIDTH 307 0
DWIDTH 5 0
BBX 5 11 0 0
BITMAP
60
60
F8
F8
60
F8
60
60
60
78
38
ENDCHAR
STARTCHAR Utilde
ENCODING 360
SWIDTH 571 0
DWIDTH 9 0
BBX 7 15 1 0
BITMAP
64
5C
00
C6
C6
C6
C6
C6
C6
C6
C6
C6
C6
FE
7C
ENDCHAR
STARTCHAR utilde
ENCODING 361
SWIDTH 492 0
DWIDTH 8 0
BBX 6 12 1 0
BITMAP
68
D8
00
CC
CC
CC
CC
CC
CC
CC
FC
7C
ENDCHAR
STARTCHAR Umacron
ENCODING 362
SWIDTH 571 0
DWIDTH 9 0
BBX 7 14 1 0
BITMAP
7C
00
C6
C6
C6
C6
C6
C6
C6
C6
C6
C6
FE
7C
ENDCHAR
STARTCHAR umacron
ENCODING 363
SWIDTH 492 0
DWIDTH 8 0
BBX 6 11 1 0
BITMAP
F8
00
CC
CC
CC
CC
CC
CC
CC
FC
7C
ENDCHAR
STARTCHAR Ubreve
ENCODING 364
SWIDTH 571 0
DWIDTH 9 0
BBX 7 15 1 0
BITMAP
6C
38
00
C6
C6
C6
C6
C6
C6
C6
C6
C6
C6
FE
7C
ENDCHAR
STARTCHAR ubreve
ENCODING 365
SWIDTH 492 0
DWIDTH 8 0
BBX 6 12 1 0
BITMAP
CC
78
00
CC
CC
CC
CC
CC
CC
CC
FC
7C
ENDCHAR
STARTCHAR Uring
ENCODING 366
SWIDTH 571 0
DWIDTH 9 0
BBX 7 16 1 0
BITMAP
38
28
38
00
C6
C6
C6
C6
C6
C6
C6
C6
C6
C6
FE
7C
ENDCHAR
STARTCHAR uring
ENCODING 367
SWIDTH 492 0
DWIDTH 8 0
BBX 6 13 1 0
BITMAP
70
50
70
00
CC
CC
CC
CC
CC
CC
CC
FC
7C
ENDCHAR
STARTCHAR Uhungarumlaut
ENCODING 368
SWIDTH 571 0
DWIDTH 9 0
BBX 7 15 1 0
BITMAP
36
6C
00
C6
C6
C6
C6
C6
C6
C6
C6
C6
C6
FE
7C
ENDCHAR
STARTCHAR uhungarumlaut
ENCODING 369
SWIDTH 492 0
DWIDTH 8 0
BBX 7 12 1 0
BITMAP
3E
78
00
CC
CC
CC
CC
CC
CC
CC
FC
7C
ENDCHAR
STARTCHAR Uogonek
ENCODING 370
SWIDTH 571 0
DWIDTH 9 0
BBX 7 15 1 -3
BITMAP
C6
C6
C6
C6
C6
C6
C6
C6
C6
C6
FE
7C
18
18
0C
ENDCHAR
STARTCHAR uogonek
ENCODING 371
SWIDTH 492 0
DWIDTH 8 0
BBX 6 12 1 -3
BITMAP
CC
CC
CC
CC
CC
CC
CC
FC
7C
08
18
0C
ENDCHAR
STARTCHAR Wcircumflex
ENCODING 372
SWIDTH 749 0
DWIDTH 12 0
BBX 12 15 0 0
BITMAP
0600
1D80
0000
E670
6660
6660
6F60
6F60
6F60
7FE0
3FC0
39C0
39C0
39C0
39C0
ENDCHAR
STARTCHAR wcircumflex
ENCODING 373
SWIDTH 632 0
DWIDTH 10 0
BBX 10 12 0 0
BITMAP
0C00
3B00
0000
CCC0
ED80
6D80
7F80
7F80
7F80
7380
3300
3300
ENDCHAR
STARTCHAR Ycircumflex
ENCODING 374
SWIDTH 542 0
DWIDTH 9 0
BBX 9 15 0 0
BITMAP
1C00
3600
0000
E380
6300
6700
3600
3600
3C00
1C00
1C00
1C00
1C00
1C00
1C00
ENDCHAR
STARTCHAR ycircumflex
ENCODING 375
SWIDTH 446 0
DWIDTH 7 0
BBX 7 15 0 -3
BITMAP
38
6C
00
EE
EC
6C
6C
6C
38
38
38
38
30
70
60
ENDCHAR
STARTCHAR Ydieresis
ENCODING 376
SWIDTH 542 0
DWIDTH 9 0
BBX 9 15 0 0
BITMAP
6600
7600
0000
E380
6300
6700
3600
3600
3C00
1C00
1C00
1C00
1C00
1C00
1C00
ENDCHAR
STARTCHAR Zacute
ENCODING 377
SWIDTH 530 0
DWIDTH 8 0
BBX 7 15 1 0
BITMAP
1C
38
00
FE
FE
0C
1C
18
38
30
70
60
E0
FE
FE
ENDCHAR
STARTCHAR zacute
ENCODING 378
SWIDTH 452 0
DWIDTH 7 0
BBX 6 12 1 0
BITMAP
1C
30
00
FC
FC
18
30
70
60
E0
FC
FC
ENDCHAR
STARTCHAR Zdotaccent
ENCODING 379
SWIDTH 530 0
DWIDTH 8 0
BBX 7 15 1 0
BITMAP
30
30
00
FE
FE
0C
1C
18
38
30
70
60
E0
FE
FE
ENDCHAR
STARTCHAR zdotaccent
ENCODING 380
SWIDTH 452 0
DWIDTH 7 0
BBX 6 12 1 0
BITMAP
30
70
00
FC
FC
18
30
70
60
E0
FC
FC
ENDCHAR
STARTCHAR Zcaron
ENCODING 381
SWIDTH 530 0
DWIDTH 8 0
BBX 7 15 1 0
BITMAP
6C
38
00
FE
FE
0C
1C
18
38
30
70
60
E0
FE
FE
ENDCHAR
STARTCHAR zcaron
ENCODING 382
SWIDTH 452 0
DWIDTH 7 0
BBX 6 12 1 0
BITMAP
D8
70
00
FC
FC
18
30
70
60
E0
FC
FC
ENDCHAR
STARTCHAR longs
ENCODING 383
SWIDTH 246 0
DWIDTH 4 0
BBX 4 12 1 0
BITMAP
70
F0
C0
C0
C0
C0
C0
C0
C0
C0
C0
C0
ENDCHAR
STARTCHAR uni018F
ENCODING 399
SWIDTH 601 0
DWIDTH 10 0
BBX 8 12 1 0
BITMAP
7C
FE
86
07
03
FF
FF
C3
C7
E6
7E
3C
ENDCHAR
STARTCHAR florin
ENCODING 402
SWIDTH 330 0
DWIDTH 5 0
BBX 5 15 0 -3
BITMAP
38
78
60
F8
F8
60
60
60
60
60
60
60
60
E0
C0
ENDCHAR
STARTCHAR Ohorn
ENCODING 416
SWIDTH 607 0
DWIDTH 10 0
BBX 9 13 1 0
BITMAP
0180
3D80
7F00
E700
C700
C300
C300
C300
C300
C700
E600
7E00
3C00
ENDCHAR
STARTCHAR ohorn
ENCODING 417
SWIDTH 513 0
DWIDTH 8 0
BBX 8 10 0 0
BITMAP
01
3D
7E
66
E6
E6
E6
66
7E
3C
ENDCHAR
STARTCHAR Uhorn
ENCODING 431
SWIDTH 625 0
DWIDTH 10 0
BBX 10 12 1 0
BITMAP
C640
C6C0
C780
C600
C600
C600
C600
C600
C600
E600
7E00
3C00
ENDCHAR
STARTCHAR uhorn
ENCODING 432
SWIDTH 540 0
DWIDTH 9 0
BBX 8 10 1 0
BITMAP
01
CD
CF
CC
CC
CC
CC
CC
FC
7C
ENDCHAR
STARTCHAR uni01F0
ENCODING 496
SWIDTH 268 0
DWIDTH 4 0
BBX 6 15 -1 -3
BITMAP
FC
30
00
30
30
30
30
30
30
30
30
30
30
70
60
ENDCHAR
STARTCHAR Aringacute
ENCODING 506
SWIDTH 597 0
DWIDTH 10 0
BBX 10 16 0 0
BITMAP
0700
0C00
0C00
1400
0C00
0C00
1E00
1E00
1E00
3300
3300
3300
7F80
7F80
6180
E1C0
ENDCHAR
STARTCHAR aringacute
ENCODING 507
SWIDTH 470 0
DWIDTH 8 0
BBX 6 14 1 0
BITMAP
18
30
30
50
30
78
FC
CC
0C
7C
FC
CC
FC
7C
ENDCHAR
STARTCHAR AEacute
ENCODING 508
SWIDTH 817 0
DWIDTH 13 0
BBX 13 15 0 0
BITMAP
0380
0700
0000
07F0
07F0
0F00
0F00
1F00
1BF0
3BF0
3F80
3F80
7380
63F8
E3F8
ENDCHAR
STARTCHAR aeacute
ENCODING 509
SWIDTH 728 0
DWIDTH 12 0
BBX 10 12 1 0
BITMAP
0700
0C00
0000
7B80
FFC0
CEC0
0CC0
7FC0
FFC0
CC40
FFC0
73C0
ENDCHAR
STARTCHAR Oslashacute
ENCODING 510
SWIDTH 602 0
DWIDTH 10 0
BBX 8 16 1 -1
BITMAP
0E
18
00
3F
7E
E6
CF
CB
DB
D3
D3
E7
E6
7E
7C
C0
ENDCHAR
STARTCHAR oslashacute
ENCODING 511
SWIDTH 496 0
DWIDTH 8 0
BBX 6 13 1 -1
BITMAP
1C
30
0C
78
FC
DC
DC
FC
EC
EC
FC
78
C0
ENDCHAR
STARTCHAR uni0218
ENCODING 536
SWIDTH 540 0
DWIDTH 9 0
BBX 7 16 1 -4
BITMAP
3C
7E
E6
C6
E0
78
3C
0E
C6
C6
FE
3C
00
10
10
30
ENDCHAR
STARTCHAR uni0219
ENCODING 537
SWIDTH 454 0
DWIDTH 7 0
BBX 7 13 0 -4
BITMAP
38
7C
6E
70
7C
1C
EE
7C
38
00
10
10
30
ENDCHAR
STARTCHAR uni021A
ENCODING 538
SWIDTH 542 0
DWIDTH 9 0
BBX 8 16 0 -4
BITMAP
FF
FF
18
18
18
18
18
18
18
18
18
18
00
08
18
10
ENDCHAR
STARTCHAR uni021B
ENCODING 539
SWIDTH 307 0
DWIDTH 5 0
BBX 5 15 0 -4
BITMAP
60
60
F8
F8
60
60
60
60
60
78
38
00
30
30
20
ENDCHAR
STARTCHAR uni0237
ENCODING 567
SWIDTH 268 0
DWIDTH 4 0
BBX 3 12 0 -3
BITMAP
60
60
60
60
60
60
60
60
60
60
E0
C0
ENDCHAR
STARTCHAR uni0259
ENCODING 601
SWIDTH 468 0
DWIDTH 8 0
BBX 6 9 1 0
BITMAP
78
FC
8C
0C
FC
FC
CC
FC
78
ENDCHAR
STARTCHAR uni02BC
ENCODING 700
SWIDTH 224 0
DWIDTH 4 0
BBX 2 4 1 8
BITMAP
C0
C0
C0
80
ENDCHAR
STARTCHAR circumflex
ENCODING 710
SWIDTH 453 0
DWIDTH 7 0
BBX 5 2 1 10
BITMAP
70
D8
ENDCHAR
STARTCHAR caron
ENCODING 711
SWIDTH 431 0
DWIDTH 7 0
BBX 5 2 1 10
BITMAP
D8
70
ENDCHAR
STARTCHAR uni02C9
ENCODING 713
SWIDTH 458 0
DWIDTH 7 0
BBX 5 1 1 10
BITMAP
F8
ENDCHAR
STARTCHAR breve
ENCODING 728
SWIDTH 444 0
DWIDTH 7 0
BBX 5 2 1 10
BITMAP
C8
70
ENDCHAR
STARTCHAR dotaccent
ENCODING 729
SWIDTH 265 0
DWIDTH 4 0
BBX 2 2 1 10
BITMAP
C0
C0
ENDCHAR
STARTCHAR ring
ENCODING 730
SWIDTH 333 0
DWIDTH 5 0
BBX 3 3 1 9
BITMAP
E0
A0
E0
ENDCHAR
STARTCHAR ogonek
ENCODING 731
SWIDTH 284 0
DWIDTH 5 0
BBX 2 3 1 -3
BITMAP
C0
80
C0
ENDCHAR
STARTCHAR tilde
ENCODING 732
SWIDTH 437 0
DWIDTH 7 0
BBX 5 2 1 10
BITMAP
C8
B8
ENDCHAR
STARTCHAR hungarumlaut
ENCODING 733
SWIDTH 370 0
DWIDTH 6 0
BBX 6 2 0 10
BITMAP
6C
D8
ENDCHAR
STARTCHAR uni02F3
ENCODING 755
SWIDTH 284 0
DWIDTH 5 0
BBX 3 3 1 -4
BITMAP
60
A0
60
ENDCHAR
STARTCHAR gravecomb
ENCODING 768
SWIDTH 0 0
DWIDTH 0 0
BBX 4 2 -6 10
BITMAP
E0
30
ENDCHAR
STARTCHAR acutecomb
ENCODING 769
SWIDTH 0 0
DWIDTH 0 0
BBX 3 2 -4 10
BITMAP
E0
C0
ENDCHAR
STARTCHAR tildecomb
ENCODING 771
SWIDTH 0 0
DWIDTH 0 0
BBX 5 2 -6 10
BITMAP
C8
B8
ENDCHAR
STARTCHAR hookabovecomb
ENCODING 777
SWIDTH 0 0
DWIDTH 0 0
BBX 3 3 -5 10
BITMAP
C0
60
C0
ENDCHAR
STARTCHAR uni030F
ENCODING 783
SWIDTH 0 0
DWIDTH 0 0
BBX 6 2 -7 10
BITMAP
F8
3C
ENDCHAR
STARTCHAR dotbelowcomb
ENCODING 803
SWIDTH 0 0
DWIDTH 0 0
BBX 3 2 -6 -3
BITMAP
C0
E0
ENDCHAR
STARTCHAR tonos
ENCODING 900
SWIDTH 339 0
DWIDTH 5 0
BBX 2 3 2 10
BITMAP
C0
C0
80
ENDCHAR
STARTCHAR dieresistonos
ENCODING 901
SWIDTH 496 0
DWIDTH 8 0
BBX 6 4 1 10
BITMAP
30
30
FC
CC
ENDCHAR
STARTCHAR Alphatonos
ENCODING 902
SWIDTH 597 0
DWIDTH 10 0
BBX 10 13 0 0
BITMAP
6000
4C00
CC00
1E00
1E00
1E00
3300
3300
3300
7F80
7F80
6180
E1C0
ENDCHAR
STARTCHAR anoteleia
ENCODING 903
SWIDTH 284 0
DWIDTH 5 0
BBX 3 2 1 5
BITMAP
E0
E0
ENDCHAR
STARTCHAR Epsilontonos
ENCODING 904
SWIDTH 490 0
DWIDTH 8 0
BBX 10 13 -3 0
BITMAP
6000
4FC0
CFC0
0C00
0C00
0C00
0FC0
0FC0
0C00
0C00
0C00
0FC0
0FC0
ENDCHAR
STARTCHAR Etatonos
ENCODING 905
SWIDTH 613 0
DWIDTH 10 0
BBX 11 13 -2 0
BITMAP
C000
D860
9860
1860
1860
1860
1FE0
1FE0
1860
1860
1860
1860
1860
ENDCHAR
STARTCHAR Iotatonos
ENCODING 906
SWIDTH 270 0
DWIDTH 4 0
BBX 6 13 -3 0
BITMAP
60
4C
CC
0C
0C
0C
0C
0C
0C
0C
0C
0C
0C
ENDCHAR
STARTCHAR Omicrontonos
ENCODING 908
SWIDTH 613 0
DWIDTH 10 0
BBX 10 13 -1 0
BITMAP
C000
CF00
9F80
39C0
38C0
30C0
30C0
30C0
30C0
30C0
39C0
1F80
0F00
ENDCHAR
STARTCHAR Upsilontonos
ENCODING 910
SWIDTH 591 0
DWIDTH 9 0
BBX 11 13 -2 0
BITMAP
C000
DC60
8CE0
0CC0
0EC0
07C0
0780
0380
0300
0300
0300
0300
0300
ENDCHAR
STARTCHAR Omegatonos
ENCODING 911
SWIDTH 598 0
DWIDTH 10 0
BBX 9 13 -1 0
BITMAP
E000
CE00
9F00
3B80
3180
3180
3180
3180
3180
3980
1B00
3B80
3B80
ENDCHAR
STARTCHAR iotadieresistonos
ENCODING 912
SWIDTH 312 0
DWIDTH 5 0
BBX 6 14 -1 0
BITMAP
18
10
D4
CC
00
30
30
30
30
30
30
30
38
18
ENDCHAR
STARTCHAR Alpha
ENCODING 913
SWIDTH 597 0
DWIDTH 10 0
BBX 10 12 0 0
BITMAP
0C00
0C00
1E00
1E00
1E00
3300
3300
3300
7F80
7F80
6180
E1C0
ENDCHAR
STARTCHAR Beta
ENCODING 914
SWIDTH 561 0
DWIDTH 9 0
BBX 7 12 1 0
BITMAP
FC
FE
C6
C6
FC
FE
C6
C6
C6
C6
FE
FC
ENDCHAR
STARTCHAR Gamma
ENCODING 915
SWIDTH 488 0
DWIDTH 8 0
BBX 6 12 1 0
BITMAP
FC
FC
C0
C0
C0
C0
C0
C0
C0
C0
C0
C0
ENDCHAR
STARTCHAR uni0394
ENCODING 916
SWIDTH 641 0
DWIDTH 10 0
BBX 10 12 0 0
BITMAP
0E00
0E00
1E00
1E00
1B00
3B00
3300
3380
7180
6180
7FC0
FFC0
ENDCHAR
STARTCHAR Epsilon
ENCODING 917
SWIDTH 490 0
DWIDTH 8 0
BBX 6 12 1 0
BITMAP
FC
FC
C0
C0
C0
FC
FC
C0
C0
C0
FC
FC
ENDCHAR
STARTCHAR Zeta
ENCODING 918
SWIDTH 530 0
DWIDTH 8 0
BBX 7 12 1 0
BITMAP
FE
FE
0C
1C
18
38
30
70
60
E0
FE
FE
ENDCHAR
STARTCHAR Eta
ENCODING 919
SWIDTH 613 0
DWIDTH 10 0
BBX 8 12 1 0
BITMAP
C3
C3
C3
C3
C3
FF
FF
C3
C3
C3
C3
C3
ENDCHAR
STARTCHAR Theta
ENCODING 920
SWIDTH 601 0
DWIDTH 10 0
BBX 8 12 1 0
BITMAP
3C
7E
E7
C3
C3
DB
DB
C3
C3
E7
7E
3C
ENDCHAR
STARTCHAR Iota
ENCODING 921
SWIDTH 270 0
DWIDTH 4 0
BBX 2 12 1 0
BITMAP
C0
C0
C0
C0
C0
C0
C0
C0
C0
C0
C0
C0
ENDCHAR
STARTCHAR Kappa
ENCODING 922
SWIDTH 553 0
DWIDTH 9 0
BBX 8 12 1 0
BITMAP
C7
CE
CC
DC
D8
F8
F8
FC
CC
CE
C6
C7
ENDCHAR
STARTCHAR Lambda
ENCODING 923
SWIDTH 563 0
DWIDTH 9 0
BBX 9 12 0 0
BITMAP
1C00
1C00
1C00
3E00
3600
3600
3600
7700
6300
6300
6300
E380
ENDCHAR
STARTCHAR Mu
ENCODING 924
SWIDTH 758 0
DWIDTH 12 0
BBX 10 12 1 0
BITMAP
E1C0
E1C0
F1C0
F3C0
F3C0
F3C0
DAC0
DEC0
DEC0
CEC0
CCC0
CCC0
ENDCHAR
STARTCHAR Nu
ENCODING 925
SWIDTH 612 0
DWIDTH 10 0
BBX 8 12 1 0
BITMAP
E3
E3
E3
F3
D3
DB
DB
CF
CF
C7
C7
C7
ENDCHAR
STARTCHAR Xi
ENCODING 926
SWIDTH 499 0
DWIDTH 8 0
BBX 6 12 1 0
BITMAP
FC
FC
00
00
7C
7C
00
00
00
00
FC
FC
ENDCHAR
STARTCHAR Omicron
ENCODING 927
SWIDTH 603 0
DWIDTH 10 0
BBX 8 12 1 0
BITMAP
3C
7E
E7
C3
C3
C3
C3
C3
C3
E7
7E
3C
ENDCHAR
STARTCHAR Pi
ENCODING 928
SWIDTH 614 0
DWIDTH 10 0
BBX 8 12 1 0
BITMAP
FF
FF
C3
C3
C3
C3
C3
C3
C3
C3
C3
C3
ENDCHAR
STARTCHAR Rho
ENCODING 929
SWIDTH 568 0
DWIDTH 9 0
BBX 7 12 1 0
BITMAP
FC
FE
C6
C6
C6
C6
FE
FC
C0
C0
C0
C0
ENDCHAR
STARTCHAR Sigma
ENCODING 931
SWIDTH 499 0
DWIDTH 8 0
BBX 6 12 1 0
BITMAP
FC
FC
E0
60
30
38
38
70
60
E0
FC
FC
ENDCHAR
STARTCHAR Tau
ENCODING 932
SWIDTH 542 0
DWIDTH 9 0
BBX 8 12 0 0
BITMAP
FF
FF
18
18
18
18
18
18
18
18
18
18
ENDCHAR
STARTCHAR Upsilon
ENCODING 933
SWIDTH 542 0
DWIDTH 9 0
BBX 9 12 0 0
BITMAP
E380
6300
6700
3600
3600
3C00
1C00
1C00
1C00
1C00
1C00
1C00
ENDCHAR
STARTCHAR Phi
ENCODING 934
SWIDTH 676 0
DWIDTH 11 0
BBX 9 12 1 0
BITMAP
1C00
3E00
7F00
DF80
DD80
DD80
DD80
DD80
DF80
7F00
3E00
1C00
ENDCHAR
STARTCHAR Chi
ENCODING 935
SWIDTH 559 0
DWIDTH 9 0
BBX 9 12 0 0
BITMAP
E380
7700
7700
3600
3E00
1C00
1C00
3E00
3600
7700
6700
E380
ENDCHAR
STARTCHAR Psi
ENCODING 936
SWIDTH 635 0
DWIDTH 10 0
BBX 10 12 0 0
BITMAP
EDC0
EDC0
EDC0
EDC0
EDC0
EDC0
6D80
7F80
3F00
0C00
0C00
0C00
ENDCHAR
STARTCHAR uni03A9
ENCODING 937
SWIDTH 588 0
DWIDTH 9 0
BBX 7 12 1 0
BITMAP
38
7C
EE
C6
C6
C6
C6
C6
C6
6C
EE
EE
ENDCHAR
STARTCHAR Iotadieresis
ENCODING 938
SWIDTH 270 0
DWIDTH 4 0
BBX 6 15 -1 0
BITMAP
CC
CC
00
30
30
30
30
30
30
30
30
30
30
30
30
ENDCHAR
STARTCHAR Upsilondieresis
ENCODING 939
SWIDTH 542 0
DWIDTH 9 0
BBX 9 15 0 0
BITMAP
6600
7600
0000
E380
6300
6700
3600
3600
3C00
1C00
1C00
1C00
1C00
1C00
1C00
ENDCHAR
STARTCHAR alphatonos
ENCODING 940
SWIDTH 493 0
DWIDTH 8 0
BBX 7 13 1 0
BITMAP
18
10
30
00
7C
FC
CC
CC
CC
CC
CC
FE
76
ENDCHAR
STARTCHAR epsilontonos
ENCODING 941
SWIDTH 488 0
DWIDTH 8 0
BBX 6 13 1 0
BITMAP
18
30
30
00
78
FC
CC
C0
70
F0
C0
FC
78
ENDCHAR
STARTCHAR etatonos
ENCODING 942
SWIDTH 496 0
DWIDTH 8 0
BBX 6 16 1 -3
BITMAP
18
30
30
00
F8
FC
CC
CC
CC
CC
CC
CC
CC
0C
0C
0C
ENDCHAR
STARTCHAR iotatonos
ENCODING 943
SWIDTH 312 0
DWIDTH 5 0
BBX 3 13 1 0
BITMAP
60
40
C0
00
C0
C0
C0
C0
C0
C0
C0
E0
60
ENDCHAR
STARTCHAR upsilondieresistonos
ENCODING 944
SWIDTH 481 0
DWIDTH 8 0
BBX 6 14 1 0
BITMAP
18
30
FC
CC
00
DC
CC
CC
CC
CC
CC
CC
FC
78
ENDCHAR
STARTCHAR alpha
ENCODING 945
SWIDTH 493 0
DWIDTH 8 0
BBX 7 9 1 0
BITMAP
7C
FC
CC
CC
CC
CC
CC
FE
76
ENDCHAR
STARTCHAR beta
ENCODING 946
SWIDTH 526 0
DWIDTH 8 0
BBX 7 15 1 -3
BITMAP
78
FC
CC
CC
D8
DC
CC
CE
CE
CE
FC
F8
C0
C0
C0
ENDCHAR
STARTCHAR gamma
ENCODING 947
SWIDTH 454 0
DWIDTH 7 0
BBX 7 12 0 -3
BITMAP
EE
6E
6C
6C
6C
38
38
38
38
38
38
38
ENDCHAR
STARTCHAR delta
ENCODING 948
SWIDTH 496 0
DWIDTH 8 0
BBX 6 12 1 0
BITMAP
78
78
E0
70
78
CC
CC
CC
CC
CC
FC
78
ENDCHAR
STARTCHAR epsilon
ENCODING 949
SWIDTH 488 0
DWIDTH 8 0
BBX 6 9 1 0
BITMAP
78
FC
CC
C0
70
F0
C0
FC
78
ENDCHAR
STARTCHAR zeta
ENCODING 950
SWIDTH 445 0
DWIDTH 7 0
BBX 6 15 1 -3
BITMAP
FC
F8
18
30
70
60
C0
C0
C0
C0
F0
78
18
18
10
ENDCHAR
STARTCHAR eta
ENCODING 951
SWIDTH 496 0
DWIDTH 8 0
BBX 6 12 1 -3
BITMAP
F8
FC
CC
CC
CC
CC
CC
CC
CC
0C
0C
0C
ENDCHAR
STARTCHAR theta
ENCODING 952
SWIDTH 517 0
DWIDTH 8 0
BBX 6 12 1 0
BITMAP
78
FC
CC
CC
CC
FC
FC
CC
CC
CC
FC
78
ENDCHAR
STARTCHAR iota
ENCODING 953
SWIDTH 312 0
DWIDTH 5 0
BBX 3 9 1 0
BITMAP
C0
C0
C0
C0
C0
C0
C0
E0
60
ENDCHAR
STARTCHAR kappa
ENCODING 954
SWIDTH 525 0
DWIDTH 8 0
BBX 7 9 1 0
BITMAP
CE
DC
D8
F8
F8
D8
DC
CC
CE
ENDCHAR
STARTCHAR lambda
ENCODING 955
SWIDTH 480 0
DWIDTH 8 0
BBX 8 12 0 0
BITMAP
70
70
30
18
18
3C
3C
3C
6E
66
67
E3
ENDCHAR
STARTCHAR uni03BC
ENCODING 956
SWIDTH 549 0
DWIDTH 9 0
BBX 7 12 1 -3
BITMAP
CE
CE
CE
CE
CE
CE
EE
FE
FE
C0
C0
C0
ENDCHAR
STARTCHAR nu
ENCODING 957
SWIDTH 449 0
DWIDTH 7 0
BBX 7 9 0 0
BITMAP
EE
EC
6C
6C
6C
28
38
38
38
ENDCHAR
STARTCHAR xi
ENCODING 958
SWIDTH 472 0
DWIDTH 8 0
BBX 6 15 1 -3
BITMAP
3C
7C
60
60
78
38
E0
C0
C0
E0
78
3C
0C
0C
18
ENDCHAR
STARTCHAR omicron
ENCODING 959
SWIDTH 497 0
DWIDTH 8 0
BBX 6 9 1 0
BITMAP
78
FC
CC
CC
CC
CC
CC
FC
78
ENDCHAR
STARTCHAR pi
ENCODING 960
SWIDTH 569 0
DWIDTH 9 0
BBX 9 9 0 0
BITMAP
FF80
FF80
3600
3600
3600
3600
3600
3780
3380
ENDCHAR
STARTCHAR rho
ENCODING 961
SWIDTH 496 0
DWIDTH 8 0
BBX 6 12 1 -3
BITMAP
78
FC
CC
CC
CC
CC
CC
FC
F8
C0
C0
C0
ENDCHAR
STARTCHAR sigma1
ENCODING 962
SWIDTH 448 0
DWIDTH 7 0
BBX 7 12 0 -3
BITMAP
38
7C
6E
E0
E0
E0
60
78
3C
0C
0C
18
ENDCHAR
STARTCHAR sigma
ENCODING 963
SWIDTH 504 0
DWIDTH 8 0
BBX 7 9 1 0
BITMAP
7E
FE
C8
CC
CC
CC
CC
FC
78
ENDCHAR
STARTCHAR tau
ENCODING 964
SWIDTH 459 0
DWIDTH 7 0
BBX 7 9 0 0
BITMAP
FE
FE
38
38
38
38
38
1C
1C
ENDCHAR
STARTCHAR upsilon
ENCODING 965
SWIDTH 481 0
DWIDTH 8 0
BBX 6 9 1 0
BITMAP
DC
CC
CC
CC
CC
CC
CC
FC
78
ENDCHAR
STARTCHAR phi
ENCODING 966
SWIDTH 659 0
DWIDTH 11 0
BBX 9 13 1 -4
BITMAP
4E00
FF00
DD80
DD80
DD80
DD80
FF80
7F00
3E00
1C00
1C00
1C00
1C00
ENDCHAR
STARTCHAR chi
ENCODING 967
SWIDTH 452 0
DWIDTH 7 0
BBX 7 12 0 -3
BITMAP
E6
EE
3C
3C
38
18
18
3C
3C
7C
6E
E6
ENDCHAR
STARTCHAR psi
ENCODING 968
SWIDTH 657 0
DWIDTH 11 0
BBX 9 13 1 -4
BITMAP
DF80
DD80
DD80
DD80
DD80
DD80
FF80
7F00
3E00
1C00
1C00
1C00
1C00
ENDCHAR
STARTCHAR omega
ENCODING 969
SWIDTH 708 0
DWIDTH 11 0
BBX 11 9 0 0
BITMAP
71C0
60C0
6EC0
EEE0
EEE0
6EE0
6EC0
7BC0
3B80
ENDCHAR
STARTCHAR iotadieresis
ENCODING 970
SWIDTH 312 0
DWIDTH 5 0
BBX 6 12 -1 0
BITMAP
CC
CC
00
30
30
30
30
30
30
30
38
18
ENDCHAR
STARTCHAR upsilondieresis
ENCODING 971
SWIDTH 481 0
DWIDTH 8 0
BBX 6 12 1 0
BITMAP
CC
CC
00
DC
CC
CC
CC
CC
CC
CC
FC
78
ENDCHAR
STARTCHAR omicrontonos
ENCODING 972
SWIDTH 497 0
DWIDTH 8 0
BBX 6 13 1 0
BITMAP
18
30
30
00
78
FC
CC
CC
CC
CC
CC
FC
78
ENDCHAR
STARTCHAR upsilontonos
ENCODING 973
SWIDTH 481 0
DWIDTH 8 0
BBX 6 13 1 0
BITMAP
18
30
30
00
DC
CC
CC
CC
CC
CC
CC
FC
78
ENDCHAR
STARTCHAR omegatonos
ENCODING 974
SWIDTH 708 0
DWIDTH 11 0
BBX 11 13 0 0
BITMAP
0600
0600
0400
0000
71C0
60C0
6EC0
EEE0
EEE0
6EE0
6EC0
7BC0
3B80
ENDCHAR
STARTCHAR theta1
ENCODING 977
SWIDTH 524 0
DWIDTH 8 0
BBX 7 12 1 0
BITMAP
38
7C
6C
6C
7C
3E
DE
CC
CC
CC
FC
78
ENDCHAR
STARTCHAR Upsilon1
ENCODING 978
SWIDTH 525 0
DWIDTH 8 0
BBX 8 12 0 0
BITMAP
C3
E7
66
66
3C
3C
3C
18
18
18
18
18
ENDCHAR
STARTCHAR omega1
ENCODING 982
SWIDTH 721 0
DWIDTH 12 0
BBX 12 9 0 0
BITMAP
FFF0
FFF0
6060
6660
6660
6660
6660
7FE0
39C0
ENDCHAR
STARTCHAR uni0400
ENCODING 1024
SWIDTH 490 0
DWIDTH 8 0
BBX 6 15 1 0
BITMAP
E0
30
00
FC
FC
C0
C0
C0
FC
FC
C0
C0
C0
FC
FC
ENDCHAR
STARTCHAR uni0401
ENCODING 1025
SWIDTH 490 0
DWIDTH 8 0
BBX 6 15 1 0
BITMAP
CC
EC
00
FC
FC
C0
C0
C0
FC
FC
C0
C0
C0
FC
FC
ENDCHAR
STARTCHAR uni0402
ENCODING 1026
SWIDTH 648 0
DWIDTH 10 0
BBX 10 12 0 0
BITMAP
FF00
FF00
3800
3800
3800
3F00
3F80
39C0
39C0
39C0
3B80
3B00
ENDCHAR
STARTCHAR uni0403
ENCODING 1027
SWIDTH 488 0
DWIDTH 8 0
BBX 6 15 1 0
BITMAP
1C
38
00
FC
FC
C0
C0
C0
C0
C0
C0
C0
C0
C0
C0
ENDCHAR
STARTCHAR uni0404
ENCODING 1028
SWIDTH 575 0
DWIDTH 9 0
BBX 8 12 1 0
BITMAP
3C
7E
C6
C6
F9
F8
C0
C0
C7
E6
7E
3C
ENDCHAR
STARTCHAR uni0405
ENCODING 1029
SWIDTH 540 0
DWIDTH 9 0
BBX 7 12 1 0
BITMAP
3C
7E
E6
C6
E0
78
3C
0E
C6
C6
FE
3C
ENDCHAR
STARTCHAR uni0406
ENCODING 1030
SWIDTH 270 0
DWIDTH 4 0
BBX 2 12 1 0
BITMAP
C0
C0
C0
C0
C0
C0
C0
C0
C0
C0
C0
C0
ENDCHAR
STARTCHAR uni0407
ENCODING 1031
SWIDTH 270 0
DWIDTH 4 0
BBX 6 15 -1 0
BITMAP
CC
CC
00
30
30
30
30
30
30
30
30
30
30
30
30
ENDCHAR
STARTCHAR uni0408
ENCODING 1032
SWIDTH 490 0
DWIDTH 8 0
BBX 7 12 0 0
BITMAP
06
06
06
06
06
06
06
06
E6
6E
7C
38
ENDCHAR
STARTCHAR uni0409
ENCODING 1033
SWIDTH 910 0
DWIDTH 15 0
BBX 13 12 1 0
BITMAP
7F00
7F00
7300
7300
73F0
73F8
6318
6318
6318
6318
E3F8
C3F0
ENDCHAR
STARTCHAR uni040A
ENCODING 1034
SWIDTH 905 0
DWIDTH 14 0
BBX 13 12 1 0
BITMAP
C700
C700
C700
C700
FFE0
FFF0
C738
C738
C738
C738
C7F0
C7E0
ENDCHAR
STARTCHAR uni040B
ENCODING 1035
SWIDTH 662 0
DWIDTH 11 0
BBX 9 12 1 0
BITMAP
FE00
FE00
3000
3000
3E00
3F00
3380
3180
3180
3180
3180
3180
ENDCHAR
STARTCHAR uni040C
ENCODING 1036
SWIDTH 553 0
DWIDTH 9 0
BBX 8 15 1 0
BITMAP
1C
30
00
C7
CE
CC
DC
D8
F8
F8
FC
CC
CE
C6
C7
ENDCHAR
STARTCHAR uni040D
ENCODING 1037
SWIDTH 605 0
DWIDTH 10 0
BBX 8 15 1 0
BITMAP
70
18
00
C7
C7
CF
CF
CF
DF
D7
F7
F7
E7
E7
C7
ENDCHAR
STARTCHAR uni040E
ENCODING 1038
SWIDTH 550 0
DWIDTH 9 0
BBX 9 15 0 0
BITMAP
3200
1C00
0000
E380
6300
7700
3600
3600
1E00
1C00
1C00
0C00
1800
3800
3000
ENDCHAR
STARTCHAR uni040F
ENCODING 1039
SWIDTH 608 0
DWIDTH 10 0
BBX 8 15 1 -3
BITMAP
C7
C7
C7
C7
C7
C7
C7
C7
C7
C7
FF
FF
18
18
18
ENDCHAR
STARTCHAR uni0410
ENCODING 1040
SWIDTH 597 0
DWIDTH 10 0
BBX 10 12 0 0
BITMAP
0C00
0C00
1E00
1E00
1E00
3300
3300
3300
7F80
7F80
6180
E1C0
ENDCHAR
STARTCHAR uni0411
ENCODING 1041
SWIDTH 545 0
DWIDTH 9 0
BBX 7 12 1 0
BITMAP
FC
FC
C0
C0
FC
FE
C6
C6
C6
C6
FE
FC
ENDCHAR
STARTCHAR uni0412
ENCODING 1042
SWIDTH 561 0
DWIDTH 9 0
BBX 7 12 1 0
BITMAP
FC
FE
C6
C6
FC
FE
C6
C6
C6
C6
FE
FC
ENDCHAR
STARTCHAR uni0413
ENCODING 1043
SWIDTH 488 0
DWIDTH 8 0
BBX 6 12 1 0
BITMAP
FC
FC
C0
C0
C0
C0
C0
C0
C0
C0
C0
C0
ENDCHAR
STARTCHAR uni0414
ENCODING 1044
SWIDTH 655 0
DWIDTH 11 0
BBX 10 15 0 -3
BITMAP
1F80
1F80
1980
1980
3980
3980
3980
3180
3180
3180
FFC0
FFC0
60C0
60C0
60C0
ENDCHAR
STARTCHAR uni0415
ENCODING 1045
SWIDTH 490 0
DWIDTH 8 0
BBX 6 12 1 0
BITMAP
FC
FC
C0
C0
C0
FC
FC
C0
C0
C0
FC
FC
ENDCHAR
STARTCHAR uni0416
ENCODING 1046
SWIDTH 883 0
DWIDTH 14 0
BBX 14 12 0 0
BITMAP
E31C
7338
3338
3B30
1B70
1FE0
1FF0
3B30
3330
7338
7318
E31C
ENDCHAR
STARTCHAR uni0417
ENCODING 1047
SWIDTH 541 0
DWIDTH 9 0
BBX 7 12 1 0
BITMAP
7C
FE
C6
06
3C
3C
0E
06
06
CE
FC
78
ENDCHAR
STARTCHAR uni0418
ENCODING 1048
SWIDTH 605 0
DWIDTH 10 0
BBX 8 12 1 0
BITMAP
C7
C7
CF
CF
CF
DF
D7
F7
F7
E7
E7
C7
ENDCHAR
STARTCHAR uni0419
ENCODING 1049
SWIDTH 605 0
DWIDTH 10 0
BBX 8 15 1 0
BITMAP
66
3C
00
C7
C7
CF
CF
CF
DF
D7
F7
F7
E7
E7
C7
ENDCHAR
STARTCHAR uni041A
ENCODING 1050
SWIDTH 563 0
DWIDTH 9 0
BBX 8 12 1 0
BITMAP
C7
CE
CE
CC
DC
F8
F8
DC
CC
CE
C6
C7
ENDCHAR
STARTCHAR uni041B
ENCODING 1051
SWIDTH 614 0
DWIDTH 10 0
BBX 8 12 1 0
BITMAP
7F
7F
73
73
63
63
63
63
63
63
E3
C3
ENDCHAR
STARTCHAR uni041C
ENCODING 1052
SWIDTH 758 0
DWIDTH 12 0
BBX 10 12 1 0
BITMAP
E1C0
E1C0
F1C0
F3C0
F3C0
F3C0
DAC0
DEC0
DEC0
CEC0
CCC0
CCC0
ENDCHAR
STARTCHAR uni041D
ENCODING 1053
SWIDTH 613 0
DWIDTH 10 0
BBX 8 12 1 0
BITMAP
C3
C3
C3
C3
C3
FF
FF
C3
C3
C3
C3
C3
ENDCHAR
STARTCHAR uni041E
ENCODING 1054
SWIDTH 603 0
DWIDTH 10 0
BBX 8 12 1 0
BITMAP
3C
7E
E7
C3
C3
C3
C3
C3
C3
E7
7E
3C
ENDCHAR
STARTCHAR uni041F
ENCODING 1055
SWIDTH 614 0
DWIDTH 10 0
BBX 8 12 1 0
BITMAP
FF
FF
C3
C3
C3
C3
C3
C3
C3
C3
C3
C3
ENDCHAR
STARTCHAR uni0420
ENCODING 1056
SWIDTH 568 0
DWIDTH 9 0
BBX 7 12 1 0
BITMAP
FC
FE
C6
C6
C6
C6
FE
FC
C0
C0
C0
C0
ENDCHAR
STARTCHAR uni0421
ENCODING 1057
SWIDTH 570 0
DWIDTH 9 0
BBX 8 12 1 0
BITMAP
3C
7E
C6
C7
C0
C0
C0
C0
C7
C6
7E
3C
ENDCHAR
STARTCHAR uni0422
ENCODING 1058
SWIDTH 542 0
DWIDTH 9 0
BBX 8 12 0 0
BITMAP
FF
FF
18
18
18
18
18
18
18
18
18
18
ENDCHAR
STARTCHAR uni0423
ENCODING 1059
SWIDTH 550 0
DWIDTH 9 0
BBX 9 12 0 0
BITMAP
E380
6300
7700
3600
3600
1E00
1C00
1C00
0C00
1800
3800
3000
ENDCHAR
STARTCHAR uni0424
ENCODING 1060
SWIDTH 723 0
DWIDTH 12 0
BBX 10 12 1 0
BITMAP
0C00
3F00
7F80
ED80
CCC0
CCC0
CCC0
CCC0
CDC0
7F80
3F00
0C00
ENDCHAR
STARTCHAR uni0425
ENCODING 1061
SWIDTH 559 0
DWIDTH 9 0
BBX 9 12 0 0
BITMAP
E380
7700
7700
3600
3E00
1C00
1C00
3E00
3600
7700
6700
E380
ENDCHAR
STARTCHAR uni0426
ENCODING 1062
SWIDTH 667 0
DWIDTH 11 0
BBX 9 15 1 -3
BITMAP
C700
C700
C700
C700
C700
C700
C700
C700
C700
C700
FF80
FF80
0180
0180
0180
ENDCHAR
STARTCHAR uni0427
ENCODING 1063
SWIDTH 611 0
DWIDTH 10 0
BBX 8 12 1 0
BITMAP
C3
C3
C3
C3
C3
E3
7F
3F
03
03
03
03
ENDCHAR
STARTCHAR uni0428
ENCODING 1064
SWIDTH 832 0
DWIDTH 13 0
BBX 11 12 1 0
BITMAP
C660
C660
C660
C660
C660
C660
C660
C660
C660
C660
FFE0
FFE0
ENDCHAR
STARTCHAR uni0429
ENCODING 1065
SWIDTH 895 0
DWIDTH 14 0
BBX 13 15 1 -3
BITMAP
C660
C660
C660
C660
C660
C660
C660
C660
C660
C660
FFF8
FFF8
0018
0018
0018
ENDCHAR
STARTCHAR uni042A
ENCODING 1066
SWIDTH 664 0
DWIDTH 11 0
BBX 9 12 1 0
BITMAP
F000
F000
3000
3000
3F00
3F80
3180
3180
3180
3180
3F80
3F00
ENDCHAR
STARTCHAR uni042B
ENCODING 1067
SWIDTH 762 0
DWIDTH 12 0
BBX 10 12 1 0
BITMAP
C0C0
C0C0
C0C0
C0C0
FCC0
FEC0
C6C0
C6C0
C6C0
C6C0
FEC0
FCC0
ENDCHAR
STARTCHAR uni042C
ENCODING 1068
SWIDTH 549 0
DWIDTH 9 0
BBX 7 12 1 0
BITMAP
C0
C0
C0
C0
FC
FE
C6
C6
C6
C6
FE
FC
ENDCHAR
STARTCHAR uni042D
ENCODING 1069
SWIDTH 565 0
DWIDTH 9 0
BBX 8 12 0 0
BITMAP
3C
7E
63
E3
1F
1F
03
03
E3
67
7E
3C
ENDCHAR
STARTCHAR uni042E
ENCODING 1070
SWIDTH 816 0
DWIDTH 13 0
BBX 11 12 1 0
BITMAP
C780
CFC0
CCE0
DC60
D860
F860
F860
D860
DC60
CCE0
CFC0
C780
ENDCHAR
STARTCHAR uni042F
ENCODING 1071
SWIDTH 521 0
DWIDTH 8 0
BBX 7 12 0 0
BITMAP
3E
7E
E6
E6
E6
E6
7E
7E
76
66
E6
C6
ENDCHAR
STARTCHAR uni0430
ENCODING 1072
SWIDTH 470 0
DWIDTH 8 0
BBX 6 9 1 0
BITMAP
78
FC
CC
0C
7C
FC
CC
FC
7C
ENDCHAR
STARTCHAR uni0431
ENCODING 1073
SWIDTH 501 0
DWIDTH 8 0
BBX 6 12 1 0
BITMAP
0C
3C
70
C0
F8
FC
CC
CC
CC
CC
FC
78
ENDCHAR
STARTCHAR uni0432
ENCODING 1074
SWIDTH 497 0
DWIDTH 8 0
BBX 6 9 1 0
BITMAP
F8
FC
CC
CC
F8
FC
CC
FC
FC
ENDCHAR
STARTCHAR uni0433
ENCODING 1075
SWIDTH 370 0
DWIDTH 6 0
BBX 5 9 1 0
BITMAP
F8
F8
C0
C0
C0
C0
C0
C0
C0
ENDCHAR
STARTCHAR uni0434
ENCODING 1076
SWIDTH 564 0
DWIDTH 9 0
BBX 9 12 0 -3
BITMAP
3F00
3F00
3700
3700
3700
3700
7700
FF80
FF80
E380
E380
E380
ENDCHAR
STARTCHAR uni0435
ENCODING 1077
SWIDTH 478 0
DWIDTH 8 0
BBX 6 9 1 0
BITMAP
78
FC
CC
CC
FC
FC
C8
FC
78
ENDCHAR
STARTCHAR uni0436
ENCODING 1078
SWIDTH 752 0
DWIDTH 12 0
BBX 12 9 0 0
BITMAP
E670
7660
36E0
36C0
3FC0
3FC0
36E0
76E0
E670
ENDCHAR
STARTCHAR uni0437
ENCODING 1079
SWIDTH 452 0
DWIDTH 7 0
BBX 7 9 0 0
BITMAP
38
7C
6C
0C
1C
1C
EE
7C
3C
ENDCHAR
STARTCHAR uni0438
ENCODING 1080
SWIDTH 499 0
DWIDTH 8 0
BBX 6 9 1 0
BITMAP
CC
DC
DC
DC
FC
EC
EC
EC
CC
ENDCHAR
STARTCHAR uni0439
ENCODING 1081
SWIDTH 499 0
DWIDTH 8 0
BBX 6 12 1 0
BITMAP
CC
78
00
CC
DC
DC
DC
FC
EC
EC
EC
CC
ENDCHAR
STARTCHAR uni043A
ENCODING 1082
SWIDTH 503 0
DWIDTH 8 0
BBX 7 9 1 0
BITMAP
CE
CC
DC
D8
F8
F8
DC
DC
CE
ENDCHAR
STARTCHAR uni043B
ENCODING 1083
SWIDTH 500 0
DWIDTH 8 0
BBX 7 9 0 0
BITMAP
3E
3E
36
76
76
66
66
E6
C6
ENDCHAR
STARTCHAR uni043C
ENCODING 1084
SWIDTH 664 0
DWIDTH 11 0
BBX 9 9 1 0
BITMAP
E380
E780
E780
F780
F780
FF80
DF80
DB80
DB80
ENDCHAR
STARTCHAR uni043D
ENCODING 1085
SWIDTH 499 0
DWIDTH 8 0
BBX 6 9 1 0
BITMAP
CC
CC
CC
FC
FC
CC
CC
CC
CC
ENDCHAR
STARTCHAR uni043E
ENCODING 1086
SWIDTH 497 0
DWIDTH 8 0
BBX 6 9 1 0
BITMAP
78
FC
CC
CC
CC
CC
CC
FC
78
ENDCHAR
STARTCHAR uni043F
ENCODING 1087
SWIDTH 499 0
DWIDTH 8 0
BBX 6 9 1 0
BITMAP
FC
FC
CC
CC
CC
CC
CC
CC
CC
ENDCHAR
STARTCHAR uni0440
ENCODING 1088
SWIDTH 495 0
DWIDTH 8 0
BBX 6 12 1 -3
BITMAP
F8
FC
CC
CC
CC
CC
CC
FC
F8
C0
C0
C0
ENDCHAR
STARTCHAR uni0441
ENCODING 1089
SWIDTH 459 0
DWIDTH 7 0
BBX 7 9 0 0
BITMAP
38
7C
6E
E0
E0
E0
6E
7C
38
ENDCHAR
STARTCHAR uni0442
ENCODING 1090
SWIDTH 454 0
DWIDTH 7 0
BBX 7 9 0 0
BITMAP
FE
FE
18
18
18
18
18
18
18
ENDCHAR
STARTCHAR uni0443
ENCODING 1091
SWIDTH 446 0
DWIDTH 7 0
BBX 7 12 0 -3
BITMAP
EE
EC
6C
6C
6C
38
38
38
38
30
70
60
ENDCHAR
STARTCHAR uni0444
ENCODING 1092
SWIDTH 634 0
DWIDTH 10 0
BBX 10 15 0 -3
BITMAP
0C00
0C00
0C00
3F00
7F80
6D80
ED80
EDC0
EDC0
6D80
7F80
3F00
0C00
0C00
0C00
ENDCHAR
STARTCHAR uni0445
ENCODING 1093
SWIDTH 452 0
DWIDTH 7 0
BBX 7 9 0 0
BITMAP
EE
6C
7C
38
38
3C
7C
6C
E6
ENDCHAR
STARTCHAR uni0446
ENCODING 1094
SWIDTH 541 0
DWIDTH 9 0
BBX 7 12 1 -3
BITMAP
CC
CC
CC
CC
CC
CC
CC
FE
FE
06
06
06
ENDCHAR
STARTCHAR uni0447
ENCODING 1095
SWIDTH 489 0
DWIDTH 8 0
BBX 6 9 1 0
BITMAP
CC
CC
CC
CC
FC
7C
0C
0C
0C
ENDCHAR
STARTCHAR uni0448
ENCODING 1096
SWIDTH 722 0
DWIDTH 12 0
BBX 10 9 1 0
BITMAP
CDC0
CDC0
CDC0
CDC0
CDC0
CDC0
CDC0
FFC0
FFC0
ENDCHAR
STARTCHAR uni0449
ENCODING 1097
SWIDTH 796 0
DWIDTH 13 0
BBX 11 12 1 -3
BITMAP
CDC0
CDC0
CDC0
CDC0
CDC0
CDC0
CDC0
FFE0
FFE0
0060
0060
0060
ENDCHAR
STARTCHAR uni044A
ENCODING 1098
SWIDTH 574 0
DWIDTH 9 0
BBX 9 9 0 0
BITMAP
F000
F000
3000
3F00
3F00
3380
3380
3F00
3E00
ENDCHAR
STARTCHAR uni044B
ENCODING 1099
SWIDTH 732 0
DWIDTH 12 0
BBX 10 9 1 0
BITMAP
C0C0
C0C0
C0C0
F8C0
FCC0
CEC0
CEC0
FCC0
F8C0
ENDCHAR
STARTCHAR uni044C
ENCODING 1100
SWIDTH 493 0
DWIDTH 8 0
BBX 7 9 1 0
BITMAP
C0
C0
C0
F8
FC
CE
CE
FC
F8
ENDCHAR
STARTCHAR uni044D
ENCODING 1101
SWIDTH 454 0
DWIDTH 7 0
BBX 7 9 0 0
BITMAP
38
7C
EC
0E
1E
0E
EC
7C
38
ENDCHAR
STARTCHAR uni044E
ENCODING 1102
SWIDTH 701 0
DWIDTH 11 0
BBX 10 9 1 0
BITMAP
CF00
DF80
D980
F9C0
F9C0
D9C0
D980
CF80
CF00
ENDCHAR
STARTCHAR uni044F
ENCODING 1103
SWIDTH 493 0
DWIDTH 8 0
BBX 7 9 0 0
BITMAP
3E
7E
66
66
7E
3E
76
66
E6
ENDCHAR
STARTCHAR uni0450
ENCODING 1104
SWIDTH 478 0
DWIDTH 8 0
BBX 6 12 1 0
BITMAP
E0
70
00
78
FC
CC
CC
FC
FC
C8
FC
78
ENDCHAR
STARTCHAR uni0451
ENCODING 1105
SWIDTH 478 0
DWIDTH 8 0
BBX 6 12 1 0
BITMAP
CC
CC
00
78
FC
CC
CC
FC
FC
C8
FC
78
ENDCHAR
STARTCHAR uni0452
ENCODING 1106
SWIDTH 492 0
DWIDTH 8 0
BBX 7 15 0 -3
BITMAP
60
F8
60
7C
7E
66
66
66
66
66
66
66
06
0E
0C
ENDCHAR
STARTCHAR uni0453
ENCODING 1107
SWIDTH 370 0
DWIDTH 6 0
BBX 5 12 1 0
BITMAP
38
60
00
F8
F8
C0
C0
C0
C0
C0
C0
C0
ENDCHAR
STARTCHAR uni0454
ENCODING 1108
SWIDTH 454 0
DWIDTH 7 0
BBX 7 9 0 0
BITMAP
38
7C
6E
E0
F0
E0
66
7C
38
ENDCHAR
STARTCHAR uni0455
ENCODING 1109
SWIDTH 454 0
DWIDTH 7 0
BBX 7 9 0 0
BITMAP
38
7C
6E
70
7C
1C
EE
7C
38
ENDCHAR
STARTCHAR uni0456
ENCODING 1110
SWIDTH 251 0
DWIDTH 4 0
BBX 2 12 1 0
BITMAP
C0
C0
00
C0
C0
C0
C0
C0
C0
C0
C0
C0
ENDCHAR
STARTCHAR uni0457
ENCODING 1111
SWIDTH 262 0
DWIDTH 4 0
BBX 6 12 -1 0
BITMAP
CC
CC
00
30
30
30
30
30
30
30
30
30
ENDCHAR
STARTCHAR uni0458
ENCODING 1112
SWIDTH 245 0
DWIDTH 4 0
BBX 3 15 0 -3
BITMAP
60
60
00
60
60
60
60
60
60
60
60
60
60
E0
C0
ENDCHAR
STARTCHAR uni0459
ENCODING 1113
SWIDTH 740 0
DWIDTH 12 0
BBX 12 9 0 0
BITMAP
3E00
3E00
3600
37C0
37E0
7660
6670
E7E0
C7C0
ENDCHAR
STARTCHAR uni045A
ENCODING 1114
SWIDTH 743 0
DWIDTH 12 0
BBX 11 9 1 0
BITMAP
CC00
CC00
CC00
FF80
FFC0
CCE0
CCC0
CFC0
CF80
ENDCHAR
STARTCHAR uni045B
ENCODING 1115
SWIDTH 496 0
DWIDTH 8 0
BBX 7 12 0 0
BITMAP
60
F8
60
7C
7E
66
66
66
66
66
66
66
ENDCHAR
STARTCHAR uni045C
ENCODING 1116
SWIDTH 503 0
DWIDTH 8 0
BBX 7 12 1 0
BITMAP
1C
30
00
CE
CC
DC
D8
F8
F8
DC
DC
CE
ENDCHAR
STARTCHAR uni045D
ENCODING 1117
SWIDTH 499 0
DWIDTH 8 0
BBX 6 12 1 0
BITMAP
E0
30
00
CC
DC
DC
DC
FC
EC
EC
EC
CC
ENDCHAR
STARTCHAR uni045E
ENCODING 1118
SWIDTH 446 0
DWIDTH 7 0
BBX 7 15 0 -3
BITMAP
64
38
00
EE
EC
6C
6C
6C
38
38
38
38
30
70
60
ENDCHAR
STARTCHAR uni045F
ENCODING 1119
SWIDTH 499 0
DWIDTH 8 0
BBX 6 12 1 -3
BITMAP
CC
CC
CC
CC
CC
CC
CC
FC
FC
30
30
30
ENDCHAR
STARTCHAR uni0460
ENCODING 1120
SWIDTH 824 0
DWIDTH 13 0
BBX 11 12 1 0
BITMAP
CE60
CE60
CE60
CE60
CE60
CE60
CE60
CE60
CE60
CE60
FFE0
7BC0
ENDCHAR
STARTCHAR uni0461
ENCODING 1121
SWIDTH 701 0
DWIDTH 11 0
BBX 10 9 1 0
BITMAP
CDC0
CDC0
CDC0
CDC0
CDC0
CDC0
DD80
FF80
7700
ENDCHAR
STARTCHAR uni0462
ENCODING 1122
SWIDTH 549 0
DWIDTH 9 0
BBX 8 12 0 0
BITMAP
60
F8
60
60
7E
7F
63
63
63
63
7F
7E
ENDCHAR
STARTCHAR uni0463
ENCODING 1123
SWIDTH 493 0
DWIDTH 8 0
BBX 8 12 0 0
BITMAP
60
60
F8
60
60
60
7C
7E
66
67
7E
7C
ENDCHAR
STARTCHAR uni0464
ENCODING 1124
SWIDTH 769 0
DWIDTH 12 0
BBX 11 12 1 0
BITMAP
C780
CFC0
DCE0
D860
FF00
FF00
D800
D800
DC60
CCE0
CFC0
C780
ENDCHAR
STARTCHAR uni0465
ENCODING 1125
SWIDTH 655 0
DWIDTH 10 0
BBX 9 9 1 0
BITMAP
CF00
DF80
D980
FE00
F800
D980
DB80
DF00
CE00
ENDCHAR
STARTCHAR uni0466
ENCODING 1126
SWIDTH 585 0
DWIDTH 9 0
BBX 9 12 0 0
BITMAP
1C00
1C00
1E00
1E00
3E00
3600
3700
7F00
7F00
6F80
6F80
ED80
ENDCHAR
STARTCHAR uni0467
ENCODING 1127
SWIDTH 495 0
DWIDTH 8 0
BBX 8 9 0 0
BITMAP
18
38
3C
3C
6C
7E
7E
7E
FF
ENDCHAR
STARTCHAR uni0468
ENCODING 1128
SWIDTH 816 0
DWIDTH 13 0
BBX 12 12 1 0
BITMAP
C380
C380
C780
C780
C6C0
C6C0
CEC0
FFE0
FFE0
CF60
DF60
DB70
ENDCHAR
STARTCHAR uni0469
ENCODING 1129
SWIDTH 698 0
DWIDTH 11 0
BBX 10 9 1 0
BITMAP
C600
C700
CF00
CF00
CD80
FF80
FF80
DFC0
FEC0
ENDCHAR
STARTCHAR uni046A
ENCODING 1130
SWIDTH 767 0
DWIDTH 12 0
BBX 10 12 1 0
BITMAP
7FC0
7F80
3300
3B00
1E00
7F80
FFC0
CCC0
CCC0
CCC0
CCC0
CCC0
ENDCHAR
STARTCHAR uni046B
ENCODING 1131
SWIDTH 644 0
DWIDTH 10 0
BBX 8 9 1 0
BITMAP
FF
7E
3E
3C
7E
FF
DB
DB
DB
ENDCHAR
STARTCHAR uni046C
ENCODING 1132
SWIDTH 1017 0
DWIDTH 16 0
BBX 14 12 1 0
BITMAP
C7FC
C3F8
C330
C3B0
C1E0
FFF8
FFFC
CCCC
CCCC
CCCC
CCCC
CCCC
ENDCHAR
STARTCHAR uni046D
ENCODING 1133
SWIDTH 885 0
DWIDTH 14 0
BBX 12 9 1 0
BITMAP
CFF0
C7E0
C7C0
C3C0
FFE0
FFF0
CDB0
CDB0
CDB0
ENDCHAR
STARTCHAR uni046E
ENCODING 1134
SWIDTH 451 0
DWIDTH 7 0
BBX 6 19 0 -4
BITMAP
FC
30
00
78
78
1C
0C
1C
78
78
0C
0C
0C
7C
F8
C0
C0
E0
40
ENDCHAR
STARTCHAR uni046F
ENCODING 1135
SWIDTH 446 0
DWIDTH 7 0
BBX 6 15 0 -3
BITMAP
EC
30
00
78
7C
0C
38
3C
0C
0C
7C
F8
C0
C0
60
ENDCHAR
STARTCHAR uni0470
ENCODING 1136
SWIDTH 635 0
DWIDTH 10 0
BBX 10 12 0 0
BITMAP
EDC0
EDC0
EDC0
EDC0
EDC0
EDC0
6D80
7F80
3F00
0C00
0C00
0C00
ENDCHAR
STARTCHAR uni0471
ENCODING 1137
SWIDTH 657 0
DWIDTH 11 0
BBX 9 13 1 -4
BITMAP
DF80
DD80
DD80
DD80
DD80
DD80
FF80
7F00
3E00
1C00
1C00
1C00
1C00
ENDCHAR
STARTCHAR uni0472
ENCODING 1138
SWIDTH 601 0
DWIDTH 10 0
BBX 8 12 1 0
BITMAP
3C
7E
E7
C3
C3
FF
C3
C3
E3
E7
7E
3C
ENDCHAR
STARTCHAR uni0473
ENCODING 1139
SWIDTH 494 0
DWIDTH 8 0
BBX 6 9 1 0
BITMAP
78
FC
CC
CC
FC
CC
CC
FC
78
ENDCHAR
STARTCHAR uni0474
ENCODING 1140
SWIDTH 566 0
DWIDTH 9 0
BBX 9 12 0 0
BITMAP
E180
6380
6300
6300
7200
3600
3600
3600
3600
1C00
1C00
1C00
ENDCHAR
STARTCHAR uni0475
ENCODING 1141
SWIDTH 452 0
DWIDTH 7 0
BBX 7 9 0 0
BITMAP
E6
EE
6C
6C
6C
78
38
38
38
ENDCHAR
STARTCHAR uni0476
ENCODING 1142
SWIDTH 566 0
DWIDTH 9 0
BBX 9 15 0 0
BITMAP
7800
3C00
2A00
E180
6380
6300
6300
7200
3600
3600
3600
3600
1C00
1C00
1C00
ENDCHAR
STARTCHAR uni0477
ENCODING 1143
SWIDTH 452 0
DWIDTH 7 0
BBX 7 13 0 0
BITMAP
D8
7C
50
00
E6
EE
6C
6C
6C
78
38
38
38
ENDCHAR
STARTCHAR uni0478
ENCODING 1144
SWIDTH 1049 0
DWIDTH 17 0
BBX 16 15 1 -3
BITMAP
3C00
7E00
E700
C367
C366
C376
C33E
C33C
C33C
E71C
7E18
3C18
0018
0038
0030
ENDCHAR
STARTCHAR uni0479
ENCODING 1145
SWIDTH 943 0
DWIDTH 15 0
BBX 14 12 1 -3
BITMAP
799C
FDD8
CCD8
CCD8
CCF8
CC70
CC70
FC70
7860
0060
00E0
00C0
ENDCHAR
STARTCHAR uni047A
ENCODING 1146
SWIDTH 601 0
DWIDTH 10 0
BBX 8 14 1 -1
BITMAP
18
3C
7E
FF
C3
C3
C3
C3
C3
C3
FF
7E
3C
18
ENDCHAR
STARTCHAR uni047B
ENCODING 1147
SWIDTH 496 0
DWIDTH 8 0
BBX 6 11 1 -1
BITMAP
30
78
FC
FC
CC
CC
CC
FC
FC
78
30
ENDCHAR
STARTCHAR uni047C
ENCODING 1148
SWIDTH 825 0
DWIDTH 13 0
BBX 11 15 1 0
BITMAP
0C00
1300
0400
6480
E8C0
C0E0
C060
C060
CC60
CC60
CC60
CC60
CEE0
FFC0
7B80
ENDCHAR
STARTCHAR uni047D
ENCODING 1149
SWIDTH 695 0
DWIDTH 11 0
BBX 9 12 1 0
BITMAP
1C00
1700
0800
6B00
E380
C180
C180
DD80
DD80
DD80
FF80
7700
ENDCHAR
STARTCHAR uni047E
ENCODING 1150
SWIDTH 824 0
DWIDTH 13 0
BBX 11 15 1 0
BITMAP
3F80
0400
0000
CE60
CE60
CE60
CE60
CE60
CE60
CE60
CE60
CE60
CE60
FFE0
7BC0
ENDCHAR
STARTCHAR uni047F
ENCODING 1151
SWIDTH 701 0
DWIDTH 11 0
BBX 10 12 1 0
BITMAP
3E00
0800
0000
CDC0
CDC0
CDC0
CDC0
CDC0
CDC0
DD80
FF80
7700
ENDCHAR
STARTCHAR uni0480
ENCODING 1152
SWIDTH 541 0
DWIDTH 9 0
BBX 7 15 1 -3
BITMAP
3C
7E
E6
C6
C0
C0
C0
C0
C0
E0
78
38
18
18
18
ENDCHAR
STARTCHAR uni0481
ENCODING 1153
SWIDTH 472 0
DWIDTH 8 0
BBX 6 12 1 -3
BITMAP
38
7C
CC
C0
C0
C0
C0
78
78
38
38
38
ENDCHAR
STARTCHAR uni0482
ENCODING 1154
SWIDTH 546 0
DWIDTH 9 0
BBX 7 10 1 0
BITMAP
04
2C
38
1C
16
90
60
70
48
C0
ENDCHAR
STARTCHAR uni0483
ENCODING 1155
SWIDTH 0 0
DWIDTH 0 0
BBX 5 3 -6 9
BITMAP
08
F8
80
ENDCHAR
STARTCHAR uni0484
ENCODING 1156
SWIDTH 0 0
DWIDTH 0 0
BBX 5 2 -6 10
BITMAP
38
C8
ENDCHAR
STARTCHAR uni0485
ENCODING 1157
SWIDTH 0 0
DWIDTH 0 0
BBX 2 3 -4 10
BITMAP
C0
C0
40
ENDCHAR
STARTCHAR uni0486
ENCODING 1158
SWIDTH 0 0
DWIDTH 0 0
BBX 2 3 -4 10
BITMAP
40
40
80
ENDCHAR
STARTCHAR uni0488
ENCODING 1160
SWIDTH 0 0
DWIDTH 0 0
BBX 16 15 -12 -3
BITMAP
0180
0280
0040
381C
2814
0000
0000
6006
9009
0000
0000
301C
2814
0180
0240
ENDCHAR
STARTCHAR uni0489
ENCODING 1161
SWIDTH 0 0
DWIDTH 0 0
BBX 14 15 -11 -3
BITMAP
0100
0100
2200
1018
1020
0000
0000
C008
2004
0000
0000
1020
6110
0110
0200
ENDCHAR
STARTCHAR uni048A
ENCODING 1162
SWIDTH 689 0
DWIDTH 11 0
BBX 10 18 1 -3
BITMAP
6600
3C00
0000
C700
C700
CF00
CF00
CF00
DF00
D700
F700
F700
E700
E7C0
C7C0
00C0
0180
0180
ENDCHAR
STARTCHAR uni048B
ENCODING 1163
SWIDTH 587 0
DWIDTH 9 0
BBX 8 15 1 -3
BITMAP
4C
38
00
CC
DC
DC
DC
FC
EC
EC
EF
CF
03
03
06
ENDCHAR
STARTCHAR uni048C
ENCODING 1164
SWIDTH 549 0
DWIDTH 9 0
BBX 8 12 0 0
BITMAP
60
F8
60
60
7E
7F
63
63
63
63
7F
7E
ENDCHAR
STARTCHAR uni048D
ENCODING 1165
SWIDTH 493 0
DWIDTH 8 0
BBX 8 13 0 0
BITMAP
60
F8
60
60
60
60
7C
7E
66
67
66
7E
7C
ENDCHAR
STARTCHAR uni048E
ENCODING 1166
SWIDTH 548 0
DWIDTH 9 0
BBX 8 12 1 0
BITMAP
FC
FE
C6
C7
CF
CE
FE
FE
C2
C0
C0
C0
ENDCHAR
STARTCHAR uni048F
ENCODING 1167
SWIDTH 493 0
DWIDTH 8 0
BBX 6 12 1 -3
BITMAP
F8
FC
CC
CC
CC
DC
DC
FC
FC
C4
C0
C0
ENDCHAR
STARTCHAR uni0490
ENCODING 1168
SWIDTH 486 0
DWIDTH 8 0
BBX 6 15 1 0
BITMAP
0C
0C
0C
FC
FC
C0
C0
C0
C0
C0
C0
C0
C0
C0
C0
ENDCHAR
STARTCHAR uni0491
ENCODING 1169
SWIDTH 412 0
DWIDTH 7 0
BBX 5 11 1 0
BITMAP
18
18
F8
F8
C0
C0
C0
C0
C0
C0
C0
ENDCHAR
STARTCHAR uni0492
ENCODING 1170
SWIDTH 488 0
DWIDTH 8 0
BBX 7 12 0 0
BITMAP
7E
7E
60
60
60
F8
60
60
60
60
60
60
ENDCHAR
STARTCHAR uni0493
ENCODING 1171
SWIDTH 370 0
DWIDTH 6 0
BBX 6 9 0 0
BITMAP
7C
7C
60
60
F0
60
60
60
60
ENDCHAR
STARTCHAR uni0494
ENCODING 1172
SWIDTH 555 0
DWIDTH 9 0
BBX 7 15 1 -3
BITMAP
FC
FC
C0
C0
C0
F8
FC
CE
C6
C6
C6
C6
06
0C
08
ENDCHAR
STARTCHAR uni0495
ENCODING 1173
SWIDTH 470 0
DWIDTH 8 0
BBX 6 11 1 -2
BITMAP
F8
F8
C0
F0
F8
CC
CC
CC
CC
18
18
ENDCHAR
STARTCHAR uni0496
ENCODING 1174
SWIDTH 951 0
DWIDTH 15 0
BBX 15 14 0 -2
BITMAP
E31C
7338
3338
3B30
1B70
1FE0
1FF0
3B30
3330
7338
731E
E31E
0006
0006
ENDCHAR
STARTCHAR uni0497
ENCODING 1175
SWIDTH 810 0
DWIDTH 13 0
BBX 13 11 0 -2
BITMAP
E670
7660
36E0
36C0
3FC0
3FC0
36E0
76F8
6678
8038
0038
ENDCHAR
STARTCHAR uni0498
ENCODING 1176
SWIDTH 541 0
DWIDTH 9 0
BBX 7 15 1 -3
BITMAP
7C
FE
C6
06
3C
3C
0E
06
06
CE
FC
78
30
30
30
ENDCHAR
STARTCHAR uni0499
ENCODING 1177
SWIDTH 452 0
DWIDTH 7 0
BBX 7 12 0 -3
BITMAP
38
7C
6C
0C
1C
1C
EE
7C
3C
18
18
18
ENDCHAR
STARTCHAR uni049A
ENCODING 1178
SWIDTH 662 0
DWIDTH 11 0
BBX 9 14 1 -2
BITMAP
C700
CE00
CE00
CC00
DC00
F800
F800
DC00
CC00
CE00
C780
C780
0180
0180
ENDCHAR
STARTCHAR uni049B
ENCODING 1179
SWIDTH 586 0
DWIDTH 9 0
BBX 8 11 1 -2
BITMAP
CE
CC
DC
D8
F8
F8
DC
DF
CF
03
03
ENDCHAR
STARTCHAR uni049C
ENCODING 1180
SWIDTH 586 0
DWIDTH 9 0
BBX 8 12 1 0
BITMAP
C7
C7
C6
DE
DC
FC
FC
DE
D6
C6
C7
C7
ENDCHAR
STARTCHAR uni049D
ENCODING 1181
SWIDTH 539 0
DWIDTH 9 0
BBX 8 9 1 0
BITMAP
C6
CE
CC
DC
FC
FC
DC
CE
C7
ENDCHAR
STARTCHAR uni049E
ENCODING 1182
SWIDTH 573 0
DWIDTH 9 0
BBX 9 12 0 0
BITMAP
6380
FB00
6700
6600
6E00
7C00
7E00
6600
6700
6700
6380
6380
ENDCHAR
STARTCHAR uni049F
ENCODING 1183
SWIDTH 489 0
DWIDTH 8 0
BBX 9 12 -1 0
BITMAP
3000
F800
3000
3300
3700
3600
3600
3C00
3E00
3600
3700
3380
ENDCHAR
STARTCHAR uni04A0
ENCODING 1184
SWIDTH 717 0
DWIDTH 11 0
BBX 12 12 0 0
BITMAP
FCE0
FCE0
1DC0
1DC0
1D80
1F80
1F80
1D80
1DC0
1CC0
1CE0
1C70
ENDCHAR
STARTCHAR uni04A1
ENCODING 1185
SWIDTH 634 0
DWIDTH 10 0
BBX 9 9 1 0
BITMAP
F380
F300
3700
3600
3E00
3E00
3700
3300
3380
ENDCHAR
STARTCHAR uni04A2
ENCODING 1186
SWIDTH 694 0
DWIDTH 11 0
BBX 10 14 1 -2
BITMAP
C300
C300
C300
C300
C300
FF00
FF00
C300
C300
C300
C3C0
C3C0
01C0
01C0
ENDCHAR
STARTCHAR uni04A3
ENCODING 1187
SWIDTH 584 0
DWIDTH 9 0
BBX 8 11 1 -2
BITMAP
CC
CC
CC
FC
FC
CC
CC
CF
CF
03
03
ENDCHAR
STARTCHAR uni04A4
ENCODING 1188
SWIDTH 838 0
DWIDTH 13 0
BBX 12 12 1 0
BITMAP
C3F0
C3F0
C300
C300
C300
FF00
FF00
C300
C300
C300
C300
C300
ENDCHAR
STARTCHAR uni04A5
ENCODING 1189
SWIDTH 607 0
DWIDTH 10 0
BBX 8 9 1 0
BITMAP
CF
CF
CC
FC
FC
CC
CC
CC
CC
ENDCHAR
STARTCHAR uni04A6
ENCODING 1190
SWIDTH 902 0
DWIDTH 14 0
BBX 13 15 1 -3
BITMAP
FF00
FF00
C700
C700
C700
C7E0
C7F0
C730
C738
C738
C738
C730
0030
0070
0060
ENDCHAR
STARTCHAR uni04A7
ENCODING 1191
SWIDTH 751 0
DWIDTH 12 0
BBX 11 11 1 -2
BITMAP
FC00
FC00
CC00
CF80
CFC0
CCC0
CCE0
CCE0
CCC0
01C0
0080
ENDCHAR
STARTCHAR uni04A8
ENCODING 1192
SWIDTH 705 0
DWIDTH 11 0
BBX 9 12 1 0
BITMAP
6700
EF80
CD80
D980
D980
D980
D980
DD80
CF80
EF00
7F80
3D80
ENDCHAR
STARTCHAR uni04A9
ENCODING 1193
SWIDTH 572 0
DWIDTH 9 0
BBX 8 9 1 0
BITMAP
6C
FE
D6
D6
D6
D6
DE
FE
3F
ENDCHAR
STARTCHAR uni04AA
ENCODING 1194
SWIDTH 570 0
DWIDTH 9 0
BBX 8 15 1 -3
BITMAP
3C
7E
C6
C7
C0
C0
C0
C0
C7
C6
7E
3C
18
18
18
ENDCHAR
STARTCHAR uni04AB
ENCODING 1195
SWIDTH 459 0
DWIDTH 7 0
BBX 7 12 0 -3
BITMAP
38
7C
6E
E0
E0
E0
66
7C
38
18
18
18
ENDCHAR
STARTCHAR uni04AC
ENCODING 1196
SWIDTH 542 0
DWIDTH 9 0
BBX 8 14 0 -2
BITMAP
FF
FF
18
18
18
18
18
18
18
18
1E
1E
06
06
ENDCHAR
STARTCHAR uni04AD
ENCODING 1197
SWIDTH 454 0
DWIDTH 7 0
BBX 7 11 0 -2
BITMAP
FE
FE
18
18
18
18
18
1C
1C
0C
0C
ENDCHAR
STARTCHAR uni04AE
ENCODING 1198
SWIDTH 542 0
DWIDTH 9 0
BBX 9 12 0 0
BITMAP
E380
6300
6700
3600
3600
3C00
1C00
1C00
1C00
1C00
1C00
1C00
ENDCHAR
STARTCHAR uni04AF
ENCODING 1199
SWIDTH 454 0
DWIDTH 7 0
BBX 7 12 0 -3
BITMAP
EE
6E
6C
6C
6C
38
38
38
38
38
38
38
ENDCHAR
STARTCHAR uni04B0
ENCODING 1200
SWIDTH 542 0
DWIDTH 9 0
BBX 9 12 0 0
BITMAP
E380
6300
7700
3600
3600
1C00
3E00
1C00
1C00
1C00
1C00
1C00
ENDCHAR
STARTCHAR uni04B1
ENCODING 1201
SWIDTH 454 0
DWIDTH 7 0
BBX 7 12 0 -3
BITMAP
EE
EE
6C
6C
6C
7C
38
38
7C
38
38
38
ENDCHAR
STARTCHAR uni04B2
ENCODING 1202
SWIDTH 590 0
DWIDTH 9 0
BBX 9 14 0 -2
BITMAP
E380
7700
7700
3600
3E00
1C00
1C00
3E00
3600
7700
6780
E380
0180
0180
ENDCHAR
STARTCHAR uni04B3
ENCODING 1203
SWIDTH 487 0
DWIDTH 8 0
BBX 8 11 0 -2
BITMAP
EE
6C
7C
38
38
3C
7C
6F
E7
07
07
ENDCHAR
STARTCHAR uni04B4
ENCODING 1204
SWIDTH 779 0
DWIDTH 12 0
BBX 12 15 0 -3
BITMAP
FCC0
FCC0
38C0
38C0
38C0
38C0
38C0
38C0
38C0
38C0
3FF0
3FF0
0060
0060
0060
ENDCHAR
STARTCHAR uni04B5
ENCODING 1205
SWIDTH 604 0
DWIDTH 10 0
BBX 9 12 0 -3
BITMAP
FB00
FB00
3300
3300
3300
3300
3300
3F80
3F80
0180
0180
0180
ENDCHAR
STARTCHAR uni04B6
ENCODING 1206
SWIDTH 690 0
DWIDTH 11 0
BBX 9 14 1 -2
BITMAP
C300
C300
C300
C300
C300
E300
7F00
3F00
0300
0300
0380
0380
0180
0180
ENDCHAR
STARTCHAR uni04B7
ENCODING 1207
SWIDTH 577 0
DWIDTH 9 0
BBX 8 11 1 -2
BITMAP
CC
CC
CC
CC
FC
7C
0C
0F
0F
03
03
ENDCHAR
STARTCHAR uni04B8
ENCODING 1208
SWIDTH 596 0
DWIDTH 10 0
BBX 8 12 1 0
BITMAP
C3
C3
C3
C3
DB
FB
7F
3F
1B
1B
03
03
ENDCHAR
STARTCHAR uni04B9
ENCODING 1209
SWIDTH 491 0
DWIDTH 8 0
BBX 6 9 1 0
BITMAP
CC
CC
FC
FC
FC
7C
3C
0C
0C
ENDCHAR
STARTCHAR uni04BA
ENCODING 1210
SWIDTH 615 0
DWIDTH 10 0
BBX 8 12 1 0
BITMAP
C0
C0
C0
C0
FC
FE
C7
C3
C3
C3
C3
C3
ENDCHAR
STARTCHAR uni04BB
ENCODING 1211
SWIDTH 492 0
DWIDTH 8 0
BBX 6 12 1 0
BITMAP
C0
C0
C0
F8
FC
CC
CC
CC
CC
CC
CC
CC
ENDCHAR
STARTCHAR uni04BC
ENCODING 1212
SWIDTH 658 0
DWIDTH 11 0
BBX 10 12 0 0
BITMAP
0F00
1F80
19C0
F8C0
F8C0
7FC0
3FC0
3800
3800
1800
1F80
0780
ENDCHAR
STARTCHAR uni04BD
ENCODING 1213
SWIDTH 523 0
DWIDTH 8 0
BBX 9 9 -1 0
BITMAP
0E00
1F00
D980
5980
7F80
3F80
1900
1F80
0F00
ENDCHAR
STARTCHAR uni04BE
ENCODING 1214
SWIDTH 658 0
DWIDTH 11 0
BBX 10 15 0 -3
BITMAP
0F00
1F80
19C0
F8C0
F8C0
7FC0
3FC0
3800
3800
1800
1F80
0780
0700
0700
0700
ENDCHAR
STARTCHAR uni04BF
ENCODING 1215
SWIDTH 523 0
DWIDTH 8 0
BBX 9 12 -1 -3
BITMAP
0E00
1F00
D980
5980
7F80
3F80
1900
1F80
0F00
0600
0600
0600
ENDCHAR
STARTCHAR uni04C0
ENCODING 1216
SWIDTH 270 0
DWIDTH 4 0
BBX 2 12 1 0
BITMAP
C0
C0
C0
C0
C0
C0
C0
C0
C0
C0
C0
C0
ENDCHAR
STARTCHAR uni04C1
ENCODING 1217
SWIDTH 883 0
DWIDTH 14 0
BBX 14 15 0 0
BITMAP
0CC0
0780
0000
E31C
7338
3338
3B30
1B70
1FE0
1FF0
3B30
3330
7338
7318
E31C
ENDCHAR
STARTCHAR uni04C2
ENCODING 1218
SWIDTH 752 0
DWIDTH 12 0
BBX 12 12 0 0
BITMAP
1980
0F00
0000
E670
7660
36E0
36C0
3FC0
3FC0
36E0
76E0
E670
ENDCHAR
STARTCHAR uni04C3
ENCODING 1219
SWIDTH 573 0
DWIDTH 9 0
BBX 8 15 1 -3
BITMAP
CF
CE
DC
D8
F8
FE
C6
C7
C7
C7
C7
C7
06
0E
0C
ENDCHAR
STARTCHAR uni04C4
ENCODING 1220
SWIDTH 509 0
DWIDTH 8 0
BBX 7 11 1 -2
BITMAP
CE
DC
D8
F8
FC
CC
CE
CE
CC
1C
08
ENDCHAR
STARTCHAR uni04C5
ENCODING 1221
SWIDTH 695 0
DWIDTH 11 0
BBX 10 15 1 -3
BITMAP
7F00
7F00
7300
7300
6300
6300
6300
6300
6300
6300
E3C0
C3C0
00C0
0180
0180
ENDCHAR
STARTCHAR uni04C6
ENCODING 1222
SWIDTH 588 0
DWIDTH 9 0
BBX 9 12 0 -3
BITMAP
3E00
3E00
3600
7600
7600
6600
6600
E780
C780
0180
0180
0300
ENDCHAR
STARTCHAR uni04C7
ENCODING 1223
SWIDTH 615 0
DWIDTH 10 0
BBX 8 15 1 -3
BITMAP
C3
C3
C3
C3
C3
FF
FF
C3
C3
C3
C3
C3
03
0F
0E
ENDCHAR
STARTCHAR uni04C8
ENCODING 1224
SWIDTH 496 0
DWIDTH 8 0
BBX 6 12 1 -3
BITMAP
CC
CC
CC
FC
FC
CC
CC
CC
CC
0C
1C
18
ENDCHAR
STARTCHAR uni04C9
ENCODING 1225
SWIDTH 696 0
DWIDTH 11 0
BBX 10 15 1 -3
BITMAP
C300
C300
C300
C300
C300
FF00
FF00
C300
C300
C300
C3C0
C3C0
00C0
0180
0180
ENDCHAR
STARTCHAR uni04CA
ENCODING 1226
SWIDTH 586 0
DWIDTH 9 0
BBX 8 12 1 -3
BITMAP
CC
CC
CC
FC
FC
CC
CC
CF
CF
03
03
06
ENDCHAR
STARTCHAR uni04CB
ENCODING 1227
SWIDTH 611 0
DWIDTH 10 0
BBX 8 14 1 -2
BITMAP
C3
C3
C3
C3
C3
E3
7F
3F
03
03
0F
0F
0C
0C
ENDCHAR
STARTCHAR uni04CC
ENCODING 1228
SWIDTH 489 0
DWIDTH 8 0
BBX 6 11 1 -2
BITMAP
CC
CC
CC
CC
FC
7C
0C
3C
3C
30
30
ENDCHAR
STARTCHAR uni04CD
ENCODING 1229
SWIDTH 839 0
DWIDTH 13 0
BBX 12 15 1 -3
BITMAP
E1C0
E1C0
F1C0
F3C0
F3C0
F3C0
DAC0
DEC0
DEC0
CEC0
CCF0
CCF0
0030
0030
0060
ENDCHAR
STARTCHAR uni04CE
ENCODING 1230
SWIDTH 738 0
DWIDTH 12 0
BBX 10 12 1 -3
BITMAP
E380
E780
E780
F780
F780
FF80
DF80
DBC0
DBC0
00C0
00C0
0080
ENDCHAR
STARTCHAR uni04CF
ENCODING 1231
SWIDTH 270 0
DWIDTH 4 0
BBX 2 12 1 0
BITMAP
C0
C0
C0
C0
C0
C0
C0
C0
C0
C0
C0
C0
ENDCHAR
STARTCHAR uni04D0
ENCODING 1232
SWIDTH 597 0
DWIDTH 10 0
BBX 10 15 0 0
BITMAP
3300
1E00
0000
0C00
0C00
1E00
1E00
1E00
3300
3300
3300
7F80
7F80
6180
E1C0
ENDCHAR
STARTCHAR uni04D1
ENCODING 1233
SWIDTH 470 0
DWIDTH 8 0
BBX 6 12 1 0
BITMAP
C8
78
00
78
FC
CC
0C
7C
FC
CC
FC
7C
ENDCHAR
STARTCHAR uni04D2
ENCODING 1234
SWIDTH 597 0
DWIDTH 10 0
BBX 10 15 0 0
BITMAP
3300
3300
0000
0C00
0C00
1E00
1E00
1E00
3300
3300
3300
7F80
7F80
6180
E1C0
ENDCHAR
STARTCHAR uni04D3
ENCODING 1235
SWIDTH 470 0
DWIDTH 8 0
BBX 6 12 1 0
BITMAP
CC
CC
00
78
FC
CC
0C
7C
FC
CC
FC
7C
ENDCHAR
STARTCHAR uni04D4
ENCODING 1236
SWIDTH 817 0
DWIDTH 13 0
BBX 13 12 0 0
BITMAP
07F0
07F0
0F00
0F00
1F00
1BF0
3BF0
3F80
3F80
7380
63F8
E3F8
ENDCHAR
STARTCHAR uni04D5
ENCODING 1237
SWIDTH 728 0
DWIDTH 12 0
BBX 10 9 1 0
BITMAP
7B80
FFC0
CEC0
0CC0
7FC0
FFC0
CC40
FFC0
73C0
ENDCHAR
STARTCHAR uni04D6
ENCODING 1238
SWIDTH 490 0
DWIDTH 8 0
BBX 6 15 1 0
BITMAP
4C
78
00
FC
FC
C0
C0
C0
FC
FC
C0
C0
C0
FC
FC
ENDCHAR
STARTCHAR uni04D7
ENCODING 1239
SWIDTH 478 0
DWIDTH 8 0
BBX 6 12 1 0
BITMAP
C8
78
00
78
FC
CC
CC
FC
FC
C8
FC
78
ENDCHAR
STARTCHAR uni04D8
ENCODING 1240
SWIDTH 601 0
DWIDTH 10 0
BBX 8 12 1 0
BITMAP
7C
FE
86
07
03
FF
FF
C3
C7
E6
7E
3C
ENDCHAR
STARTCHAR uni04D9
ENCODING 1241
SWIDTH 468 0
DWIDTH 8 0
BBX 6 9 1 0
BITMAP
78
FC
8C
0C
FC
FC
CC
FC
78
ENDCHAR
STARTCHAR uni04DA
ENCODING 1242
SWIDTH 601 0
DWIDTH 10 0
BBX 8 15 1 0
BITMAP
4C
EC
00
7C
FE
86
07
03
FF
FF
C3
C7
E6
7E
3C
ENDCHAR
STARTCHAR uni04DB
ENCODING 1243
SWIDTH 468 0
DWIDTH 8 0
BBX 6 12 1 0
BITMAP
CC
CC
00
78
FC
8C
0C
FC
FC
CC
FC
78
ENDCHAR
STARTCHAR uni04DC
ENCODING 1244
SWIDTH 883 0
DWIDTH 14 0
BBX 14 15 0 0
BITMAP
0CC0
0CC0
0000
E31C
7338
3338
3B30
1B70
1FE0
1FF0
3B30
3330
7338
7318
E31C
ENDCHAR
STARTCHAR uni04DD
ENCODING 1245
SWIDTH 752 0
DWIDTH 12 0
BBX 12 12 0 0
BITMAP
1980
1980
0000
E670
7660
36E0
36C0
3FC0
3FC0
36E0
76E0
E670
ENDCHAR
STARTCHAR uni04DE
ENCODING 1246
SWIDTH 541 0
DWIDTH 9 0
BBX 7 15 1 0
BITMAP
CC
CC
00
7C
FE
C6
06
3C
3C
0E
06
06
CE
FC
78
ENDCHAR
STARTCHAR uni04DF
ENCODING 1247
SWIDTH 452 0
DWIDTH 7 0
BBX 7 12 0 0
BITMAP
66
66
00
38
7C
6C
0C
1C
1C
EE
7C
3C
ENDCHAR
STARTCHAR uni04E0
ENCODING 1248
SWIDTH 506 0
DWIDTH 8 0
BBX 7 12 1 0
BITMAP
FC
FC
1C
18
30
38
3C
0E
0E
CE
FC
78
ENDCHAR
STARTCHAR uni04E1
ENCODING 1249
SWIDTH 507 0
DWIDTH 8 0
BBX 7 12 1 -3
BITMAP
FC
FC
1C
18
30
38
0C
0C
0E
CE
FC
78
ENDCHAR
STARTCHAR uni04E2
ENCODING 1250
SWIDTH 605 0
DWIDTH 10 0
BBX 8 14 1 0
BITMAP
7C
00
C7
C7
CF
CF
CF
DF
D7
F7
F7
E7
E7
C7
ENDCHAR
STARTCHAR uni04E3
ENCODING 1251
SWIDTH 499 0
DWIDTH 8 0
BBX 6 11 1 0
BITMAP
F8
00
CC
DC
DC
DC
FC
EC
EC
EC
CC
ENDCHAR
STARTCHAR uni04E4
ENCODING 1252
SWIDTH 605 0
DWIDTH 10 0
BBX 8 15 1 0
BITMAP
66
66
00
C7
C7
CF
CF
CF
DF
D7
F7
F7
E7
E7
C7
ENDCHAR
STARTCHAR uni04E5
ENCODING 1253
SWIDTH 499 0
DWIDTH 8 0
BBX 6 12 1 0
BITMAP
CC
CC
00
CC
DC
DC
DC
FC
EC
EC
EC
CC
ENDCHAR
STARTCHAR uni04E6
ENCODING 1254
SWIDTH 603 0
DWIDTH 10 0
BBX 8 15 1 0
BITMAP
66
66
00
3C
7E
E7
C3
C3
C3
C3
C3
C3
E7
7E
3C
ENDCHAR
STARTCHAR uni04E7
ENCODING 1255
SWIDTH 497 0
DWIDTH 8 0
BBX 6 12 1 0
BITMAP
CC
CC
00
78
FC
CC
CC
CC
CC
CC
FC
78
ENDCHAR
STARTCHAR uni04E8
ENCODING 1256
SWIDTH 601 0
DWIDTH 10 0
BBX 8 12 1 0
BITMAP
3C
7E
E7
C3
C3
FF
C3
C3
E3
E7
7E
3C
ENDCHAR
STARTCHAR uni04E9
ENCODING 1257
SWIDTH 494 0
DWIDTH 8 0
BBX 6 9 1 0
BITMAP
78
FC
CC
CC
FC
CC
CC
FC
78
ENDCHAR
STARTCHAR uni04EA
ENCODING 1258
SWIDTH 601 0
DWIDTH 10 0
BBX 8 15 1 0
BITMAP
66
66
00
3C
7E
E7
C3
C3
FF
C3
C3
E3
E7
7E
3C
ENDCHAR
STARTCHAR uni04EB
ENCODING 1259
SWIDTH 494 0
DWIDTH 8 0
BBX 6 12 1 0
BITMAP
CC
CC
00
78
FC
CC
CC
FC
CC
CC
FC
78
ENDCHAR
STARTCHAR uni04EC
ENCODING 1260
SWIDTH 565 0
DWIDTH 9 0
BBX 8 15 0 0
BITMAP
26
76
00
3C
7E
63
E3
1F
1F
03
03
E3
67
7E
3C
ENDCHAR
STARTCHAR uni04ED
ENCODING 1261
SWIDTH 454 0
DWIDTH 7 0
BBX 7 12 0 0
BITMAP
64
6E
00
38
7C
EC
0E
1E
0E
EC
7C
38
ENDCHAR
STARTCHAR uni04EE
ENCODING 1262
SWIDTH 550 0
DWIDTH 9 0
BBX 9 14 0 0
BITMAP
3E00
0000
E380
6300
7700
3600
3600
1E00
1C00
1C00
0C00
1800
3800
3000
ENDCHAR
STARTCHAR uni04EF
ENCODING 1263
SWIDTH 446 0
DWIDTH 7 0
BBX 7 14 0 -3
BITMAP
7C
00
EE
EC
6C
6C
6C
38
38
38
38
30
70
60
ENDCHAR
STARTCHAR uni04F0
ENCODING 1264
SWIDTH 550 0
DWIDTH 9 0
BBX 9 15 0 0
BITMAP
3200
3700
0000
E380
6300
7700
3600
3600
1E00
1C00
1C00
0C00
1800
3800
3000
ENDCHAR
STARTCHAR uni04F1
ENCODING 1265
SWIDTH 446 0
DWIDTH 7 0
BBX 7 15 0 -3
BITMAP
64
6E
00
EE
EC
6C
6C
6C
38
38
38
38
30
70
60
ENDCHAR
STARTCHAR uni04F2
ENCODING 1266
SWIDTH 550 0
DWIDTH 9 0
BBX 9 15 0 0
BITMAP
1B00
3600
0000
E380
6300
7700
3600
3600
1E00
1C00
1C00
0C00
1800
3800
3000
ENDCHAR
STARTCHAR uni04F3
ENCODING 1267
SWIDTH 446 0
DWIDTH 7 0
BBX 7 15 0 -3
BITMAP
36
6C
00
EE
EC
6C
6C
6C
38
38
38
38
30
70
60
ENDCHAR
STARTCHAR uni04F4
ENCODING 1268
SWIDTH 611 0
DWIDTH 10 0
BBX 8 15 1 0
BITMAP
66
66
00
C3
C3
C3
C3
C3
E3
7F
3F
03
03
03
03
ENDCHAR
STARTCHAR uni04F5
ENCODING 1269
SWIDTH 489 0
DWIDTH 8 0
BBX 6 12 1 0
BITMAP
CC
CC
00
CC
CC
CC
CC
FC
7C
0C
0C
0C
ENDCHAR
STARTCHAR uni04F6
ENCODING 1270
SWIDTH 488 0
DWIDTH 8 0
BBX 6 14 1 -2
BITMAP
FC
FC
C0
C0
C0
C0
C0
C0
C0
C0
F0
F0
30
30
ENDCHAR
STARTCHAR uni04F7
ENCODING 1271
SWIDTH 370 0
DWIDTH 6 0
BBX 5 11 1 -2
BITMAP
F8
F8
C0
C0
C0
C0
C0
F0
F0
70
70
ENDCHAR
STARTCHAR uni04F8
ENCODING 1272
SWIDTH 762 0
DWIDTH 12 0
BBX 10 15 1 0
BITMAP
3300
3300
0000
C0C0
C0C0
C0C0
C0C0
FCC0
FEC0
C6C0
C6C0
C6C0
C6C0
FEC0
FCC0
ENDCHAR
STARTCHAR uni04F9
ENCODING 1273
SWIDTH 732 0
DWIDTH 12 0
BBX 10 12 1 0
BITMAP
3300
3300
0000
C1C0
C1C0
C1C0
F9C0
FDC0
CFC0
CFC0
FDC0
F9C0
ENDCHAR
STARTCHAR uni04FA
ENCODING 1274
SWIDTH 532 0
DWIDTH 9 0
BBX 8 15 0 -3
BITMAP
3F
3F
30
30
30
F8
30
30
30
30
3C
3C
0C
3C
38
ENDCHAR
STARTCHAR uni04FB
ENCODING 1275
SWIDTH 410 0
DWIDTH 7 0
BBX 6 12 0 -3
BITMAP
7C
7C
70
70
F8
70
70
78
78
18
38
30
ENDCHAR
STARTCHAR uni04FC
ENCODING 1276
SWIDTH 624 0
DWIDTH 10 0
BBX 10 15 0 -3
BITMAP
E380
7700
7700
3600
3E00
1C00
1C00
3E00
3600
7700
67C0
E3C0
00C0
03C0
0380
ENDCHAR
STARTCHAR uni04FD
ENCODING 1277
SWIDTH 521 0
DWIDTH 8 0
BBX 8 12 0 -3
BITMAP
EE
6C
7C
38
38
3C
7C
6F
E7
03
0F
0E
ENDCHAR
STARTCHAR uni04FE
ENCODING 1278
SWIDTH 559 0
DWIDTH 9 0
BBX 9 12 0 0
BITMAP
E380
7700
7700
3600
3E00
3E00
3C00
3E00
3600
7700
6700
E380
ENDCHAR
STARTCHAR uni04FF
ENCODING 1279
SWIDTH 452 0
DWIDTH 7 0
BBX 7 9 0 0
BITMAP
EE
6C
7C
3C
7C
3C
7C
6C
E6
ENDCHAR
STARTCHAR uni0500
ENCODING 1280
SWIDTH 561 0
DWIDTH 9 0
BBX 7 12 1 0
BITMAP
06
06
06
06
7E
FE
C6
C6
C6
C6
FE
7E
ENDCHAR
STARTCHAR uni0501
ENCODING 1281
SWIDTH 495 0
DWIDTH 8 0
BBX 6 12 1 0
BITMAP
0C
0C
0C
7C
FC
CC
CC
CC
CC
CC
FC
7C
ENDCHAR
STARTCHAR uni0502
ENCODING 1282
SWIDTH 810 0
DWIDTH 13 0
BBX 11 12 1 0
BITMAP
0600
0600
0600
0600
3E00
7EE0
E660
C660
C660
E660
7FE0
3FC0
ENDCHAR
STARTCHAR uni0503
ENCODING 1283
SWIDTH 735 0
DWIDTH 12 0
BBX 10 12 1 0
BITMAP
0C00
0C00
0C00
7C00
FCC0
CCC0
CCC0
CCC0
CCC0
CCC0
FFC0
7780
ENDCHAR
STARTCHAR uni0504
ENCODING 1284
SWIDTH 681 0
DWIDTH 11 0
BBX 9 12 1 0
BITMAP
F000
F800
1800
1C00
1980
F980
F980
1980
1D80
1D80
0F00
0F00
ENDCHAR
STARTCHAR uni0505
ENCODING 1285
SWIDTH 559 0
DWIDTH 9 0
BBX 9 9 0 0
BITMAP
F000
7800
1800
1B80
7180
7980
1F80
1F00
0E00
ENDCHAR
STARTCHAR uni0506
ENCODING 1286
SWIDTH 521 0
DWIDTH 8 0
BBX 8 15 0 -3
BITMAP
F8
FC
1C
0C
0C
78
78
0C
0C
0C
0F
0F
03
02
06
ENDCHAR
STARTCHAR uni0507
ENCODING 1287
SWIDTH 500 0
DWIDTH 8 0
BBX 7 12 1 -3
BITMAP
F0
F8
18
18
F0
F8
18
1E
1E
06
04
0C
ENDCHAR
STARTCHAR uni0508
ENCODING 1288
SWIDTH 830 0
DWIDTH 13 0
BBX 13 12 0 0
BITMAP
3F80
3F80
3380
3380
33B0
33B8
33B8
33B8
33B8
73B0
F1F0
E0E0
ENDCHAR
STARTCHAR uni0509
ENCODING 1289
SWIDTH 739 0
DWIDTH 12 0
BBX 10 9 1 0
BITMAP
7C00
7C00
6CC0
6CC0
6CC0
6CC0
6EC0
CFC0
C780
ENDCHAR
STARTCHAR uni050A
ENCODING 1290
SWIDTH 861 0
DWIDTH 14 0
BBX 12 12 1 0
BITMAP
C300
C300
C300
C300
C370
FF30
FF30
C330
C330
C370
C3E0
C1C0
ENDCHAR
STARTCHAR uni050B
ENCODING 1291
SWIDTH 712 0
DWIDTH 11 0
BBX 11 9 0 0
BITMAP
E600
E600
E6E0
FE60
FE60
E660
E6E0
E7C0
E380
ENDCHAR
STARTCHAR uni050C
ENCODING 1292
SWIDTH 554 0
DWIDTH 9 0
BBX 7 12 1 0
BITMAP
3C
7C
E4
C0
C0
C0
C6
C6
C6
E6
7E
3C
ENDCHAR
STARTCHAR uni050D
ENCODING 1293
SWIDTH 467 0
DWIDTH 7 0
BBX 7 9 0 0
BITMAP
3C
7C
60
E0
C0
EE
6E
7C
3C
ENDCHAR
STARTCHAR uni050E
ENCODING 1294
SWIDTH 611 0
DWIDTH 10 0
BBX 9 12 0 0
BITMAP
FF00
FF00
1800
1800
1980
1980
1980
1980
1980
1D80
1F80
0F00
ENDCHAR
STARTCHAR uni050F
ENCODING 1295
SWIDTH 555 0
DWIDTH 9 0
BBX 8 9 1 0
BITMAP
FC
FC
70
76
76
77
36
3E
1C
ENDCHAR
STARTCHAR uni0510
ENCODING 1296
SWIDTH 570 0
DWIDTH 9 0
BBX 8 12 1 0
BITMAP
7C
FE
C6
C0
78
78
C0
C0
C0
E7
FE
3C
ENDCHAR
STARTCHAR uni0511
ENCODING 1297
SWIDTH 488 0
DWIDTH 8 0
BBX 6 9 1 0
BITMAP
78
FC
CC
C0
70
F0
C0
FC
78
ENDCHAR
STARTCHAR uni0512
ENCODING 1298
SWIDTH 728 0
DWIDTH 12 0
BBX 10 15 1 -3
BITMAP
7F00
7F00
7300
7300
6300
6300
6300
6300
6300
6300
E3C0
C3C0
00C0
01C0
0380
ENDCHAR
STARTCHAR uni0513
ENCODING 1299
SWIDTH 620 0
DWIDTH 10 0
BBX 9 12 0 -3
BITMAP
3E00
3E00
3600
7600
7600
6600
6600
E780
C780
0180
0380
0300
ENDCHAR
STARTCHAR uni1E00
ENCODING 7680
SWIDTH 597 0
DWIDTH 10 0
BBX 10 16 0 -4
BITMAP
0C00
0C00
1E00
1E00
1E00
3300
3300
3300
7F80
7F80
6180
6180
8040
0C00
0C00
0C00
ENDCHAR
STARTCHAR uni1E01
ENCODING 7681
SWIDTH 470 0
DWIDTH 8 0
BBX 6 13 1 -4
BITMAP
78
FC
CC
0C
7C
FC
CC
FC
7C
00
60
50
60
ENDCHAR
STARTCHAR uni1E3E
ENCODING 7742
SWIDTH 758 0
DWIDTH 12 0
BBX 10 15 1 0
BITMAP
0700
0C00
0000
E1C0
E1C0
F1C0
F3C0
F3C0
F3C0
DAC0
DEC0
DEC0
CEC0
CCC0
CCC0
ENDCHAR
STARTCHAR uni1E3F
ENCODING 7743
SWIDTH 741 0
DWIDTH 12 0
BBX 10 12 1 0
BITMAP
0700
0C00
0000
FB80
FFC0
CCC0
CCC0
CCC0
CCC0
CCC0
CCC0
CCC0
ENDCHAR
STARTCHAR Wgrave
ENCODING 7808
SWIDTH 749 0
DWIDTH 12 0
BBX 12 15 0 0
BITMAP
1C00
0600
0000
E670
6660
6660
6F60
6F60
6F60
7FE0
3FC0
39C0
39C0
39C0
39C0
ENDCHAR
STARTCHAR wgrave
ENCODING 7809
SWIDTH 632 0
DWIDTH 10 0
BBX 10 12 0 0
BITMAP
3800
0C00
0000
CCC0
ED80
6D80
7F80
7F80
7F80
7380
3300
3300
ENDCHAR
STARTCHAR Wacute
ENCODING 7810
SWIDTH 749 0
DWIDTH 12 0
BBX 12 15 0 0
BITMAP
0380
0600
0000
E670
6660
6660
6F60
6F60
6F60
7FE0
3FC0
39C0
39C0
39C0
39C0
ENDCHAR
STARTCHAR wacute
ENCODING 7811
SWIDTH 632 0
DWIDTH 10 0
BBX 10 12 0 0
BITMAP
0700
0C00
0000
CCC0
ED80
6D80
7F80
7F80
7F80
7380
3300
3300
ENDCHAR
STARTCHAR Wdieresis
ENCODING 7812
SWIDTH 749 0
DWIDTH 12 0
BBX 12 15 0 0
BITMAP
1980
1980
0000
E670
6660
6660
6F60
6F60
6F60
7FE0
3FC0
39C0
39C0
39C0
39C0
ENDCHAR
STARTCHAR wdieresis
ENCODING 7813
SWIDTH 632 0
DWIDTH 10 0
BBX 10 12 0 0
BITMAP
3300
3300
0000
CCC0
ED80
6D80
7F80
7F80
7F80
7380
3300
3300
ENDCHAR
STARTCHAR uni1EA0
ENCODING 7840
SWIDTH 597 0
DWIDTH 10 0
BBX 10 15 0 -3
BITMAP
0C00
0C00
1E00
1E00
1E00
3300
3300
3300
7F80
7F80
6180
6180
8040
0C00
0C00
ENDCHAR
STARTCHAR uni1EA1
ENCODING 7841
SWIDTH 470 0
DWIDTH 8 0
BBX 6 12 1 -3
BITMAP
78
FC
CC
0C
7C
FC
CC
FC
7C
00
60
70
ENDCHAR
STARTCHAR uni1EA2
ENCODING 7842
SWIDTH 597 0
DWIDTH 10 0
BBX 10 16 0 0
BITMAP
0C00
0600
0C00
0000
0C00
0C00
1E00
1E00
1E00
3300
3300
3300
7F80
7F80
6180
E1C0
ENDCHAR
STARTCHAR uni1EA3
ENCODING 7843
SWIDTH 470 0
DWIDTH 8 0
BBX 6 13 1 0
BITMAP
30
10
30
00
78
FC
CC
0C
7C
FC
CC
FC
7C
ENDCHAR
STARTCHAR uni1EA4
ENCODING 7844
SWIDTH 597 0
DWIDTH 10 0
BBX 10 16 0 0
BITMAP
00C0
0D00
3600
0000
0C00
0C00
1E00
1E00
1E00
3300
3300
3300
7F80
7F80
6180
E1C0
ENDCHAR
STARTCHAR uni1EA5
ENCODING 7845
SWIDTH 470 0
DWIDTH 8 0
BBX 8 13 1 0
BITMAP
03
34
D8
00
78
FC
CC
0C
7C
FC
CC
FC
7C
ENDCHAR
STARTCHAR uni1EA6
ENCODING 7846
SWIDTH 597 0
DWIDTH 10 0
BBX 10 16 0 0
BITMAP
C000
6C00
3600
0000
0C00
0C00
1E00
1E00
1E00
3300
3300
3300
7F80
7F80
6180
E1C0
ENDCHAR
STARTCHAR uni1EA7
ENCODING 7847
SWIDTH 470 0
DWIDTH 8 0
BBX 8 13 -1 0
BITMAP
C0
6C
36
00
1E
3F
33
03
1F
3F
33
3F
1F
ENDCHAR
STARTCHAR uni1EA8
ENCODING 7848
SWIDTH 597 0
DWIDTH 10 0
BBX 10 17 0 0
BITMAP
0300
0100
1F00
3600
0000
0C00
0C00
1E00
1E00
1E00
3300
3300
3300
7F80
7F80
6180
E1C0
ENDCHAR
STARTCHAR uni1EA9
ENCODING 7849
SWIDTH 470 0
DWIDTH 8 0
BBX 6 14 1 0
BITMAP
0C
04
7C
D8
00
78
FC
CC
0C
7C
FC
CC
FC
7C
ENDCHAR
STARTCHAR uni1EAA
ENCODING 7850
SWIDTH 597 0
DWIDTH 10 0
BBX 10 19 0 0
BITMAP
1E00
1400
0000
0C00
1E00
3200
0000
0C00
0C00
1E00
1E00
1E00
3300
3300
3300
7F80
7F80
6180
E1C0
ENDCHAR
STARTCHAR uni1EAB
ENCODING 7851
SWIDTH 470 0
DWIDTH 8 0
BBX 6 16 1 0
BITMAP
70
50
00
30
70
D8
00
78
FC
CC
0C
7C
FC
CC
FC
7C
ENDCHAR
STARTCHAR uni1EAC
ENCODING 7852
SWIDTH 597 0
DWIDTH 10 0
BBX 10 18 0 -3
BITMAP
1C00
3700
0000
0C00
0C00
1E00
1E00
1E00
3300
3300
3300
7F80
7F80
6180
6180
8040
0C00
0C00
ENDCHAR
STARTCHAR uni1EAD
ENCODING 7853
SWIDTH 470 0
DWIDTH 8 0
BBX 6 15 1 -3
BITMAP
70
D8
00
78
FC
CC
0C
7C
FC
CC
FC
7C
00
60
70
ENDCHAR
STARTCHAR uni1EAE
ENCODING 7854
SWIDTH 597 0
DWIDTH 10 0
BBX 10 17 0 0
BITMAP
0600
0C00
3200
1C00
0000
0C00
0C00
1E00
1E00
1E00
3300
3300
3300
7F80
7F80
6180
E1C0
ENDCHAR
STARTCHAR uni1EAF
ENCODING 7855
SWIDTH 470 0
DWIDTH 8 0
BBX 6 14 1 0
BITMAP
10
30
C8
70
00
78
FC
CC
0C
7C
FC
CC
FC
7C
ENDCHAR
STARTCHAR uni1EB0
ENCODING 7856
SWIDTH 597 0
DWIDTH 10 0
BBX 10 17 0 0
BITMAP
1800
0800
3200
1C00
0000
0C00
0C00
1E00
1E00
1E00
3300
3300
3300
7F80
7F80
6180
E1C0
ENDCHAR
STARTCHAR uni1EB1
ENCODING 7857
SWIDTH 470 0
DWIDTH 8 0
BBX 6 14 1 0
BITMAP
60
20
C8
70
00
78
FC
CC
0C
7C
FC
CC
FC
7C
ENDCHAR
STARTCHAR uni1EB2
ENCODING 7858
SWIDTH 597 0
DWIDTH 10 0
BBX 10 18 0 0
BITMAP
0C00
0400
0800
3200
1C00
0000
0C00
0C00
1E00
1E00
1E00
3300
3300
3300
7F80
7F80
6180
E1C0
ENDCHAR
STARTCHAR uni1EB3
ENCODING 7859
SWIDTH 470 0
DWIDTH 8 0
BBX 6 15 1 0
BITMAP
30
10
20
C8
70
00
78
FC
CC
0C
7C
FC
CC
FC
7C
ENDCHAR
STARTCHAR uni1EB4
ENCODING 7860
SWIDTH 597 0
DWIDTH 10 0
BBX 10 18 0 0
BITMAP
1A00
1400
0000
3200
1C00
0000
0C00
0C00
1E00
1E00
1E00
3300
3300
3300
7F80
7F80
6180
E1C0
ENDCHAR
STARTCHAR uni1EB5
ENCODING 7861
SWIDTH 470 0
DWIDTH 8 0
BBX 6 15 1 0
BITMAP
68
50
00
C8
70
00
78
FC
CC
0C
7C
FC
CC
FC
7C
ENDCHAR
STARTCHAR uni1EB6
ENCODING 7862
SWIDTH 597 0
DWIDTH 10 0
BBX 10 18 0 -3
BITMAP
3300
1E00
0000
0C00
0C00
1E00
1E00
1E00
3300
3300
3300
7F80
7F80
6180
6180
8040
0C00
0C00
ENDCHAR
STARTCHAR uni1EB7
ENCODING 7863
SWIDTH 470 0
DWIDTH 8 0
BBX 6 15 1 -3
BITMAP
C8
78
00
78
FC
CC
0C
7C
FC
CC
FC
7C
00
60
70
ENDCHAR
STARTCHAR uni1EB8
ENCODING 7864
SWIDTH 490 0
DWIDTH 8 0
BBX 6 15 1 -3
BITMAP
FC
FC
C0
C0
C0
FC
FC
C0
C0
C0
FC
FC
00
30
38
ENDCHAR
STARTCHAR uni1EB9
ENCODING 7865
SWIDTH 478 0
DWIDTH 8 0
BBX 6 12 1 -3
BITMAP
78
FC
CC
CC
FC
FC
C8
FC
78
00
30
30
ENDCHAR
STARTCHAR uni1EBA
ENCODING 7866
SWIDTH 490 0
DWIDTH 8 0
BBX 6 16 1 0
BITMAP
38
18
30
00
FC
FC
C0
C0
C0
FC
FC
C0
C0
C0
FC
FC
ENDCHAR
STARTCHAR uni1EBB
ENCODING 7867
SWIDTH 478 0
DWIDTH 8 0
BBX 6 13 1 0
BITMAP
30
10
30
00
78
FC
CC
CC
FC
FC
C8
FC
78
ENDCHAR
STARTCHAR uni1EBC
ENCODING 7868
SWIDTH 490 0
DWIDTH 8 0
BBX 6 15 1 0
BITMAP
64
58
00
FC
FC
C0
C0
C0
FC
FC
C0
C0
C0
FC
FC
ENDCHAR
STARTCHAR uni1EBD
ENCODING 7869
SWIDTH 478 0
DWIDTH 8 0
BBX 6 12 1 0
BITMAP
68
98
00
78
FC
CC
CC
FC
FC
C8
FC
78
ENDCHAR
STARTCHAR uni1EBE
ENCODING 7870
SWIDTH 490 0
DWIDTH 8 0
BBX 8 16 1 0
BITMAP
03
3A
6C
00
FC
FC
C0
C0
C0
FC
FC
C0
C0
C0
FC
FC
ENDCHAR
STARTCHAR uni1EBF
ENCODING 7871
SWIDTH 478 0
DWIDTH 8 0
BBX 8 13 1 0
BITMAP
03
74
D8
00
78
FC
CC
CC
FC
FC
C8
FC
78
ENDCHAR
STARTCHAR uni1EC0
ENCODING 7872
SWIDTH 490 0
DWIDTH 8 0
BBX 7 16 0 0
BITMAP
C0
5C
36
00
7E
7E
60
60
60
7E
7E
60
60
60
7E
7E
ENDCHAR
STARTCHAR uni1EC1
ENCODING 7873
SWIDTH 478 0
DWIDTH 8 0
BBX 8 13 -1 0
BITMAP
C0
7C
36
00
1E
3F
33
33
3F
3F
32
3F
1E
ENDCHAR
STARTCHAR uni1EC2
ENCODING 7874
SWIDTH 490 0
DWIDTH 8 0
BBX 7 17 1 0
BITMAP
06
02
3C
6C
00
FC
FC
C0
C0
C0
FC
FC
C0
C0
C0
FC
FC
ENDCHAR
STARTCHAR uni1EC3
ENCODING 7875
SWIDTH 478 0
DWIDTH 8 0
BBX 6 14 1 0
BITMAP
0C
04
7C
D8
00
78
FC
CC
CC
FC
FC
C8
FC
78
ENDCHAR
STARTCHAR uni1EC4
ENCODING 7876
SWIDTH 490 0
DWIDTH 8 0
BBX 6 19 1 0
BITMAP
28
38
00
30
38
6C
00
FC
FC
C0
C0
C0
FC
FC
C0
C0
C0
FC
FC
ENDCHAR
STARTCHAR uni1EC5
ENCODING 7877
SWIDTH 478 0
DWIDTH 8 0
BBX 6 16 1 0
BITMAP
70
50
00
30
70
D8
00
78
FC
CC
CC
FC
FC
C8
FC
78
ENDCHAR
STARTCHAR uni1EC6
ENCODING 7878
SWIDTH 490 0
DWIDTH 8 0
BBX 6 18 1 -3
BITMAP
38
6C
00
FC
FC
C0
C0
C0
FC
FC
C0
C0
C0
FC
FC
00
30
38
ENDCHAR
STARTCHAR uni1EC7
ENCODING 7879
SWIDTH 478 0
DWIDTH 8 0
BBX 6 15 1 -3
BITMAP
70
D8
00
78
FC
CC
CC
FC
FC
C8
FC
78
00
30
30
ENDCHAR
STARTCHAR uni1EC8
ENCODING 7880
SWIDTH 270 0
DWIDTH 4 0
BBX 3 16 1 0
BITMAP
C0
60
C0
00
C0
C0
C0
C0
C0
C0
C0
C0
C0
C0
C0
C0
ENDCHAR
STARTCHAR uni1EC9
ENCODING 7881
SWIDTH 262 0
DWIDTH 4 0
BBX 3 13 1 0
BITMAP
C0
60
C0
00
C0
C0
C0
C0
C0
C0
C0
C0
C0
ENDCHAR
STARTCHAR uni1ECA
ENCODING 7882
SWIDTH 270 0
DWIDTH 4 0
BBX 2 15 1 -3
BITMAP
C0
C0
C0
C0
C0
C0
C0
C0
C0
C0
C0
C0
00
C0
C0
ENDCHAR
STARTCHAR uni1ECB
ENCODING 7883
SWIDTH 251 0
DWIDTH 4 0
BBX 2 15 1 -3
BITMAP
C0
C0
00
C0
C0
C0
C0
C0
C0
C0
C0
C0
00
C0
C0
ENDCHAR
STARTCHAR uni1ECC
ENCODING 7884
SWIDTH 603 0
DWIDTH 10 0
BBX 8 15 1 -3
BITMAP
3C
7E
E7
C3
C3
C3
C3
C3
C3
E7
7E
3C
00
18
18
ENDCHAR
STARTCHAR uni1ECD
ENCODING 7885
SWIDTH 497 0
DWIDTH 8 0
BBX 6 12 1 -3
BITMAP
78
FC
CC
CC
CC
CC
CC
FC
78
00
30
30
ENDCHAR
STARTCHAR uni1ECE
ENCODING 7886
SWIDTH 603 0
DWIDTH 10 0
BBX 8 16 1 0
BITMAP
18
0C
18
00
3C
7E
E7
C3
C3
C3
C3
C3
C3
E7
7E
3C
ENDCHAR
STARTCHAR uni1ECF
ENCODING 7887
SWIDTH 497 0
DWIDTH 8 0
BBX 6 13 1 0
BITMAP
30
18
30
00
78
FC
CC
CC
CC
CC
CC
FC
78
ENDCHAR
STARTCHAR uni1ED0
ENCODING 7888
SWIDTH 603 0
DWIDTH 10 0
BBX 9 16 1 0
BITMAP
0180
1A00
6C00
0000
3C00
7E00
E700
C300
C300
C300
C300
C300
C300
E700
7E00
3C00
ENDCHAR
STARTCHAR uni1ED1
ENCODING 7889
SWIDTH 497 0
DWIDTH 8 0
BBX 8 13 1 0
BITMAP
03
36
D8
00
78
FC
CC
CC
CC
CC
CC
FC
78
ENDCHAR
STARTCHAR uni1ED2
ENCODING 7890
SWIDTH 603 0
DWIDTH 10 0
BBX 9 16 0 0
BITMAP
C000
6C00
3600
0000
1E00
3F00
7380
6180
6180
6180
6180
6180
6180
7380
3F00
1E00
ENDCHAR
STARTCHAR uni1ED3
ENCODING 7891
SWIDTH 497 0
DWIDTH 8 0
BBX 8 13 -1 0
BITMAP
C0
6C
36
00
1E
3F
33
33
33
33
33
3F
1E
ENDCHAR
STARTCHAR uni1ED4
ENCODING 7892
SWIDTH 603 0
DWIDTH 10 0
BBX 8 17 1 0
BITMAP
06
02
1E
6C
00
3C
7E
E7
C3
C3
C3
C3
C3
C3
E7
7E
3C
ENDCHAR
STARTCHAR uni1ED5
ENCODING 7893
SWIDTH 497 0
DWIDTH 8 0
BBX 7 14 1 0
BITMAP
04
06
34
D8
00
78
FC
CC
CC
CC
CC
CC
FC
78
ENDCHAR
STARTCHAR uni1ED6
ENCODING 7894
SWIDTH 603 0
DWIDTH 10 0
BBX 8 19 1 0
BITMAP
34
28
00
18
3C
64
00
3C
7E
E7
C3
C3
C3
C3
C3
C3
E7
7E
3C
ENDCHAR
STARTCHAR uni1ED7
ENCODING 7895
SWIDTH 497 0
DWIDTH 8 0
BBX 6 16 1 0
BITMAP
28
50
00
30
78
C8
00
78
FC
CC
CC
CC
CC
CC
FC
78
ENDCHAR
STARTCHAR uni1ED8
ENCODING 7896
SWIDTH 603 0
DWIDTH 10 0
BBX 8 18 1 -3
BITMAP
38
6E
00
3C
7E
E7
C3
C3
C3
C3
C3
C3
E7
7E
3C
00
18
18
ENDCHAR
STARTCHAR uni1ED9
ENCODING 7897
SWIDTH 497 0
DWIDTH 8 0
BBX 6 15 1 -3
BITMAP
30
DC
00
78
FC
CC
CC
CC
CC
CC
FC
78
00
30
30
ENDCHAR
STARTCHAR uni1EDA
ENCODING 7898
SWIDTH 607 0
DWIDTH 10 0
BBX 9 15 1 0
BITMAP
0E00
1800
0180
3D80
7F00
E700
C700
C300
C300
C300
C300
C700
E600
7E00
3C00
ENDCHAR
STARTCHAR uni1EDB
ENCODING 7899
SWIDTH 513 0
DWIDTH 8 0
BBX 8 12 0 0
BITMAP
0E
18
01
3D
7E
66
E6
E6
E6
66
7E
3C
ENDCHAR
STARTCHAR uni1EDC
ENCODING 7900
SWIDTH 607 0
DWIDTH 10 0
BBX 9 15 1 0
BITMAP
7000
3800
0180
3D80
7F00
E700
C700
C300
C300
C300
C300
C700
E600
7E00
3C00
ENDCHAR
STARTCHAR uni1EDD
ENCODING 7901
SWIDTH 513 0
DWIDTH 8 0
BBX 8 12 0 0
BITMAP
70
18
01
3D
7E
66
E6
E6
E6
66
7E
3C
ENDCHAR
STARTCHAR uni1EDE
ENCODING 7902
SWIDTH 607 0
DWIDTH 10 0
BBX 9 16 1 0
BITMAP
1800
0C00
1800
0180
3D80
7F00
E700
C700
C300
C300
C300
C300
C700
E600
7E00
3C00
ENDCHAR
STARTCHAR uni1EDF
ENCODING 7903
SWIDTH 513 0
DWIDTH 8 0
BBX 8 13 0 0
BITMAP
18
0C
18
01
3D
7E
66
E6
E6
E6
66
7E
3C
ENDCHAR
STARTCHAR uni1EE0
ENCODING 7904
SWIDTH 607 0
DWIDTH 10 0
BBX 9 15 1 0
BITMAP
3400
6C00
0180
3D80
7F00
E700
C700
C300
C300
C300
C300
C700
E600
7E00
3C00
ENDCHAR
STARTCHAR uni1EE1
ENCODING 7905
SWIDTH 513 0
DWIDTH 8 0
BBX 8 12 0 0
BITMAP
34
6C
01
3D
7E
66
E6
E6
E6
66
7E
3C
ENDCHAR
STARTCHAR uni1EE2
ENCODING 7906
SWIDTH 607 0
DWIDTH 10 0
BBX 9 16 1 -3
BITMAP
0180
3D80
7F00
E700
C700
C300
C300
C300
C300
C700
E600
7E00
3C00
0000
3800
3800
ENDCHAR
STARTCHAR uni1EE3
ENCODING 7907
SWIDTH 513 0
DWIDTH 8 0
BBX 8 13 0 -3
BITMAP
01
3D
7E
66
E6
E6
E6
66
7E
3C
00
18
18
ENDCHAR
STARTCHAR uni1EE4
ENCODING 7908
SWIDTH 571 0
DWIDTH 9 0
BBX 7 15 1 -3
BITMAP
C6
C6
C6
C6
C6
C6
C6
C6
C6
C6
FE
7C
00
38
38
ENDCHAR
STARTCHAR uni1EE5
ENCODING 7909
SWIDTH 492 0
DWIDTH 8 0
BBX 6 12 1 -3
BITMAP
CC
CC
CC
CC
CC
CC
CC
FC
7C
00
60
60
ENDCHAR
STARTCHAR uni1EE6
ENCODING 7910
SWIDTH 571 0
DWIDTH 9 0
BBX 7 16 1 0
BITMAP
18
18
10
00
C6
C6
C6
C6
C6
C6
C6
C6
C6
C6
FE
7C
ENDCHAR
STARTCHAR uni1EE7
ENCODING 7911
SWIDTH 492 0
DWIDTH 8 0
BBX 6 13 1 0
BITMAP
30
18
30
00
CC
CC
CC
CC
CC
CC
CC
FC
7C
ENDCHAR
STARTCHAR uni1EE8
ENCODING 7912
SWIDTH 625 0
DWIDTH 10 0
BBX 10 15 1 0
BITMAP
0E00
1800
0000
C640
C6C0
C780
C600
C600
C600
C600
C600
C600
E600
7E00
3C00
ENDCHAR
STARTCHAR uni1EE9
ENCODING 7913
SWIDTH 540 0
DWIDTH 9 0
BBX 8 12 1 0
BITMAP
1C
30
01
CD
CF
CC
CC
CC
CC
CC
FC
7C
ENDCHAR
STARTCHAR uni1EEA
ENCODING 7914
SWIDTH 625 0
DWIDTH 10 0
BBX 10 15 1 0
BITMAP
7000
1800
0000
C640
C6C0
C780
C600
C600
C600
C600
C600
C600
E600
7E00
3C00
ENDCHAR
STARTCHAR uni1EEB
ENCODING 7915
SWIDTH 540 0
DWIDTH 9 0
BBX 8 12 1 0
BITMAP
E0
30
01
CD
CF
CC
CC
CC
CC
CC
FC
7C
ENDCHAR
STARTCHAR uni1EEC
ENCODING 7916
SWIDTH 625 0
DWIDTH 10 0
BBX 10 16 1 0
BITMAP
1800
0C00
1800
0000
C640
C6C0
C780
C600
C600
C600
C600
C600
C600
E600
7E00
3C00
ENDCHAR
STARTCHAR uni1EED
ENCODING 7917
SWIDTH 540 0
DWIDTH 9 0
BBX 8 13 1 0
BITMAP
30
18
30
01
CD
CF
CC
CC
CC
CC
CC
FC
7C
ENDCHAR
STARTCHAR uni1EEE
ENCODING 7918
SWIDTH 625 0
DWIDTH 10 0
BBX 10 15 1 0
BITMAP
3400
6C00
0000
C640
C6C0
C780
C600
C600
C600
C600
C600
C600
E600
7E00
3C00
ENDCHAR
STARTCHAR uni1EEF
ENCODING 7919
SWIDTH 540 0
DWIDTH 9 0
BBX 8 12 1 0
BITMAP
68
D8
01
CD
CF
CC
CC
CC
CC
CC
FC
7C
ENDCHAR
STARTCHAR uni1EF0
ENCODING 7920
SWIDTH 625 0
DWIDTH 10 0
BBX 10 15 1 -3
BITMAP
C640
C6C0
C780
C600
C600
C600
C600
C600
C600
E600
7E00
3C00
0000
1800
1800
ENDCHAR
STARTCHAR uni1EF1
ENCODING 7921
SWIDTH 540 0
DWIDTH 9 0
BBX 8 13 1 -3
BITMAP
01
CD
CF
CC
CC
CC
CC
CC
FC
7C
00
30
30
ENDCHAR
STARTCHAR Ygrave
ENCODING 7922
SWIDTH 542 0
DWIDTH 9 0
BBX 9 15 0 0
BITMAP
7000
1C00
0000
E380
6300
6700
3600
3600
3C00
1C00
1C00
1C00
1C00
1C00
1C00
ENDCHAR
STARTCHAR ygrave
ENCODING 7923
SWIDTH 446 0
DWIDTH 7 0
BBX 7 15 0 -3
BITMAP
70
38
00
EE
EC
6C
6C
6C
38
38
38
38
30
70
60
ENDCHAR
STARTCHAR uni1EF4
ENCODING 7924
SWIDTH 542 0
DWIDTH 9 0
BBX 9 15 0 -3
BITMAP
E380
6300
6700
3600
3600
3C00
1C00
1C00
1C00
1C00
1C00
1C00
0000
1800
1C00
ENDCHAR
STARTCHAR uni1EF5
ENCODING 7925
SWIDTH 446 0
DWIDTH 7 0
BBX 7 13 0 -4
BITMAP
EE
EC
6C
6C
6C
38
38
38
38
30
70
6E
0E
ENDCHAR
STARTCHAR uni1EF6
ENCODING 7926
SWIDTH 542 0
DWIDTH 9 0
BBX 9 16 0 0
BITMAP
1C00
0C00
1800
0000
E380
6300
6700
3600
3600
3C00
1C00
1C00
1C00
1C00
1C00
1C00
ENDCHAR
STARTCHAR uni1EF7
ENCODING 7927
SWIDTH 446 0
DWIDTH 7 0
BBX 7 16 0 -3
BITMAP
18
18
10
00
EE
EC
6C
6C
6C
38
38
38
38
30
70
60
ENDCHAR
STARTCHAR uni1EF8
ENCODING 7928
SWIDTH 542 0
DWIDTH 9 0
BBX 9 15 0 0
BITMAP
3200
2C00
0000
E380
6300
6700
3600
3600
3C00
1C00
1C00
1C00
1C00
1C00
1C00
ENDCHAR
STARTCHAR uni1EF9
ENCODING 7929
SWIDTH 446 0
DWIDTH 7 0
BBX 7 15 0 -3
BITMAP
24
5C
00
EE
EC
6C
6C
6C
38
38
38
38
30
70
60
ENDCHAR
STARTCHAR uni1F4D
ENCODING 8013
SWIDTH 637 0
DWIDTH 10 0
BBX 13 12 -3 0
BITMAP
B1E0
A7F0
A630
0630
0E38
0E38
0E38
0E38
0638
0630
07F0
03E0
ENDCHAR
STARTCHAR uni2000
ENCODING 8192
SWIDTH 447 0
DWIDTH 7 0
BBX 1 1 0 0
BITMAP
00
ENDCHAR
STARTCHAR uni2001
ENCODING 8193
SWIDTH 876 0
DWIDTH 14 0
BBX 1 1 0 0
BITMAP
00
ENDCHAR
STARTCHAR uni2002
ENCODING 8194
SWIDTH 447 0
DWIDTH 7 0
BBX 1 1 0 0
BITMAP
00
ENDCHAR
STARTCHAR uni2003
ENCODING 8195
SWIDTH 876 0
DWIDTH 14 0
BBX 1 1 0 0
BITMAP
00
ENDCHAR
STARTCHAR uni2004
ENCODING 8196
SWIDTH 305 0
DWIDTH 5 0
BBX 1 1 0 0
BITMAP
00
ENDCHAR
STARTCHAR uni2005
ENCODING 8197
SWIDTH 233 0
DWIDTH 4 0
BBX 1 1 0 0
BITMAP
00
ENDCHAR
STARTCHAR uni2006
ENCODING 8198
SWIDTH 162 0
DWIDTH 3 0
BBX 1 1 0 0
BITMAP
00
ENDCHAR
STARTCHAR uni2007
ENCODING 8199
SWIDTH 491 0
DWIDTH 8 0
BBX 1 1 0 0
BITMAP
00
ENDCHAR
STARTCHAR uni2008
ENCODING 8200
SWIDTH 249 0
DWIDTH 4 0
BBX 1 1 0 0
BITMAP
00
ENDCHAR
STARTCHAR uni2009
ENCODING 8201
SWIDTH 190 0
DWIDTH 3 0
BBX 1 1 0 0
BITMAP
00
ENDCHAR
STARTCHAR uni200A
ENCODING 8202
SWIDTH 105 0
DWIDTH 2 0
BBX 1 1 0 0
BITMAP
00
ENDCHAR
STARTCHAR uni200B
ENCODING 8203
SWIDTH 0 0
DWIDTH 0 0
BBX 1 1 0 0
BITMAP
00
ENDCHAR
STARTCHAR uni2010
ENCODING 8208
SWIDTH 364 0
DWIDTH 6 0
BBX 4 2 1 4
BITMAP
F0
F0
ENDCHAR
STARTCHAR uni2011
ENCODING 8209
SWIDTH 364 0
DWIDTH 6 0
BBX 4 2 1 4
BITMAP
F0
F0
ENDCHAR
STARTCHAR endash
ENCODING 8211
SWIDTH 547 0
DWIDTH 9 0
BBX 7 2 1 5
BITMAP
FE
FE
ENDCHAR
STARTCHAR emdash
ENCODING 8212
SWIDTH 660 0
DWIDTH 11 0
BBX 9 2 1 5
BITMAP
FF80
FF80
ENDCHAR
STARTCHAR uni2015
ENCODING 8213
SWIDTH 660 0
DWIDTH 11 0
BBX 9 2 1 5
BITMAP
FF80
FF80
ENDCHAR
STARTCHAR underscoredbl
ENCODING 8215
SWIDTH 392 0
DWIDTH 6 0
BBX 6 4 0 -4
BITMAP
FC
00
00
FC
ENDCHAR
STARTCHAR quoteleft
ENCODING 8216
SWIDTH 229 0
DWIDTH 4 0
BBX 2 4 1 8
BITMAP
40
C0
C0
C0
ENDCHAR
STARTCHAR quoteright
ENCODING 8217
SWIDTH 224 0
DWIDTH 4 0
BBX 2 4 1 8
BITMAP
C0
C0
C0
80
ENDCHAR
STARTCHAR quotesinglbase
ENCODING 8218
SWIDTH 245 0
DWIDTH 4 0
BBX 2 4 1 -2
BITMAP
C0
C0
C0
80
ENDCHAR
STARTCHAR quotereversed
ENCODING 8219
SWIDTH 204 0
DWIDTH 3 0
BBX 3 4 0 8
BITMAP
C0
C0
40
60
ENDCHAR
STARTCHAR quotedblleft
ENCODING 8220
SWIDTH 387 0
DWIDTH 6 0
BBX 5 4 1 8
BITMAP
58
D0
D0
D0
ENDCHAR
STARTCHAR quotedblright
ENCODING 8221
SWIDTH 390 0
DWIDTH 6 0
BBX 5 4 1 8
BITMAP
D8
D8
D0
B0
ENDCHAR
STARTCHAR quotedblbase
ENCODING 8222
SWIDTH 385 0
DWIDTH 6 0
BBX 4 5 1 -3
BITMAP
D0
D0
F0
B0
A0
ENDCHAR
STARTCHAR dagger
ENCODING 8224
SWIDTH 469 0
DWIDTH 8 0
BBX 6 12 1 0
BITMAP
30
30
30
FC
FC
30
30
30
30
30
30
30
ENDCHAR
STARTCHAR daggerdbl
ENCODING 8225
SWIDTH 509 0
DWIDTH 8 0
BBX 6 15 1 -3
BITMAP
30
30
30
FC
FC
30
30
30
30
30
FC
FC
30
30
30
ENDCHAR
STARTCHAR bullet
ENCODING 8226
SWIDTH 359 0
DWIDTH 6 0
BBX 4 4 1 4
BITMAP
60
F0
F0
60
ENDCHAR
STARTCHAR twodotenleader
ENCODING 8229
SWIDTH 472 0
DWIDTH 8 0
BBX 6 2 1 0
BITMAP
EC
FC
ENDCHAR
STARTCHAR ellipsis
ENCODING 8230
SWIDTH 663 0
DWIDTH 11 0
BBX 9 2 1 0
BITMAP
ED80
FD80
ENDCHAR
STARTCHAR uni2027
ENCODING 8231
SWIDTH 254 0
DWIDTH 4 0
BBX 2 2 1 4
BITMAP
C0
C0
ENDCHAR
STARTCHAR perthousand
ENCODING 8240
SWIDTH 820 0
DWIDTH 13 0
BBX 12 12 1 0
BITMAP
E000
B200
B400
B400
E800
0800
1000
17E0
2DA0
2DB0
4DA0
07E0
ENDCHAR
STARTCHAR minute
ENCODING 8242
SWIDTH 161 0
DWIDTH 3 0
BBX 1 4 1 8
BITMAP
80
80
80
80
ENDCHAR
STARTCHAR second
ENCODING 8243
SWIDTH 320 0
DWIDTH 5 0
BBX 5 4 0 8
BITMAP
D8
D8
D0
D0
ENDCHAR
STARTCHAR guilsinglleft
ENCODING 8249
SWIDTH 284 0
DWIDTH 5 0
BBX 3 6 1 1
BITMAP
60
40
C0
C0
40
60
ENDCHAR
STARTCHAR guilsinglright
ENCODING 8250
SWIDTH 274 0
DWIDTH 4 0
BBX 3 6 1 1
BITMAP
80
C0
60
60
C0
80
ENDCHAR
STARTCHAR exclamdbl
ENCODING 8252
SWIDTH 520 0
DWIDTH 8 0
BBX 6 12 1 0
BITMAP
CC
CC
CC
CC
CC
CC
CC
CC
CC
00
CC
CC
ENDCHAR
STARTCHAR fraction
ENCODING 8260
SWIDTH 394 0
DWIDTH 6 0
BBX 6 9 0 1
BITMAP
04
0C
08
10
30
20
60
40
C0
ENDCHAR
STARTCHAR uni2074
ENCODING 8308
SWIDTH 335 0
DWIDTH 5 0
BBX 5 6 0 6
BITMAP
30
30
70
50
F8
10
ENDCHAR
STARTCHAR uni207F
ENCODING 8319
SWIDTH 370 0
DWIDTH 6 0
BBX 4 7 1 5
BITMAP
B0
D0
90
90
90
90
90
ENDCHAR
STARTCHAR franc
ENCODING 8355
SWIDTH 475 0
DWIDTH 8 0
BBX 7 12 0 0
BITMAP
7E
7E
60
60
60
7E
7E
60
60
F8
60
60
ENDCHAR
STARTCHAR lira
ENCODING 8356
SWIDTH 524 0
DWIDTH 8 0
BBX 7 12 1 0
BITMAP
38
7C
6E
60
60
F8
60
F8
60
60
FE
FE
ENDCHAR
STARTCHAR uni20A6
ENCODING 8358
SWIDTH 714 0
DWIDTH 11 0
BBX 11 12 0 0
BITMAP
3180
3180
3980
3980
FFE0
3D80
3580
FFE0
3380
3380
3380
3180
ENDCHAR
STARTCHAR peseta
ENCODING 8359
SWIDTH 750 0
DWIDTH 12 0
BBX 10 12 1 0
BITMAP
F800
FD80
CD80
CFC0
CFC0
CD80
FD80
F980
C180
C180
C1C0
C1C0
ENDCHAR
STARTCHAR uni20A8
ENCODING 8360
SWIDTH 939 0
DWIDTH 15 0
BBX 13 12 1 0
BITMAP
FC00
FE00
C600
C6F0
C6F8
C798
FFC0
FCF0
CC38
CF98
CFF8
C7F0
ENDCHAR
STARTCHAR uni20A9
ENCODING 8361
SWIDTH 704 0
DWIDTH 11 0
BBX 11 12 0 0
BITMAP
6CC0
6EC0
6EC0
FFE0
7FC0
FFE0
3F80
3F80
3B80
3B80
3B80
1B00
ENDCHAR
STARTCHAR uni20AA
ENCODING 8362
SWIDTH 770 0
DWIDTH 12 0
BBX 11 9 1 0
BITMAP
FEE0
FEE0
C7E0
DFE0
DFE0
DFE0
D8C0
DFC0
DF80
ENDCHAR
STARTCHAR dong
ENCODING 8363
SWIDTH 510 0
DWIDTH 8 0
BBX 7 15 1 -3
BITMAP
0C
3E
0C
7C
FC
CC
CC
CC
CC
CC
FC
7C
00
FC
FC
ENDCHAR
STARTCHAR Euro
ENCODING 8364
SWIDTH 505 0
DWIDTH 8 0
BBX 6 12 1 0
BITMAP
1C
3C
70
60
F8
60
F8
60
60
70
3C
1C
ENDCHAR
STARTCHAR uni20B1
ENCODING 8369
SWIDTH 666 0
DWIDTH 11 0
BBX 9 12 1 0
BITMAP
7C00
7E00
6700
FF80
6300
FF80
6700
7E00
7C00
6000
6000
6000
ENDCHAR
STARTCHAR uni20B9
ENCODING 8377
SWIDTH 473 0
DWIDTH 8 0
BBX 6 12 1 0
BITMAP
FC
FC
18
FC
FC
18
F8
F0
E0
70
30
38
ENDCHAR
STARTCHAR uni20BA
ENCODING 8378
SWIDTH 538 0
DWIDTH 9 0
BBX 8 12 0 0
BITMAP
30
38
78
F0
B8
78
F3
B3
37
36
3E
3C
ENDCHAR
STARTCHAR uni20BC
ENCODING 8380
SWIDTH 598 0
DWIDTH 10 0
BBX 8 9 1 0
BITMAP
18
18
3C
7E
DF
DB
DB
DB
DB
ENDCHAR
STARTCHAR uni20BD
ENCODING 8381
SWIDTH 626 0
DWIDTH 10 0
BBX 9 12 0 0
BITMAP
3F00
3F80
3180
3180
3180
FF80
FF00
3000
FC00
FC00
3000
3000
ENDCHAR
STARTCHAR uni2105
ENCODING 8453
SWIDTH 636 0
DWIDTH 10 0
BBX 8 12 1 0
BITMAP
E0
B6
84
BC
E8
18
10
37
2D
6D
4D
07
ENDCHAR
STARTCHAR uni2113
ENCODING 8467
SWIDTH 440 0
DWIDTH 7 0
BBX 7 12 0 0
BITMAP
1C
3C
36
76
7C
7C
78
F8
F0
70
38
18
ENDCHAR
STARTCHAR uni2116
ENCODING 8470
SWIDTH 872 0
DWIDTH 14 0
BBX 12 12 1 0
BITMAP
E6E0
E690
E690
E690
F690
D6E0
D600
DEF0
DE00
CE00
CE00
CE00
ENDCHAR
STARTCHAR trademark
ENCODING 8482
SWIDTH 553 0
DWIDTH 9 0
BBX 7 4 1 8
BITMAP
F2
5E
5E
5A
ENDCHAR
STARTCHAR uni03A9.dup1
ENCODING 8486
SWIDTH 588 0
DWIDTH 9 0
BBX 7 12 1 0
BITMAP
38
7C
EE
C6
C6
C6
C6
C6
C6
6C
EE
EE
ENDCHAR
STARTCHAR estimated
ENCODING 8494
SWIDTH 632 0
DWIDTH 10 0
BBX 8 9 1 0
BITMAP
3C
72
61
E1
FF
C0
40
42
3C
ENDCHAR
STARTCHAR oneeighth
ENCODING 8539
SWIDTH 681 0
DWIDTH 11 0
BBX 9 12 1 0
BITMAP
4000
C000
4200
4400
4C00
4800
1F00
1580
3300
2580
4580
0700
ENDCHAR
STARTCHAR threeeighths
ENCODING 8540
SWIDTH 743 0
DWIDTH 12 0
BBX 11 12 0 0
BITMAP
7000
D800
3080
1900
DB00
7200
07C0
0560
0CC0
0960
1160
01C0
ENDCHAR
STARTCHAR fiveeighths
ENCODING 8541
SWIDTH 737 0
DWIDTH 12 0
BBX 11 12 0 0
BITMAP
7000
4000
7180
1900
DB00
7200
07C0
0560
08C0
0960
1160
01C0
ENDCHAR
STARTCHAR seveneighths
ENCODING 8542
SWIDTH 751 0
DWIDTH 12 0
BBX 10 12 1 0
BITMAP
F000
3000
2200
6600
4400
CC00
0B80
1E80
1380
2680
26C0
0380
ENDCHAR
STARTCHAR partialdiff
ENCODING 8706
SWIDTH 500 0
DWIDTH 8 0
BBX 6 12 1 0
BITMAP
70
78
0C
0C
7C
FC
CC
CC
CC
CC
FC
78
ENDCHAR
STARTCHAR uni0394.dup2
ENCODING 8710
SWIDTH 641 0
DWIDTH 10 0
BBX 10 12 0 0
BITMAP
0E00
0E00
1E00
1E00
1B00
3B00
3300
3380
7180
6180
7FC0
FFC0
ENDCHAR
STARTCHAR product
ENCODING 8719
SWIDTH 613 0
DWIDTH 10 0
BBX 8 14 1 -2
BITMAP
FF
FF
C7
C7
C7
C7
C7
C7
C7
C7
C7
C7
C7
C7
ENDCHAR
STARTCHAR summation
ENCODING 8721
SWIDTH 556 0
DWIDTH 9 0
BBX 7 14 1 -2
BITMAP
FE
FE
E0
60
30
38
18
1C
38
30
60
E0
FE
FE
ENDCHAR
STARTCHAR minus
ENCODING 8722
SWIDTH 483 0
DWIDTH 8 0
BBX 6 2 1 5
BITMAP
FC
FC
ENDCHAR
STARTCHAR radical
ENCODING 8730
SWIDTH 503 0
DWIDTH 8 0
BBX 8 12 0 0
BITMAP
03
02
02
06
06
06
E4
FC
3C
3C
18
18
ENDCHAR
STARTCHAR infinity
ENCODING 8734
SWIDTH 892 0
DWIDTH 14 0
BBX 12 9 1 0
BITMAP
79E0
FFF0
CF30
C630
C630
C630
CF30
FFF0
79E0
ENDCHAR
STARTCHAR integral
ENCODING 8747
SWIDTH 269 0
DWIDTH 4 0
BBX 6 15 -1 -3
BITMAP
1C
3C
30
30
30
30
30
30
30
30
30
30
30
70
E0
ENDCHAR
STARTCHAR approxequal
ENCODING 8776
SWIDTH 505 0
DWIDTH 8 0
BBX 6 6 1 2
BITMAP
E4
FC
9C
E4
FC
9C
ENDCHAR
STARTCHAR notequal
ENCODING 8800
SWIDTH 502 0
DWIDTH 8 0
BBX 6 9 1 0
BITMAP
08
08
FC
FC
30
FC
FC
40
40
ENDCHAR
STARTCHAR lessequal
ENCODING 8804
SWIDTH 446 0
DWIDTH 7 0
BBX 6 8 0 1
BITMAP
04
1C
78
E0
78
1C
7C
7C
ENDCHAR
STARTCHAR greaterequal
ENCODING 8805
SWIDTH 454 0
DWIDTH 7 0
BBX 6 9 1 1
BITMAP
80
E0
78
0C
78
E0
80
FC
FC
ENDCHAR
STARTCHAR lozenge
ENCODING 9674
SWIDTH 447 0
DWIDTH 7 0
BBX 7 12 0 0
BITMAP
38
38
38
6C
6C
EE
EE
6C
6C
38
38
38
ENDCHAR
STARTCHAR uniEE01
ENCODING 60929
SWIDTH 278 0
DWIDTH 4 0
BBX 3 9 1 1
BITMAP
E0
E0
00
00
00
00
00
E0
E0
ENDCHAR
STARTCHAR uniEE02
ENCODING 60930
SWIDTH 299 0
DWIDTH 5 0
BBX 3 3 1 5
BITMAP
A0
A0
A0
ENDCHAR
STARTCHAR uniF6C3
ENCODING 63171
SWIDTH 212 0
DWIDTH 3 0
BBX 2 3 0 -1
BITMAP
40
40
C0
ENDCHAR
STARTCHAR uniFB01
ENCODING 64257
SWIDTH 545 0
DWIDTH 9 0
BBX 8 12 0 0
BITMAP
1E
3E
70
FB
FB
73
73
73
73
73
73
73
ENDCHAR
STARTCHAR uniFB02
ENCODING 64258
SWIDTH 549 0
DWIDTH 9 0
BBX 8 12 0 0
BITMAP
3F
7F
73
FB
FB
73
73
73
73
73
73
73
ENDCHAR
STARTCHAR uniFB03
ENCODING 64259
SWIDTH 821 0
DWIDTH 13 0
BBX 12 12 0 0
BITMAP
39E0
7BE0
6300
FFB0
FFB0
6330
6330
6330
6330
6330
6330
6330
ENDCHAR
STARTCHAR uniFB04
ENCODING 64260
SWIDTH 821 0
DWIDTH 13 0
BBX 12 12 0 0
BITMAP
39F0
7BF0
6330
FFB0
FFB0
6330
6330
6330
6330
6330
6330
6330
ENDCHAR
STARTCHAR uniFEFF
ENCODING 65279
SWIDTH 0 0
DWIDTH 0 0
BBX 1 1 0 0
BITMAP
00
ENDCHAR
STARTCHAR uniFFFC
ENCODING 65532
SWIDTH 1021 0
DWIDTH 16 0
BBX 15 15 1 -3
BITMAP
DB6E
8002
8002
0000
8002
BB8A
2B88
AAAA
BBBA
0000
8002
8002
0000
8002
DB6E
ENDCHAR
STARTCHAR uniFFFD
ENCODING 65533
SWIDTH 1025 0
DWIDTH 16 0
BBX 15 15 1 -2
BITMAP
0100
0380
07C0
0FE0
1C70
3938
7F3C
FF3E
7C7C
3CF8
1FF0
0E60
07C0
0380
0100
ENDCHAR
STARTCHAR .notdef
ENCODING -1
SWIDTH 392 0
DWIDTH 6 0
BBX 4 12 1 0
BITMAP
F0
90
90
B0
F0
D0
D0
F0
B0
B0
90
F0
ENDCHAR
STARTCHAR glyph369
ENCODING -1
SWIDTH 363 0
DWIDTH 6 0
BBX 4 3 1 9
BITMAP
B0
A0
E0
ENDCHAR
STARTCHAR uni2009.locl
ENCODING -1
SWIDTH 124 0
DWIDTH 2 0
BBX 1 1 0 0
BITMAP
00
ENDCHAR
STARTCHAR f_f.dlig
ENCODING -1
SWIDTH 582 0
DWIDTH 9 0
BBX 9 12 0 0
BITMAP
3B80
7F80
6600
FF80
FF80
6600
6600
6600
6600
6600
6600
6600
ENDCHAR
STARTCHAR longs_t.dlig
ENCODING -1
SWIDTH 575 0
DWIDTH 9 0
BBX 9 12 0 0
BITMAP
3E00
7F00
7700
EF80
EF80
6700
6700
6700
6700
6700
6780
6380
ENDCHAR
STARTCHAR s_t.dlig
ENCODING -1
SWIDTH 742 0
DWIDTH 12 0
BBX 11 12 1 0
BITMAP
0F00
1980
1980
7BE0
FFE0
DD80
E180
7980
1D80
CD80
FDE0
78E0
ENDCHAR
STARTCHAR two.dnom
ENCODING -1
SWIDTH 335 0
DWIDTH 5 0
BBX 5 6 0 0
BITMAP
70
D0
10
30
60
F8
ENDCHAR
STARTCHAR one.dnom
ENCODING -1
SWIDTH 335 0
DWIDTH 5 0
BBX 3 6 1 0
BITMAP
60
E0
60
60
60
60
ENDCHAR
STARTCHAR zero.dnom
ENCODING -1
SWIDTH 335 0
DWIDTH 5 0
BBX 5 6 0 0
BITMAP
70
50
D8
D8
50
70
ENDCHAR
STARTCHAR nine.c2sc
ENCODING -1
SWIDTH 459 0
DWIDTH 7 0
BBX 7 9 0 0
BITMAP
38
7C
EC
EE
7E
7C
0C
3C
30
ENDCHAR
STARTCHAR eight.c2sc
ENCODING -1
SWIDTH 459 0
DWIDTH 7 0
BBX 7 9 0 0
BITMAP
38
7C
6C
6C
7C
7C
EC
7E
7C
ENDCHAR
STARTCHAR seven.c2sc
ENCODING -1
SWIDTH 459 0
DWIDTH 7 0
BBX 7 9 0 0
BITMAP
FE
FC
0C
0C
18
18
30
30
70
ENDCHAR
STARTCHAR six.c2sc
ENCODING -1
SWIDTH 459 0
DWIDTH 7 0
BBX 7 9 0 0
BITMAP
18
78
60
7C
FC
EE
6E
7C
38
ENDCHAR
STARTCHAR five.c2sc
ENCODING -1
SWIDTH 459 0
DWIDTH 7 0
BBX 7 9 0 0
BITMAP
7C
7C
60
7C
7C
0E
EC
7C
38
ENDCHAR
STARTCHAR four.c2sc
ENCODING -1
SWIDTH 459 0
DWIDTH 7 0
BBX 7 9 0 0
BITMAP
1C
1C
3C
2C
6C
FE
FE
0C
0C
ENDCHAR
STARTCHAR three.c2sc
ENCODING -1
SWIDTH 459 0
DWIDTH 7 0
BBX 7 9 0 0
BITMAP
78
FC
0C
3C
38
0C
EE
7C
78
ENDCHAR
STARTCHAR two.c2sc
ENCODING -1
SWIDTH 459 0
DWIDTH 7 0
BBX 7 9 0 0
BITMAP
38
7C
EC
0C
1C
38
70
FE
FE
ENDCHAR
STARTCHAR one.c2sc
ENCODING -1
SWIDTH 459 0
DWIDTH 7 0
BBX 4 9 1 0
BITMAP
30
F0
F0
30
30
30
30
30
30
ENDCHAR
STARTCHAR zero.c2sc
ENCODING -1
SWIDTH 459 0
DWIDTH 7 0
BBX 7 9 0 0
BITMAP
38
7C
6C
EE
EE
EE
6C
7C
38
ENDCHAR
STARTCHAR Z.c2sc
ENCODING -1
SWIDTH 461 0
DWIDTH 7 0
BBX 7 9 0 0
BITMAP
FE
FE
0C
1C
18
30
70
7E
7E
ENDCHAR
STARTCHAR Y.c2sc
ENCODING -1
SWIDTH 475 0
DWIDTH 8 0
BBX 8 9 0 0
BITMAP
E7
66
6C
3C
38
18
18
18
18
ENDCHAR
STARTCHAR X.c2sc
ENCODING -1
SWIDTH 485 0
DWIDTH 8 0
BBX 8 9 0 0
BITMAP
E6
6E
7C
3C
38
3C
7C
6E
E7
ENDCHAR
STARTCHAR W.c2sc
ENCODING -1
SWIDTH 643 0
DWIDTH 10 0
BBX 10 9 0 0
BITMAP
CCC0
EDC0
6D80
7F80
7F80
7F80
7F80
3300
3300
ENDCHAR
STARTCHAR V.c2sc
ENCODING -1
SWIDTH 503 0
DWIDTH 8 0
BBX 8 9 0 0
BITMAP
E3
66
66
66
66
3C
3C
3C
18
ENDCHAR
STARTCHAR U.c2sc
ENCODING -1
SWIDTH 498 0
DWIDTH 8 0
BBX 6 9 1 0
BITMAP
CC
CC
CC
CC
CC
CC
CC
FC
78
ENDCHAR
STARTCHAR T.c2sc
ENCODING -1
SWIDTH 477 0
DWIDTH 8 0
BBX 7 9 0 0
BITMAP
FE
FE
18
18
18
18
18
18
18
ENDCHAR
STARTCHAR S.c2sc
ENCODING -1
SWIDTH 474 0
DWIDTH 8 0
BBX 6 9 1 0
BITMAP
78
FC
CC
E0
78
1C
CC
FC
78
ENDCHAR
STARTCHAR R.c2sc
ENCODING -1
SWIDTH 488 0
DWIDTH 8 0
BBX 7 9 1 0
BITMAP
F8
FC
CC
CC
FC
F8
D8
DC
CE
ENDCHAR
STARTCHAR Q.c2sc
ENCODING -1
SWIDTH 521 0
DWIDTH 8 0
BBX 8 11 0 -2
BITMAP
3C
7E
66
E7
E7
E7
66
7E
3E
07
04
ENDCHAR
STARTCHAR P.c2sc
ENCODING -1
SWIDTH 495 0
DWIDTH 8 0
BBX 6 9 1 0
BITMAP
F8
FC
CC
CC
FC
F8
C0
C0
C0
ENDCHAR
STARTCHAR O.c2sc
ENCODING -1
SWIDTH 521 0
DWIDTH 8 0
BBX 8 9 0 0
BITMAP
3C
7E
66
E7
E7
E7
66
7E
3C
ENDCHAR
STARTCHAR N.c2sc
ENCODING -1
SWIDTH 526 0
DWIDTH 8 0
BBX 7 9 1 0
BITMAP
CE
EE
EE
FE
FE
DE
DE
CE
CE
ENDCHAR
STARTCHAR M.c2sc
ENCODING -1
SWIDTH 655 0
DWIDTH 10 0
BBX 10 9 0 0
BITMAP
F3C0
F3C0
F3C0
F3C0
FFC0
FFC0
EDC0
EDC0
EDC0
ENDCHAR
STARTCHAR L.c2sc
ENCODING -1
SWIDTH 414 0
DWIDTH 7 0
BBX 5 9 1 0
BITMAP
C0
C0
C0
C0
C0
C0
C0
F8
F8
ENDCHAR
STARTCHAR K.c2sc
ENCODING -1
SWIDTH 480 0
DWIDTH 8 0
BBX 7 9 1 0
BITMAP
CE
DC
D8
F0
F0
F8
D8
DC
CE
ENDCHAR
STARTCHAR J.c2sc
ENCODING -1
SWIDTH 426 0
DWIDTH 7 0
BBX 6 9 0 0
BITMAP
0C
0C
0C
0C
0C
0C
EC
7C
38
ENDCHAR
STARTCHAR I.c2sc
ENCODING -1
SWIDTH 241 0
DWIDTH 4 0
BBX 2 9 1 0
BITMAP
C0
C0
C0
C0
C0
C0
C0
C0
C0
ENDCHAR
STARTCHAR H.c2sc
ENCODING -1
SWIDTH 527 0
DWIDTH 8 0
BBX 7 9 1 0
BITMAP
C6
C6
C6
FE
FE
C6
C6
C6
C6
ENDCHAR
STARTCHAR G.c2sc
ENCODING -1
SWIDTH 504 0
DWIDTH 8 0
BBX 8 9 0 0
BITMAP
3C
7E
66
61
EF
6F
67
7F
3E
ENDCHAR
STARTCHAR F.c2sc
ENCODING -1
SWIDTH 411 0
DWIDTH 7 0
BBX 5 9 1 0
BITMAP
F8
F8
C0
C0
F8
F8
C0
C0
C0
ENDCHAR
STARTCHAR dollar.c2sc
ENCODING -1
SWIDTH 474 0
DWIDTH 8 0
BBX 6 13 1 -2
BITMAP
10
10
78
FC
CC
E0
78
1C
CC
FC
78
10
10
ENDCHAR
STARTCHAR sterling.c2sc
ENCODING -1
SWIDTH 515 0
DWIDTH 8 0
BBX 7 9 0 0
BITMAP
1C
3E
76
70
FC
70
60
7E
7E
ENDCHAR
STARTCHAR yen.c2sc
ENCODING -1
SWIDTH 403 0
DWIDTH 6 0
BBX 6 9 0 0
BITMAP
CC
FC
78
78
FC
30
FC
30
30
ENDCHAR
STARTCHAR Gamma.c2sc
ENCODING -1
SWIDTH 416 0
DWIDTH 7 0
BBX 6 9 1 0
BITMAP
FC
FC
C0
C0
C0
C0
C0
C0
C0
ENDCHAR
STARTCHAR uni0394.c2sc
ENCODING -1
SWIDTH 503 0
DWIDTH 8 0
BBX 8 9 0 0
BITMAP
18
3C
3C
3C
66
66
66
7E
FF
ENDCHAR
STARTCHAR Theta.c2sc
ENCODING -1
SWIDTH 521 0
DWIDTH 8 0
BBX 8 9 0 0
BITMAP
3C
7E
66
FF
FF
E7
66
7E
3C
ENDCHAR
STARTCHAR Lambda.c2sc
ENCODING -1
SWIDTH 503 0
DWIDTH 8 0
BBX 8 9 0 0
BITMAP
18
3C
3C
3C
66
66
66
66
E7
ENDCHAR
STARTCHAR Xi.c2sc
ENCODING -1
SWIDTH 406 0
DWIDTH 7 0
BBX 5 9 1 0
BITMAP
F8
F8
00
78
78
00
00
F8
F8
ENDCHAR
STARTCHAR Pi.c2sc
ENCODING -1
SWIDTH 534 0
DWIDTH 9 0
BBX 7 9 1 0
BITMAP
FE
FE
C6
C6
C6
C6
C6
C6
C6
ENDCHAR
STARTCHAR Sigma.c2sc
ENCODING -1
SWIDTH 476 0
DWIDTH 8 0
BBX 6 9 1 0
BITMAP
FC
FC
E0
60
30
60
E0
FC
FC
ENDCHAR
STARTCHAR Phi.c2sc
ENCODING -1
SWIDTH 644 0
DWIDTH 10 0
BBX 9 9 1 0
BITMAP
1800
7E00
FF00
DB80
D980
DB80
FF00
7E00
1800
ENDCHAR
STARTCHAR Psi.c2sc
ENCODING -1
SWIDTH 619 0
DWIDTH 10 0
BBX 8 9 1 0
BITMAP
DB
DB
DB
DB
DB
FF
7E
18
18
ENDCHAR
STARTCHAR uni03A9.c2sc
ENCODING -1
SWIDTH 524 0
DWIDTH 8 0
BBX 8 9 0 0
BITMAP
3C
7E
67
E7
E7
66
66
7F
7F
ENDCHAR
STARTCHAR uni0402.c2sc
ENCODING -1
SWIDTH 625 0
DWIDTH 10 0
BBX 10 9 0 0
BITMAP
FE00
FE00
1800
1F00
1F80
1980
19C0
1B80
1B00
ENDCHAR
STARTCHAR uni0404.c2sc
ENCODING -1
SWIDTH 494 0
DWIDTH 8 0
BBX 7 9 1 0
BITMAP
78
FC
CC
F2
F0
C0
CE
FC
78
ENDCHAR
STARTCHAR uni0409.c2sc
ENCODING -1
SWIDTH 800 0
DWIDTH 13 0
BBX 12 9 0 0
BITMAP
3F00
3F00
3300
33E0
33F0
3330
7330
E3F0
E3E0
ENDCHAR
STARTCHAR uni040A.c2sc
ENCODING -1
SWIDTH 795 0
DWIDTH 13 0
BBX 11 9 1 0
BITMAP
C600
C600
C600
FFC0
FFE0
C660
C660
C7E0
C7C0
ENDCHAR
STARTCHAR uni040B.c2sc
ENCODING -1
SWIDTH 629 0
DWIDTH 10 0
BBX 9 9 0 0
BITMAP
FE00
FE00
3800
3F00
3F80
3980
3980
3980
3980
ENDCHAR
STARTCHAR uni040F.c2sc
ENCODING -1
SWIDTH 534 0
DWIDTH 9 0
BBX 7 12 1 -3
BITMAP
C6
C6
C6
C6
C6
C6
C6
FE
FE
38
38
38
ENDCHAR
STARTCHAR uni0411.c2sc
ENCODING -1
SWIDTH 501 0
DWIDTH 8 0
BBX 6 9 1 0
BITMAP
FC
FC
C0
F8
FC
CC
CC
FC
F8
ENDCHAR
STARTCHAR uni0414.c2sc
ENCODING -1
SWIDTH 615 0
DWIDTH 10 0
BBX 9 12 0 -3
BITMAP
3F00
3F00
3300
3300
3300
3300
7300
FF80
FF80
E180
E180
E180
ENDCHAR
STARTCHAR uni0416.c2sc
ENCODING -1
SWIDTH 702 0
DWIDTH 11 0
BBX 11 9 0 0
BITMAP
EEE0
6EC0
7F80
3F80
3F80
7FC0
6FC0
6EC0
EEE0
ENDCHAR
STARTCHAR uni0417.c2sc
ENCODING -1
SWIDTH 472 0
DWIDTH 8 0
BBX 6 9 1 0
BITMAP
78
FC
0C
38
3C
0C
CC
FC
78
ENDCHAR
STARTCHAR uni0418.c2sc
ENCODING -1
SWIDTH 528 0
DWIDTH 8 0
BBX 7 9 0 0
BITMAP
E6
EE
EE
FE
FE
F6
F6
E6
E6
ENDCHAR
STARTCHAR uni041A.c2sc
ENCODING -1
SWIDTH 487 0
DWIDTH 8 0
BBX 7 9 1 0
BITMAP
CC
DC
D8
F8
F8
D8
DC
DC
CE
ENDCHAR
STARTCHAR uni041B.c2sc
ENCODING -1
SWIDTH 530 0
DWIDTH 9 0
BBX 7 9 1 0
BITMAP
7E
7E
66
66
66
66
66
E6
C6
ENDCHAR
STARTCHAR uni0423.c2sc
ENCODING -1
SWIDTH 493 0
DWIDTH 8 0
BBX 8 9 0 0
BITMAP
E7
66
36
3C
3C
1C
18
38
30
ENDCHAR
STARTCHAR uni0426.c2sc
ENCODING -1
SWIDTH 616 0
DWIDTH 10 0
BBX 8 12 1 -3
BITMAP
C6
C6
C6
C6
C6
C6
C6
FF
FF
03
03
03
ENDCHAR
STARTCHAR uni0427.c2sc
ENCODING -1
SWIDTH 519 0
DWIDTH 8 0
BBX 7 9 0 0
BITMAP
E6
E6
E6
66
7E
3E
06
06
06
ENDCHAR
STARTCHAR uni0428.c2sc
ENCODING -1
SWIDTH 738 0
DWIDTH 12 0
BBX 10 9 1 0
BITMAP
CCC0
CCC0
CCC0
CCC0
CCC0
CCC0
CCC0
FFC0
FFC0
ENDCHAR
STARTCHAR uni0429.c2sc
ENCODING -1
SWIDTH 821 0
DWIDTH 13 0
BBX 12 12 1 -3
BITMAP
CCC0
CCC0
CCC0
CCC0
CCC0
CCC0
CCC0
FFF0
FFE0
0060
0060
0060
ENDCHAR
STARTCHAR uni042A.c2sc
ENCODING -1
SWIDTH 620 0
DWIDTH 10 0
BBX 9 9 0 0
BITMAP
F800
F800
1800
1F00
1F80
1980
1980
1F80
1F00
ENDCHAR
STARTCHAR uni042B.c2sc
ENCODING -1
SWIDTH 695 0
DWIDTH 11 0
BBX 9 9 1 0
BITMAP
C180
C180
C180
F980
FD80
CD80
CF80
FD80
F980
ENDCHAR
STARTCHAR uni042C.c2sc
ENCODING -1
SWIDTH 498 0
DWIDTH 8 0
BBX 7 9 1 0
BITMAP
C0
C0
C0
F8
FC
CC
CE
FC
F8
ENDCHAR
STARTCHAR uni042D.c2sc
ENCODING -1
SWIDTH 495 0
DWIDTH 8 0
BBX 7 9 0 0
BITMAP
3C
7E
66
9E
1E
06
E6
7E
3C
ENDCHAR
STARTCHAR uni042E.c2sc
ENCODING -1
SWIDTH 728 0
DWIDTH 12 0
BBX 10 9 1 0
BITMAP
C780
CFC0
DCC0
F8C0
F8C0
D8C0
DCC0
CFC0
C780
ENDCHAR
STARTCHAR uni042F.c2sc
ENCODING -1
SWIDTH 497 0
DWIDTH 8 0
BBX 7 9 0 0
BITMAP
3E
7E
66
66
3E
3E
36
76
E6
ENDCHAR
STARTCHAR uni0492.c2sc
ENCODING -1
SWIDTH 464 0
DWIDTH 7 0
BBX 7 9 0 0
BITMAP
7E
7E
60
60
F8
60
60
60
60
ENDCHAR
STARTCHAR uni0496.c2sc
ENCODING -1
SWIDTH 756 0
DWIDTH 12 0
BBX 12 12 0 -3
BITMAP
EEE0
6EC0
3FC0
3F80
3F80
7FC0
7EC0
6EF0
EEF0
0030
0030
0030
ENDCHAR
STARTCHAR uni049A.c2sc
ENCODING -1
SWIDTH 527 0
DWIDTH 8 0
BBX 8 12 0 -3
BITMAP
EE
EC
FC
F8
F8
FC
EC
EF
EF
03
03
03
ENDCHAR
STARTCHAR uni049C.c2sc
ENCODING -1
SWIDTH 568 0
DWIDTH 9 0
BBX 8 9 1 0
BITMAP
C7
FE
FC
FC
FC
FC
FE
C6
C7
ENDCHAR
STARTCHAR uni04A0.c2sc
ENCODING -1
SWIDTH 625 0
DWIDTH 10 0
BBX 10 9 0 0
BITMAP
F980
FB80
1B00
1F00
1F00
1B00
1B80
1980
19C0
ENDCHAR
STARTCHAR uni04A8.c2sc
ENCODING -1
SWIDTH 672 0
DWIDTH 11 0
BBX 9 9 1 0
BITMAP
6700
EF80
DD80
D980
D980
D980
EF80
7F80
3F80
ENDCHAR
STARTCHAR uni04B0.c2sc
ENCODING -1
SWIDTH 473 0
DWIDTH 8 0
BBX 8 9 0 0
BITMAP
E7
66
6C
3C
7C
18
18
18
18
ENDCHAR
STARTCHAR uni04B2.c2sc
ENCODING -1
SWIDTH 540 0
DWIDTH 9 0
BBX 8 12 0 -3
BITMAP
E7
6E
3C
3C
18
3C
3E
67
67
83
03
03
ENDCHAR
STARTCHAR uni04B4.c2sc
ENCODING -1
SWIDTH 744 0
DWIDTH 12 0
BBX 11 12 0 -3
BITMAP
FFC0
FFC0
19C0
19C0
19C0
19C0
19C0
1FE0
1FE0
0060
0060
0060
ENDCHAR
STARTCHAR uni04B8.c2sc
ENCODING -1
SWIDTH 519 0
DWIDTH 8 0
BBX 7 9 0 0
BITMAP
E6
E6
FE
FE
7E
3E
1E
1E
06
ENDCHAR
STARTCHAR uni04BA.c2sc
ENCODING -1
SWIDTH 519 0
DWIDTH 8 0
BBX 7 9 1 0
BITMAP
C0
C0
C0
F8
FC
CC
CE
CE
CE
ENDCHAR
STARTCHAR uni04BC.c2sc
ENCODING -1
SWIDTH 687 0
DWIDTH 11 0
BBX 10 9 0 0
BITMAP
0780
0FC0
DCC0
D8C0
7FC0
3FC0
1800
1F80
07C0
ENDCHAR
STARTCHAR uni04D8.c2sc
ENCODING -1
SWIDTH 531 0
DWIDTH 9 0
BBX 7 9 1 0
BITMAP
78
FC
0E
06
FE
FE
C6
FC
78
ENDCHAR
STARTCHAR uni04E0.c2sc
ENCODING -1
SWIDTH 473 0
DWIDTH 8 0
BBX 6 9 1 0
BITMAP
FC
FC
18
38
3C
0C
CC
FC
78
ENDCHAR
STARTCHAR uni04E8.c2sc
ENCODING -1
SWIDTH 521 0
DWIDTH 8 0
BBX 8 9 0 0
BITMAP
3C
7E
66
FF
FF
E7
66
7E
3C
ENDCHAR
STARTCHAR lira.c2sc
ENCODING -1
SWIDTH 515 0
DWIDTH 8 0
BBX 7 9 0 0
BITMAP
1C
3E
70
FC
70
FC
60
7E
7E
ENDCHAR
STARTCHAR Euro.c2sc
ENCODING -1
SWIDTH 449 0
DWIDTH 7 0
BBX 5 9 1 0
BITMAP
38
78
60
F8
E0
F8
60
78
38
ENDCHAR
STARTCHAR uni2116.c2sc
ENCODING -1
SWIDTH 896 0
DWIDTH 14 0
BBX 12 9 1 0
BITMAP
CE60
CE90
EE90
EE90
FE90
DE60
DE00
CEF0
CE00
ENDCHAR
STARTCHAR uni20BD.c2sc
ENCODING -1
SWIDTH 577 0
DWIDTH 9 0
BBX 9 9 0 0
BITMAP
3E00
3F00
3380
3300
FE00
3000
FC00
3000
3000
ENDCHAR
STARTCHAR three.dnom
ENCODING -1
SWIDTH 335 0
DWIDTH 5 0
BBX 5 6 0 0
BITMAP
70
D8
30
18
D8
70
ENDCHAR
STARTCHAR four.dnom
ENCODING -1
SWIDTH 335 0
DWIDTH 5 0
BBX 5 6 0 0
BITMAP
30
30
70
50
F8
10
ENDCHAR
STARTCHAR five.dnom
ENCODING -1
SWIDTH 335 0
DWIDTH 5 0
BBX 5 6 0 0
BITMAP
70
40
70
98
D0
70
ENDCHAR
STARTCHAR six.dnom
ENCODING -1
SWIDTH 335 0
DWIDTH 5 0
BBX 5 6 0 0
BITMAP
30
40
F0
D8
D8
70
ENDCHAR
STARTCHAR seven.dnom
ENCODING -1
SWIDTH 335 0
DWIDTH 5 0
BBX 5 6 0 0
BITMAP
F8
10
10
30
20
60
ENDCHAR
STARTCHAR eight.dnom
ENCODING -1
SWIDTH 335 0
DWIDTH 5 0
BBX 5 6 0 0
BITMAP
70
50
70
D0
D8
70
ENDCHAR
STARTCHAR nine.dnom
ENCODING -1
SWIDTH 335 0
DWIDTH 5 0
BBX 5 6 0 0
BITMAP
70
D0
D8
78
10
60
ENDCHAR
STARTCHAR glyph550
ENCODING -1
SWIDTH 434 0
DWIDTH 7 0
BBX 5 1 1 6
BITMAP
F8
ENDCHAR
STARTCHAR glyph551
ENCODING -1
SWIDTH 300 0
DWIDTH 5 0
BBX 4 5 1 9
BITMAP
30
60
E0
A0
E0
ENDCHAR
STARTCHAR E.c2sc
ENCODING -1
SWIDTH 422 0
DWIDTH 7 0
BBX 5 9 1 0
BITMAP
F8
F8
C0
F8
F8
C0
C0
F8
F8
ENDCHAR
STARTCHAR g.ss01
ENCODING -1
SWIDTH 464 0
DWIDTH 7 0
BBX 7 12 0 -3
BITMAP
7E
FC
CE
CC
FC
78
40
7C
7E
C6
FC
78
ENDCHAR
STARTCHAR alpha.ss02
ENCODING -1
SWIDTH 512 0
DWIDTH 8 0
BBX 7 9 0 0
BITMAP
3E
7E
66
66
E6
66
66
7E
3E
ENDCHAR
STARTCHAR R.ss03
ENCODING -1
SWIDTH 567 0
DWIDTH 9 0
BBX 8 12 1 0
BITMAP
FC
FE
C6
C6
C6
FC
FC
C6
C6
C6
C6
C7
ENDCHAR
STARTCHAR K.ss04
ENCODING -1
SWIDTH 563 0
DWIDTH 9 0
BBX 8 12 1 0
BITMAP
C7
CE
CE
CC
DC
F8
F8
DC
CC
CE
C6
C7
ENDCHAR
STARTCHAR k.ss04
ENCODING -1
SWIDTH 479 0
DWIDTH 8 0
BBX 7 12 1 0
BITMAP
C0
C0
C0
CC
D8
D8
F0
F8
D8
D8
DC
CE
ENDCHAR
STARTCHAR K.ss05
ENCODING -1
SWIDTH 566 0
DWIDTH 9 0
BBX 8 12 1 0
BITMAP
C7
CE
CC
DC
D8
F8
F8
D8
DC
CC
CE
C7
ENDCHAR
STARTCHAR k.ss05
ENCODING -1
SWIDTH 479 0
DWIDTH 8 0
BBX 7 12 1 0
BITMAP
C0
C0
C0
CE
DC
D8
F0
F0
F8
D8
DC
CE
ENDCHAR
STARTCHAR D.c2sc
ENCODING -1
SWIDTH 486 0
DWIDTH 8 0
BBX 6 9 1 0
BITMAP
F0
FC
CC
CC
CC
CC
CC
FC
F0
ENDCHAR
STARTCHAR C.c2sc
ENCODING -1
SWIDTH 494 0
DWIDTH 8 0
BBX 7 9 1 0
BITMAP
78
FC
CC
C2
C0
C0
CE
FC
78
ENDCHAR
STARTCHAR B.c2sc
ENCODING -1
SWIDTH 489 0
DWIDTH 8 0
BBX 6 9 1 0
BITMAP
F8
FC
CC
FC
FC
CC
CC
FC
F8
ENDCHAR
STARTCHAR A.c2sc
ENCODING -1
SWIDTH 521 0
DWIDTH 8 0
BBX 8 9 0 0
BITMAP
18
1C
3C
3C
36
66
7E
7F
E3
ENDCHAR
STARTCHAR glyph564
ENCODING -1
SWIDTH 238 0
DWIDTH 4 0
BBX 2 4 1 8
BITMAP
40
C0
C0
C0
ENDCHAR
STARTCHAR glyph565
ENCODING -1
SWIDTH 398 0
DWIDTH 6 0
BBX 5 4 1 10
BITMAP
40
60
98
70
ENDCHAR
STARTCHAR glyph566
ENCODING -1
SWIDTH 0 0
DWIDTH 0 0
BBX 4 5 -6 10
BITMAP
30
20
00
50
B0
ENDCHAR
STARTCHAR glyph567
ENCODING -1
SWIDTH 466 0
DWIDTH 7 0
BBX 7 3 1 10
BITMAP
06
74
D8
ENDCHAR
STARTCHAR glyph568
ENCODING -1
SWIDTH 463 0
DWIDTH 7 0
BBX 7 3 -1 10
BITMAP
C0
7C
36
ENDCHAR
STARTCHAR glyph569
ENCODING -1
SWIDTH 442 0
DWIDTH 7 0
BBX 6 4 1 10
BITMAP
0C
04
78
D8
ENDCHAR
STARTCHAR glyph570
ENCODING -1
SWIDTH 462 0
DWIDTH 7 0
BBX 5 6 1 10
BITMAP
70
50
00
30
50
D8
ENDCHAR
STARTCHAR uni0490.c2sc
ENCODING -1
SWIDTH 416 0
DWIDTH 7 0
BBX 6 12 1 0
BITMAP
1C
1C
1C
FC
FC
C0
C0
C0
C0
C0
C0
C0
ENDCHAR
STARTCHAR glyph572
ENCODING -1
SWIDTH 403 0
DWIDTH 6 0
BBX 5 4 1 10
BITMAP
30
20
98
70
ENDCHAR
STARTCHAR glyph573
ENCODING -1
SWIDTH 403 0
DWIDTH 6 0
BBX 5 5 1 10
BITMAP
60
30
60
98
70
ENDCHAR
STARTCHAR zero.numr
ENCODING -1
SWIDTH 335 0
DWIDTH 5 0
BBX 5 6 0 6
BITMAP
70
50
D8
D8
50
70
ENDCHAR
STARTCHAR four.numr
ENCODING -1
SWIDTH 335 0
DWIDTH 5 0
BBX 5 6 0 6
BITMAP
30
30
70
50
F8
10
ENDCHAR
STARTCHAR five.numr
ENCODING -1
SWIDTH 335 0
DWIDTH 5 0
BBX 5 6 0 6
BITMAP
70
40
70
98
D0
70
ENDCHAR
STARTCHAR six.numr
ENCODING -1
SWIDTH 335 0
DWIDTH 5 0
BBX 5 6 0 6
BITMAP
30
40
F0
D8
D8
70
ENDCHAR
STARTCHAR seven.numr
ENCODING -1
SWIDTH 335 0
DWIDTH 5 0
BBX 5 6 0 6
BITMAP
F8
10
10
30
20
60
ENDCHAR
STARTCHAR eight.numr
ENCODING -1
SWIDTH 335 0
DWIDTH 5 0
BBX 5 6 0 6
BITMAP
70
50
70
D0
D8
70
ENDCHAR
STARTCHAR nine.numr
ENCODING -1
SWIDTH 335 0
DWIDTH 5 0
BBX 5 6 0 6
BITMAP
70
D0
D8
78
10
60
ENDCHAR
STARTCHAR C.ss06
ENCODING -1
SWIDTH 591 0
DWIDTH 9 0
BBX 9 12 0 0
BITMAP
1E00
3F00
7300
6380
6000
E000
E000
6000
6380
7300
3F00
1E00
ENDCHAR
STARTCHAR G.ss06
ENCODING -1
SWIDTH 604 0
DWIDTH 10 0
BBX 8 12 1 0
BITMAP
3C
7E
67
E3
C0
C0
CF
CF
E3
63
7F
3E
ENDCHAR
STARTCHAR D.ss06
ENCODING -1
SWIDTH 592 0
DWIDTH 9 0
BBX 8 12 1 0
BITMAP
F8
FC
CE
C6
C6
C7
C7
C6
C6
CE
FC
F8
ENDCHAR
STARTCHAR O.ss06
ENCODING -1
SWIDTH 637 0
DWIDTH 10 0
BBX 8 12 1 0
BITMAP
3C
7E
E7
C3
C3
C3
C3
C3
C3
E7
7E
3C
ENDCHAR
STARTCHAR Q.ss06
ENCODING -1
SWIDTH 638 0
DWIDTH 10 0
BBX 8 14 1 -2
BITMAP
3C
7E
E7
C3
C3
C3
C3
C3
C3
E7
7E
3E
03
02
ENDCHAR
STARTCHAR one.oldstyle.pnum
ENCODING -1
SWIDTH 495 0
DWIDTH 8 0
BBX 5 9 1 0
BITMAP
18
78
F8
B8
38
38
38
38
38
ENDCHAR
STARTCHAR two.oldstyle.pnum
ENCODING -1
SWIDTH 492 0
DWIDTH 8 0
BBX 6 9 1 0
BITMAP
78
FC
CC
0C
18
30
E0
FC
FC
ENDCHAR
STARTCHAR three.oldstyle.pnum
ENCODING -1
SWIDTH 474 0
DWIDTH 8 0
BBX 7 12 0 -3
BITMAP
7E
7E
0C
18
3C
3E
0E
06
06
8E
7C
F8
ENDCHAR
STARTCHAR four.oldstyle.pnum
ENCODING -1
SWIDTH 507 0
DWIDTH 8 0
BBX 8 11 0 -2
BITMAP
0E
0E
1E
1E
3E
6E
6E
FF
FF
0E
0E
ENDCHAR
STARTCHAR five.oldstyle.pnum
ENCODING -1
SWIDTH 483 0
DWIDTH 8 0
BBX 6 12 1 -3
BITMAP
7C
7C
C0
C0
F8
FC
CC
0C
0C
8C
FC
78
ENDCHAR
STARTCHAR seven.oldstyle.pnum
ENCODING -1
SWIDTH 458 0
DWIDTH 7 0
BBX 6 11 1 -2
BITMAP
FC
FC
0C
1C
18
18
30
30
70
60
E0
ENDCHAR
STARTCHAR glyph592
ENCODING -1
SWIDTH 398 0
DWIDTH 6 0
BBX 5 5 1 10
BITMAP
D0
B0
00
98
F0
ENDCHAR
STARTCHAR glyph593
ENCODING -1
SWIDTH 219 0
DWIDTH 4 0
BBX 2 4 1 -2
BITMAP
C0
C0
C0
C0
ENDCHAR
STARTCHAR OE.c2sc
ENCODING -1
SWIDTH 703 0
DWIDTH 11 0
BBX 11 9 0 0
BITMAP
3FE0
7FE0
6600
E7C0
E7C0
E600
6600
7FE0
3FE0
ENDCHAR
STARTCHAR nine.oldstyle.pnum
ENCODING -1
SWIDTH 511 0
DWIDTH 8 0
BBX 7 12 1 -3
BITMAP
78
FC
CC
CC
CE
CE
FE
7C
0C
0C
78
70
ENDCHAR
STARTCHAR glyph596
ENCODING -1
SWIDTH 249 0
DWIDTH 4 0
BBX 3 5 0 -3
BITMAP
60
60
60
E0
C0
ENDCHAR
STARTCHAR three.oldstyle
ENCODING -1
SWIDTH 506 0
DWIDTH 8 0
BBX 6 12 1 -3
BITMAP
FC
FC
18
30
38
3C
0C
0C
0C
8C
FC
F0
ENDCHAR
STARTCHAR five.oldstyle
ENCODING -1
SWIDTH 506 0
DWIDTH 8 0
BBX 6 12 1 -3
BITMAP
7C
FC
C0
C0
F8
FC
CC
0C
0C
8C
FC
78
ENDCHAR
STARTCHAR four.oldstyle
ENCODING -1
SWIDTH 506 0
DWIDTH 8 0
BBX 7 11 1 -2
BITMAP
1C
1C
3C
3C
7C
5C
DC
FE
FE
1C
1C
ENDCHAR
STARTCHAR two.oldstyle
ENCODING -1
SWIDTH 506 0
DWIDTH 8 0
BBX 6 9 1 0
BITMAP
78
FC
CC
0C
18
30
E0
FC
FC
ENDCHAR
STARTCHAR seven.oldstyle
ENCODING -1
SWIDTH 506 0
DWIDTH 8 0
BBX 6 11 1 -2
BITMAP
FC
FC
0C
1C
18
18
30
30
30
60
60
ENDCHAR
STARTCHAR zero.oldstyle
ENCODING -1
SWIDTH 506 0
DWIDTH 8 0
BBX 7 9 0 0
BITMAP
3C
7E
66
E6
E6
E6
66
7E
3C
ENDCHAR
STARTCHAR six.oldstyle
ENCODING -1
SWIDTH 506 0
DWIDTH 8 0
BBX 6 12 1 0
BITMAP
38
78
60
C0
F8
FC
CC
CC
CC
CC
FC
78
ENDCHAR
STARTCHAR nine.oldstyle
ENCODING -1
SWIDTH 506 0
DWIDTH 8 0
BBX 6 12 1 -3
BITMAP
78
FC
CC
CC
CC
CC
FC
7C
0C
1C
78
70
ENDCHAR
STARTCHAR eight.oldstyle
ENCODING -1
SWIDTH 506 0
DWIDTH 8 0
BBX 6 12 1 0
BITMAP
78
FC
CC
CC
CC
78
78
CC
CC
CC
FC
78
ENDCHAR
STARTCHAR one.oldstyle
ENCODING -1
SWIDTH 506 0
DWIDTH 8 0
BBX 5 9 1 0
BITMAP
08
38
F8
D8
18
18
18
18
18
ENDCHAR
STARTCHAR glyph607
ENCODING -1
SWIDTH 267 0
DWIDTH 4 0
BBX 3 12 0 -3
BITMAP
60
60
60
60
60
60
60
60
60
60
E0
C0
ENDCHAR
STARTCHAR glyph608
ENCODING -1
SWIDTH 269 0
DWIDTH 4 0
BBX 3 12 0 -3
BITMAP
60
60
60
60
60
60
60
60
60
60
E0
C0
ENDCHAR
STARTCHAR glyph609
ENCODING -1
SWIDTH 262 0
DWIDTH 4 0
BBX 2 9 1 0
BITMAP
C0
C0
C0
C0
C0
C0
C0
C0
C0
ENDCHAR
STARTCHAR glyph610
ENCODING -1
SWIDTH 262 0
DWIDTH 4 0
BBX 3 12 0 -3
BITMAP
60
60
60
60
60
60
60
60
60
60
C0
60
ENDCHAR
STARTCHAR glyph611
ENCODING -1
SWIDTH 262 0
DWIDTH 4 0
BBX 2 9 1 0
BITMAP
C0
C0
C0
C0
C0
C0
C0
C0
C0
ENDCHAR
STARTCHAR germandbls.sc
ENCODING -1
SWIDTH 489 0
DWIDTH 8 0
BBX 6 9 1 0
BITMAP
70
FC
D8
D8
FC
CC
CC
DC
F8
ENDCHAR
STARTCHAR zero.oldstyle.pnum
ENCODING -1
SWIDTH 522 0
DWIDTH 8 0
BBX 8 9 0 0
BITMAP
3C
7E
66
E6
E7
E6
66
7E
3C
ENDCHAR
STARTCHAR seven.pnum
ENCODING -1
SWIDTH 473 0
DWIDTH 8 0
BBX 6 12 1 0
BITMAP
FC
FC
0C
18
18
18
30
30
30
60
60
E0
ENDCHAR
STARTCHAR b.ss06
ENCODING -1
SWIDTH 502 0
DWIDTH 8 0
BBX 6 12 1 0
BITMAP
C0
C0
C0
F8
FC
CC
CC
CC
CC
CC
FC
F8
ENDCHAR
STARTCHAR c.ss06
ENCODING -1
SWIDTH 471 0
DWIDTH 8 0
BBX 6 9 1 0
BITMAP
78
7C
CC
C0
C0
C0
CC
7C
78
ENDCHAR
STARTCHAR d.ss06
ENCODING -1
SWIDTH 506 0
DWIDTH 8 0
BBX 7 12 0 0
BITMAP
06
06
06
3E
7E
66
66
E6
66
66
7E
3E
ENDCHAR
STARTCHAR g.ss06
ENCODING -1
SWIDTH 504 0
DWIDTH 8 0
BBX 6 12 1 -3
BITMAP
7C
FC
CC
CC
CC
CC
CC
FC
7C
0C
7C
78
ENDCHAR
STARTCHAR o.ss06
ENCODING -1
SWIDTH 507 0
DWIDTH 8 0
BBX 8 9 0 0
BITMAP
3C
7E
66
66
E7
66
66
7E
3C
ENDCHAR
STARTCHAR p.ss06
ENCODING -1
SWIDTH 505 0
DWIDTH 8 0
BBX 6 12 1 -3
BITMAP
F8
FC
CC
CC
CC
CC
CC
FC
F8
C0
C0
C0
ENDCHAR
STARTCHAR q.ss06
ENCODING -1
SWIDTH 507 0
DWIDTH 8 0
BBX 7 12 0 -3
BITMAP
3E
7E
66
66
E6
66
66
7E
3E
06
06
06
ENDCHAR
STARTCHAR e.ss07
ENCODING -1
SWIDTH 479 0
DWIDTH 8 0
BBX 6 9 1 0
BITMAP
78
FC
CC
CC
FC
FC
C4
7C
3C
ENDCHAR
STARTCHAR g.ss07
ENCODING -1
SWIDTH 502 0
DWIDTH 8 0
BBX 7 12 0 -3
BITMAP
3E
7E
66
66
E6
66
66
7E
3E
06
3C
78
ENDCHAR
STARTCHAR one.pnum
ENCODING -1
SWIDTH 428 0
DWIDTH 7 0
BBX 4 12 1 0
BITMAP
10
70
F0
B0
30
30
30
30
30
30
30
30
ENDCHAR
STARTCHAR ampersand.c2sc
ENCODING -1
SWIDTH 574 0
DWIDTH 9 0
BBX 7 9 1 0
BITMAP
70
F8
D8
78
76
FE
DE
FC
7E
ENDCHAR
STARTCHAR Lslash.c2sc
ENCODING -1
SWIDTH 425 0
DWIDTH 7 0
BBX 6 9 0 0
BITMAP
60
60
78
E0
60
60
60
7C
7C
ENDCHAR
STARTCHAR AE.c2sc
ENCODING -1
SWIDTH 687 0
DWIDTH 11 0
BBX 10 9 0 0
BITMAP
1FC0
1FC0
3600
37C0
37C0
7E00
7E00
E7C0
C7C0
ENDCHAR
STARTCHAR Thorn.c2sc
ENCODING -1
SWIDTH 454 0
DWIDTH 7 0
BBX 6 9 1 0
BITMAP
C0
F0
F8
DC
DC
F8
F0
C0
C0
ENDCHAR
STARTCHAR Oslash.c2sc
ENCODING -1
SWIDTH 521 0
DWIDTH 8 0
BBX 8 9 0 0
BITMAP
3F
7E
67
6B
6B
73
77
7E
FC
ENDCHAR
STARTCHAR Hbar.c2sc
ENCODING -1
SWIDTH 572 0
DWIDTH 9 0
BBX 9 9 0 0
BITMAP
6300
FF80
6300
6300
7F00
7F00
6300
6300
6300
ENDCHAR
STARTCHAR Eng.c2sc
ENCODING -1
SWIDTH 526 0
DWIDTH 8 0
BBX 7 12 1 -3
BITMAP
CE
EE
EE
FE
FE
DE
DE
CE
CE
0E
1C
1C
ENDCHAR
STARTCHAR Dcroat.c2sc
ENCODING -1
SWIDTH 486 0
DWIDTH 8 0
BBX 8 9 -1 0
BITMAP
3C
3F
33
FB
33
33
33
3F
3C
ENDCHAR
STARTCHAR Eth.c2sc
ENCODING -1
SWIDTH 486 0
DWIDTH 8 0
BBX 8 9 -1 0
BITMAP
3C
3F
33
FB
33
33
33
3F
3C
ENDCHAR
STARTCHAR Tbar.c2sc
ENCODING -1
SWIDTH 477 0
DWIDTH 8 0
BBX 7 9 0 0
BITMAP
FE
FE
18
7C
18
18
18
18
18
ENDCHAR
STARTCHAR Agrave.c2sc
ENCODING -1
SWIDTH 521 0
DWIDTH 8 0
BBX 8 12 0 0
BITMAP
70
18
00
18
1C
3C
3C
36
66
7E
7F
E3
ENDCHAR
STARTCHAR Aacute.c2sc
ENCODING -1
SWIDTH 521 0
DWIDTH 8 0
BBX 8 12 0 0
BITMAP
0E
18
00
18
1C
3C
3C
36
66
7E
7F
E3
ENDCHAR
STARTCHAR Acircumflex.c2sc
ENCODING -1
SWIDTH 521 0
DWIDTH 8 0
BBX 8 12 0 0
BITMAP
1C
36
00
18
1C
3C
3C
36
66
7E
7F
E3
ENDCHAR
STARTCHAR Atilde.c2sc
ENCODING -1
SWIDTH 521 0
DWIDTH 8 0
BBX 8 12 0 0
BITMAP
36
2C
00
18
1C
3C
3C
36
66
7E
7F
E3
ENDCHAR
STARTCHAR Adieresis.c2sc
ENCODING -1
SWIDTH 521 0
DWIDTH 8 0
BBX 8 12 0 0
BITMAP
66
66
00
18
1C
3C
3C
36
66
7E
7F
E3
ENDCHAR
STARTCHAR Aring.c2sc
ENCODING -1
SWIDTH 521 0
DWIDTH 8 0
BBX 8 13 0 0
BITMAP
18
24
18
00
18
1C
3C
3C
36
66
7E
7F
E3
ENDCHAR
STARTCHAR Aringacute.c2sc
ENCODING -1
SWIDTH 521 0
DWIDTH 8 0
BBX 8 14 0 0
BITMAP
06
0C
18
14
18
18
1C
3C
3C
36
66
7E
7F
E3
ENDCHAR
STARTCHAR Ccedilla.c2sc
ENCODING -1
SWIDTH 494 0
DWIDTH 8 0
BBX 7 13 1 -4
BITMAP
78
FC
CC
C2
C0
C0
CE
FC
78
30
38
18
30
ENDCHAR
STARTCHAR Egrave.c2sc
ENCODING -1
SWIDTH 422 0
DWIDTH 7 0
BBX 5 12 1 0
BITMAP
E0
30
00
F8
F8
C0
F8
F8
C0
C0
F8
F8
ENDCHAR
STARTCHAR Eacute.c2sc
ENCODING -1
SWIDTH 422 0
DWIDTH 7 0
BBX 6 12 1 0
BITMAP
1C
30
00
F8
F8
C0
F8
F8
C0
C0
F8
F8
ENDCHAR
STARTCHAR Ecircumflex.c2sc
ENCODING -1
SWIDTH 422 0
DWIDTH 7 0
BBX 6 12 1 0
BITMAP
70
DC
00
F8
F8
C0
F8
F8
C0
C0
F8
F8
ENDCHAR
STARTCHAR Edieresis.c2sc
ENCODING -1
SWIDTH 422 0
DWIDTH 7 0
BBX 6 12 1 0
BITMAP
CC
CC
00
F8
F8
C0
F8
F8
C0
C0
F8
F8
ENDCHAR
STARTCHAR Igrave.c2sc
ENCODING -1
SWIDTH 241 0
DWIDTH 4 0
BBX 4 12 -1 0
BITMAP
E0
30
00
30
30
30
30
30
30
30
30
30
ENDCHAR
STARTCHAR Iacute.c2sc
ENCODING -1
SWIDTH 241 0
DWIDTH 4 0
BBX 4 12 1 0
BITMAP
70
C0
00
C0
C0
C0
C0
C0
C0
C0
C0
C0
ENDCHAR
STARTCHAR Icircumflex.c2sc
ENCODING -1
SWIDTH 241 0
DWIDTH 4 0
BBX 6 12 -1 0
BITMAP
30
DC
00
30
30
30
30
30
30
30
30
30
ENDCHAR
STARTCHAR Idieresis.c2sc
ENCODING -1
SWIDTH 241 0
DWIDTH 4 0
BBX 6 12 -1 0
BITMAP
CC
CC
00
30
30
30
30
30
30
30
30
30
ENDCHAR
STARTCHAR Ntilde.c2sc
ENCODING -1
SWIDTH 526 0
DWIDTH 8 0
BBX 7 12 1 0
BITMAP
6C
58
00
CE
EE
EE
FE
FE
DE
DE
CE
CE
ENDCHAR
STARTCHAR Ograve.c2sc
ENCODING -1
SWIDTH 521 0
DWIDTH 8 0
BBX 8 12 0 0
BITMAP
70
18
00
3C
7E
66
E7
E7
E7
66
7E
3C
ENDCHAR
STARTCHAR Oacute.c2sc
ENCODING -1
SWIDTH 521 0
DWIDTH 8 0
BBX 8 12 0 0
BITMAP
0E
18
00
3C
7E
66
E7
E7
E7
66
7E
3C
ENDCHAR
STARTCHAR Ocircumflex.c2sc
ENCODING -1
SWIDTH 521 0
DWIDTH 8 0
BBX 8 12 0 0
BITMAP
1C
76
00
3C
7E
66
E7
E7
E7
66
7E
3C
ENDCHAR
STARTCHAR Otilde.c2sc
ENCODING -1
SWIDTH 521 0
DWIDTH 8 0
BBX 8 12 0 0
BITMAP
36
2C
00
3C
7E
66
E7
E7
E7
66
7E
3C
ENDCHAR
STARTCHAR Odieresis.c2sc
ENCODING -1
SWIDTH 521 0
DWIDTH 8 0
BBX 8 12 0 0
BITMAP
66
66
00
3C
7E
66
E7
E7
E7
66
7E
3C
ENDCHAR
STARTCHAR Ugrave.c2sc
ENCODING -1
SWIDTH 498 0
DWIDTH 8 0
BBX 6 12 1 0
BITMAP
E0
30
00
CC
CC
CC
CC
CC
CC
CC
FC
78
ENDCHAR
STARTCHAR Uacute.c2sc
ENCODING -1
SWIDTH 498 0
DWIDTH 8 0
BBX 6 12 1 0
BITMAP
1C
30
00
CC
CC
CC
CC
CC
CC
CC
FC
78
ENDCHAR
STARTCHAR Ucircumflex.c2sc
ENCODING -1
SWIDTH 498 0
DWIDTH 8 0
BBX 6 12 1 0
BITMAP
30
DC
00
CC
CC
CC
CC
CC
CC
CC
FC
78
ENDCHAR
STARTCHAR Udieresis.c2sc
ENCODING -1
SWIDTH 498 0
DWIDTH 8 0
BBX 6 12 1 0
BITMAP
CC
CC
00
CC
CC
CC
CC
CC
CC
CC
FC
78
ENDCHAR
STARTCHAR Yacute.c2sc
ENCODING -1
SWIDTH 475 0
DWIDTH 8 0
BBX 8 12 0 0
BITMAP
0E
18
00
E7
66
6C
3C
38
18
18
18
18
ENDCHAR
STARTCHAR Amacron.c2sc
ENCODING -1
SWIDTH 521 0
DWIDTH 8 0
BBX 8 11 0 0
BITMAP
3C
00
18
1C
3C
3C
36
66
7E
7F
E3
ENDCHAR
STARTCHAR Abreve.c2sc
ENCODING -1
SWIDTH 521 0
DWIDTH 8 0
BBX 8 12 0 0
BITMAP
66
3C
00
18
1C
3C
3C
36
66
7E
7F
E3
ENDCHAR
STARTCHAR Aogonek.c2sc
ENCODING -1
SWIDTH 521 0
DWIDTH 8 0
BBX 8 12 0 -3
BITMAP
18
3C
3C
3C
7E
66
7E
FF
C3
06
06
07
ENDCHAR
STARTCHAR Cacute.c2sc
ENCODING -1
SWIDTH 494 0
DWIDTH 8 0
BBX 7 12 1 0
BITMAP
1C
30
00
78
FC
CC
C2
C0
C0
CE
FC
78
ENDCHAR
STARTCHAR Ccircumflex.c2sc
ENCODING -1
SWIDTH 494 0
DWIDTH 8 0
BBX 7 12 1 0
BITMAP
30
EC
00
78
FC
CC
C2
C0
C0
CE
FC
78
ENDCHAR
STARTCHAR Cdotaccent.c2sc
ENCODING -1
SWIDTH 494 0
DWIDTH 8 0
BBX 7 12 1 0
BITMAP
30
30
00
78
FC
CC
C2
C0
C0
CE
FC
78
ENDCHAR
STARTCHAR Ccaron.c2sc
ENCODING -1
SWIDTH 494 0
DWIDTH 8 0
BBX 7 12 1 0
BITMAP
EC
30
00
78
FC
CC
C2
C0
C0
CE
FC
78
ENDCHAR
STARTCHAR Dcaron.c2sc
ENCODING -1
SWIDTH 486 0
DWIDTH 8 0
BBX 7 12 0 0
BITMAP
DC
30
00
78
7E
66
66
66
66
66
7E
78
ENDCHAR
STARTCHAR Emacron.c2sc
ENCODING -1
SWIDTH 422 0
DWIDTH 7 0
BBX 5 11 1 0
BITMAP
F8
00
F8
F8
C0
F8
F8
C0
C0
F8
F8
ENDCHAR
STARTCHAR Ebreve.c2sc
ENCODING -1
SWIDTH 422 0
DWIDTH 7 0
BBX 6 12 1 0
BITMAP
CC
78
00
F8
F8
C0
F8
F8
C0
C0
F8
F8
ENDCHAR
STARTCHAR Edotaccent.c2sc
ENCODING -1
SWIDTH 422 0
DWIDTH 7 0
BBX 5 12 1 0
BITMAP
30
30
00
F8
F8
C0
F8
F8
C0
C0
F8
F8
ENDCHAR
STARTCHAR Eogonek.c2sc
ENCODING -1
SWIDTH 422 0
DWIDTH 7 0
BBX 6 12 1 -3
BITMAP
FC
FC
C0
F8
F8
C0
C0
FC
FC
30
30
38
ENDCHAR
STARTCHAR Ecaron.c2sc
ENCODING -1
SWIDTH 422 0
DWIDTH 7 0
BBX 6 12 1 0
BITMAP
DC
30
00
F8
F8
C0
F8
F8
C0
C0
F8
F8
ENDCHAR
STARTCHAR Gcircumflex.c2sc
ENCODING -1
SWIDTH 504 0
DWIDTH 8 0
BBX 8 12 0 0
BITMAP
1C
76
00
3C
7E
66
61
EF
6F
67
7F
3E
ENDCHAR
STARTCHAR Gbreve.c2sc
ENCODING -1
SWIDTH 504 0
DWIDTH 8 0
BBX 8 12 0 0
BITMAP
66
3C
00
3C
7E
66
61
EF
6F
67
7F
3E
ENDCHAR
STARTCHAR Gdotaccent.c2sc
ENCODING -1
SWIDTH 504 0
DWIDTH 8 0
BBX 8 12 0 0
BITMAP
18
18
00
3C
7E
66
61
EF
6F
67
7F
3E
ENDCHAR
STARTCHAR uni0122.c2sc
ENCODING -1
SWIDTH 504 0
DWIDTH 8 0
BBX 8 13 0 -4
BITMAP
3C
7E
66
61
EF
6F
67
7F
3E
00
08
18
10
ENDCHAR
STARTCHAR Hcircumflex.c2sc
ENCODING -1
SWIDTH 527 0
DWIDTH 8 0
BBX 7 12 1 0
BITMAP
38
EC
00
C6
C6
C6
FE
FE
C6
C6
C6
C6
ENDCHAR
STARTCHAR Itilde.c2sc
ENCODING -1
SWIDTH 241 0
DWIDTH 4 0
BBX 5 12 -1 0
BITMAP
68
D8
00
30
30
30
30
30
30
30
30
30
ENDCHAR
STARTCHAR Imacron.c2sc
ENCODING -1
SWIDTH 241 0
DWIDTH 4 0
BBX 5 11 -1 0
BITMAP
F8
00
30
30
30
30
30
30
30
30
30
ENDCHAR
STARTCHAR Ibreve.c2sc
ENCODING -1
SWIDTH 241 0
DWIDTH 4 0
BBX 6 12 -1 0
BITMAP
CC
78
00
30
30
30
30
30
30
30
30
30
ENDCHAR
STARTCHAR Iogonek.c2sc
ENCODING -1
SWIDTH 241 0
DWIDTH 4 0
BBX 2 12 1 -3
BITMAP
C0
C0
C0
C0
C0
C0
C0
C0
C0
C0
80
C0
ENDCHAR
STARTCHAR Idotaccent.c2sc
ENCODING -1
SWIDTH 241 0
DWIDTH 4 0
BBX 2 12 1 0
BITMAP
C0
C0
00
C0
C0
C0
C0
C0
C0
C0
C0
C0
ENDCHAR
STARTCHAR Jcircumflex.c2sc
ENCODING -1
SWIDTH 426 0
DWIDTH 7 0
BBX 8 12 0 0
BITMAP
0C
37
00
0C
0C
0C
0C
0C
0C
EC
7C
38
ENDCHAR
STARTCHAR uni0136.c2sc
ENCODING -1
SWIDTH 480 0
DWIDTH 8 0
BBX 7 13 1 -4
BITMAP
CE
DC
D8
F0
F0
F8
D8
DC
CC
02
20
20
60
ENDCHAR
STARTCHAR Lacute.c2sc
ENCODING -1
SWIDTH 414 0
DWIDTH 7 0
BBX 5 12 1 0
BITMAP
70
C0
00
C0
C0
C0
C0
C0
C0
C0
F8
F8
ENDCHAR
STARTCHAR uni013B.c2sc
ENCODING -1
SWIDTH 414 0
DWIDTH 7 0
BBX 5 13 1 -4
BITMAP
C0
C0
C0
C0
C0
C0
C0
F8
F8
00
20
20
60
ENDCHAR
STARTCHAR Lcaron.c2sc
ENCODING -1
SWIDTH 414 0
DWIDTH 7 0
BBX 5 9 1 0
BITMAP
D0
D0
F0
C0
C0
C0
C0
F8
F8
ENDCHAR
STARTCHAR Ldot.c2sc
ENCODING -1
SWIDTH 414 0
DWIDTH 7 0
BBX 5 9 1 0
BITMAP
C0
C0
D8
F8
C0
C0
C0
F8
F8
ENDCHAR
STARTCHAR Nacute.c2sc
ENCODING -1
SWIDTH 526 0
DWIDTH 8 0
BBX 7 12 1 0
BITMAP
1C
38
00
CE
EE
EE
FE
FE
DE
DE
CE
CE
ENDCHAR
STARTCHAR uni0145.c2sc
ENCODING -1
SWIDTH 526 0
DWIDTH 8 0
BBX 7 13 1 -4
BITMAP
CE
EE
EE
FE
FE
DE
DE
CE
CE
00
30
30
20
ENDCHAR
STARTCHAR Ncaron.c2sc
ENCODING -1
SWIDTH 526 0
DWIDTH 8 0
BBX 7 12 1 0
BITMAP
EC
30
00
CE
EE
EE
FE
FE
DE
DE
CE
CE
ENDCHAR
STARTCHAR Omacron.c2sc
ENCODING -1
SWIDTH 521 0
DWIDTH 8 0
BBX 8 11 0 0
BITMAP
3C
00
3C
7E
66
E7
E7
E7
66
7E
3C
ENDCHAR
STARTCHAR Obreve.c2sc
ENCODING -1
SWIDTH 521 0
DWIDTH 8 0
BBX 8 12 0 0
BITMAP
66
3C
00
3C
7E
66
E7
E7
E7
66
7E
3C
ENDCHAR
STARTCHAR Ohungarumlaut.c2sc
ENCODING -1
SWIDTH 521 0
DWIDTH 8 0
BBX 8 12 0 0
BITMAP
1F
3E
00
3C
7E
66
E7
E7
E7
66
7E
3C
ENDCHAR
STARTCHAR Racute.c2sc
ENCODING -1
SWIDTH 488 0
DWIDTH 8 0
BBX 7 12 1 0
BITMAP
38
70
00
F8
FC
CC
CC
FC
F8
D8
DC
CE
ENDCHAR
STARTCHAR uni0156.c2sc
ENCODING -1
SWIDTH 488 0
DWIDTH 8 0
BBX 7 13 1 -4
BITMAP
F8
FC
CC
CC
FC
F8
D8
DC
CC
02
20
20
60
ENDCHAR
STARTCHAR Rcaron.c2sc
ENCODING -1
SWIDTH 488 0
DWIDTH 8 0
BBX 7 12 1 0
BITMAP
D8
70
00
F8
FC
CC
CC
FC
F8
D8
DC
CE
ENDCHAR
STARTCHAR Sacute.c2sc
ENCODING -1
SWIDTH 474 0
DWIDTH 8 0
BBX 6 12 1 0
BITMAP
1C
30
00
78
FC
CC
E0
78
1C
CC
FC
78
ENDCHAR
STARTCHAR Scircumflex.c2sc
ENCODING -1
SWIDTH 474 0
DWIDTH 8 0
BBX 6 12 1 0
BITMAP
30
DC
00
78
FC
CC
E0
78
1C
CC
FC
78
ENDCHAR
STARTCHAR Scedilla.c2sc
ENCODING -1
SWIDTH 474 0
DWIDTH 8 0
BBX 6 13 1 -4
BITMAP
78
FC
CC
E0
78
1C
CC
FC
78
30
38
18
30
ENDCHAR
STARTCHAR Scaron.c2sc
ENCODING -1
SWIDTH 474 0
DWIDTH 8 0
BBX 6 12 1 0
BITMAP
FC
30
00
78
FC
CC
E0
78
1C
CC
FC
78
ENDCHAR
STARTCHAR uni021A.c2sc
ENCODING -1
SWIDTH 477 0
DWIDTH 8 0
BBX 7 13 0 -4
BITMAP
FE
FE
18
18
18
18
18
18
18
00
18
10
30
ENDCHAR
STARTCHAR Tcaron.c2sc
ENCODING -1
SWIDTH 477 0
DWIDTH 8 0
BBX 7 12 0 0
BITMAP
6E
18
00
FE
FE
18
18
18
18
18
18
18
ENDCHAR
STARTCHAR uni0162.c2sc
ENCODING -1
SWIDTH 477 0
DWIDTH 8 0
BBX 7 13 0 -4
BITMAP
FE
FE
18
18
18
18
18
18
18
18
18
0C
18
ENDCHAR
STARTCHAR Utilde.c2sc
ENCODING -1
SWIDTH 498 0
DWIDTH 8 0
BBX 6 12 1 0
BITMAP
68
D8
00
CC
CC
CC
CC
CC
CC
CC
FC
78
ENDCHAR
STARTCHAR Umacron.c2sc
ENCODING -1
SWIDTH 498 0
DWIDTH 8 0
BBX 6 11 1 0
BITMAP
F8
00
CC
CC
CC
CC
CC
CC
CC
FC
78
ENDCHAR
STARTCHAR Ubreve.c2sc
ENCODING -1
SWIDTH 498 0
DWIDTH 8 0
BBX 6 12 1 0
BITMAP
CC
78
00
CC
CC
CC
CC
CC
CC
CC
FC
78
ENDCHAR
STARTCHAR Uring.c2sc
ENCODING -1
SWIDTH 498 0
DWIDTH 8 0
BBX 6 13 1 0
BITMAP
70
48
70
00
CC
CC
CC
CC
CC
CC
CC
FC
78
ENDCHAR
STARTCHAR Uhungarumlaut.c2sc
ENCODING -1
SWIDTH 498 0
DWIDTH 8 0
BBX 7 12 1 0
BITMAP
3E
78
00
CC
CC
CC
CC
CC
CC
CC
FC
78
ENDCHAR
STARTCHAR Uogonek.c2sc
ENCODING -1
SWIDTH 498 0
DWIDTH 8 0
BBX 6 12 1 -3
BITMAP
CC
CC
CC
CC
CC
CC
CC
FC
78
30
30
18
ENDCHAR
STARTCHAR Wcircumflex.c2sc
ENCODING -1
SWIDTH 643 0
DWIDTH 10 0
BBX 10 12 0 0
BITMAP
0C00
3B00
0000
CCC0
EDC0
6D80
7F80
7F80
7F80
7F80
3300
3300
ENDCHAR
STARTCHAR Ycircumflex.c2sc
ENCODING -1
SWIDTH 475 0
DWIDTH 8 0
BBX 8 12 0 0
BITMAP
38
6C
00
E7
66
6C
3C
38
18
18
18
18
ENDCHAR
STARTCHAR Ydieresis.c2sc
ENCODING -1
SWIDTH 475 0
DWIDTH 8 0
BBX 8 12 0 0
BITMAP
66
66
00
E7
66
6C
3C
38
18
18
18
18
ENDCHAR
STARTCHAR Zacute.c2sc
ENCODING -1
SWIDTH 461 0
DWIDTH 7 0
BBX 7 12 0 0
BITMAP
0E
18
00
FE
FE
0C
1C
18
30
70
7E
7E
ENDCHAR
STARTCHAR Zdotaccent.c2sc
ENCODING -1
SWIDTH 461 0
DWIDTH 7 0
BBX 7 12 0 0
BITMAP
18
18
00
FE
FE
0C
1C
18
30
70
7E
7E
ENDCHAR
STARTCHAR Zcaron.c2sc
ENCODING -1
SWIDTH 461 0
DWIDTH 7 0
BBX 7 12 0 0
BITMAP
6E
18
00
FE
FE
0C
1C
18
30
70
7E
7E
ENDCHAR
STARTCHAR two.pnum
ENCODING -1
SWIDTH 505 0
DWIDTH 8 0
BBX 6 12 1 0
BITMAP
78
FC
CC
CC
0C
1C
18
30
70
E0
FC
FC
ENDCHAR
STARTCHAR three.pnum
ENCODING -1
SWIDTH 505 0
DWIDTH 8 0
BBX 7 12 0 0
BITMAP
3C
7E
66
06
1C
1C
06
06
06
E6
7E
3C
ENDCHAR
STARTCHAR four.pnum
ENCODING -1
SWIDTH 505 0
DWIDTH 8 0
BBX 8 12 0 0
BITMAP
0E
0E
1E
1E
3E
2E
6E
FF
7F
0E
0E
0E
ENDCHAR
STARTCHAR five.pnum
ENCODING -1
SWIDTH 505 0
DWIDTH 8 0
BBX 6 12 1 0
BITMAP
FC
FC
C0
C0
F8
FC
0C
0C
0C
CC
FC
78
ENDCHAR
STARTCHAR six.pnum
ENCODING -1
SWIDTH 515 0
DWIDTH 8 0
BBX 7 12 1 0
BITMAP
18
78
60
C0
F8
FC
CC
CE
CE
CC
7C
38
ENDCHAR
STARTCHAR eight.pnum
ENCODING -1
SWIDTH 525 0
DWIDTH 8 0
BBX 6 12 1 0
BITMAP
78
FC
CC
CC
CC
78
7C
CC
CC
CC
FC
78
ENDCHAR
STARTCHAR nine.pnum
ENCODING -1
SWIDTH 515 0
DWIDTH 8 0
BBX 6 12 1 0
BITMAP
78
F8
CC
CC
CC
CC
FC
7C
0C
18
78
70
ENDCHAR
STARTCHAR zero.pnum
ENCODING -1
SWIDTH 525 0
DWIDTH 8 0
BBX 6 12 1 0
BITMAP
78
7C
CC
CC
CC
CC
CC
CC
CC
CC
7C
78
ENDCHAR
STARTCHAR G_acutecomb.ccmp
ENCODING -1
SWIDTH 584 0
DWIDTH 9 0
BBX 7 15 1 0
BITMAP
0E
18
00
3C
FE
C6
C6
C0
C0
CE
CE
C6
E6
FE
3C
ENDCHAR
STARTCHAR g_acutecomb.ccmp
ENCODING -1
SWIDTH 502 0
DWIDTH 8 0
BBX 6 15 1 -3
BITMAP
1C
30
00
7C
FC
CC
CC
CC
CC
CC
FC
7C
0C
FC
78
ENDCHAR
STARTCHAR N_gravecomb.ccmp
ENCODING -1
SWIDTH 612 0
DWIDTH 10 0
BBX 8 15 1 0
BITMAP
70
18
00
E3
E3
E3
F3
D3
DB
DB
CF
CF
C7
C7
C7
ENDCHAR
STARTCHAR n_gravecomb.ccmp
ENCODING -1
SWIDTH 492 0
DWIDTH 8 0
BBX 6 12 1 0
BITMAP
E0
30
00
F8
FC
CC
CC
CC
CC
CC
CC
CC
ENDCHAR
STARTCHAR A_uni030F.ccmp
ENCODING -1
SWIDTH 597 0
DWIDTH 10 0
BBX 10 15 0 0
BITMAP
6C00
3E00
0000
0C00
0C00
1E00
1E00
1E00
3300
3300
3300
7F80
7F80
6180
E1C0
ENDCHAR
STARTCHAR a_uni030F.ccmp
ENCODING -1
SWIDTH 470 0
DWIDTH 8 0
BBX 7 12 0 0
BITMAP
F8
6C
00
3C
7E
66
06
3E
7E
66
7E
3E
ENDCHAR
STARTCHAR E_uni030F.ccmp
ENCODING -1
SWIDTH 490 0
DWIDTH 8 0
BBX 7 15 0 0
BITMAP
FC
3C
00
7E
7E
60
60
60
7E
7E
60
60
60
7E
7E
ENDCHAR
STARTCHAR e_uni030F.ccmp
ENCODING -1
SWIDTH 478 0
DWIDTH 8 0
BBX 7 12 0 0
BITMAP
F8
6C
00
3C
7E
66
66
7E
7E
64
7E
3C
ENDCHAR
STARTCHAR I_uni030F.ccmp
ENCODING -1
SWIDTH 270 0
DWIDTH 4 0
BBX 6 15 -2 0
BITMAP
F8
3C
00
18
18
18
18
18
18
18
18
18
18
18
18
ENDCHAR
STARTCHAR dotlessi_uni030F.ccmp
ENCODING -1
SWIDTH 262 0
DWIDTH 4 0
BBX 6 12 -2 0
BITMAP
F8
3C
00
18
18
18
18
18
18
18
18
18
ENDCHAR
STARTCHAR O_uni030F.ccmp
ENCODING -1
SWIDTH 603 0
DWIDTH 10 0
BBX 8 15 1 0
BITMAP
F8
7C
00
3C
7E
E7
C3
C3
C3
C3
C3
C3
E7
7E
3C
ENDCHAR
STARTCHAR o_uni030F.ccmp
ENCODING -1
SWIDTH 497 0
DWIDTH 8 0
BBX 7 12 0 0
BITMAP
F8
7C
00
3C
7E
66
66
66
66
66
7E
3C
ENDCHAR
STARTCHAR R_uni030F.ccmp
ENCODING -1
SWIDTH 553 0
DWIDTH 9 0
BBX 9 15 0 0
BITMAP
F800
3C00
0000
7E00
7F00
6300
6300
6300
6300
7F00
7E00
6600
6700
6700
6380
ENDCHAR
STARTCHAR r_uni030F.ccmp
ENCODING -1
SWIDTH 331 0
DWIDTH 5 0
BBX 6 12 -1 0
BITMAP
F8
7C
00
3C
3C
30
30
30
30
30
30
30
ENDCHAR
STARTCHAR U_uni030F.ccmp
ENCODING -1
SWIDTH 571 0
DWIDTH 9 0
BBX 7 15 1 0
BITMAP
F8
7C
00
C6
C6
C6
C6
C6
C6
C6
C6
C6
C6
FE
7C
ENDCHAR
STARTCHAR u_uni030F.ccmp
ENCODING -1
SWIDTH 492 0
DWIDTH 8 0
BBX 7 12 0 0
BITMAP
F8
7C
00
66
66
66
66
66
66
66
7E
3E
ENDCHAR
STARTCHAR Upsilon1_acutecomb.ccmp
ENCODING -1
SWIDTH 574 0
DWIDTH 9 0
BBX 12 13 -3 0
BITMAP
6000
4C30
CE70
0660
06C0
06C0
03C0
0380
0380
0180
0180
0180
0180
ENDCHAR
STARTCHAR B_dotbelowcomb.ccmp
ENCODING -1
SWIDTH 561 0
DWIDTH 9 0
BBX 7 15 1 -3
BITMAP
FC
FE
C6
C6
FC
FE
C6
C6
C6
C6
FE
FC
00
30
30
ENDCHAR
STARTCHAR b_dotbelowcomb.ccmp
ENCODING -1
SWIDTH 495 0
DWIDTH 8 0
BBX 6 15 1 -3
BITMAP
C0
C0
C0
F8
FC
CC
CC
CC
CC
CC
FC
F8
00
38
38
ENDCHAR
STARTCHAR D_dotbelowcomb.ccmp
ENCODING -1
SWIDTH 564 0
DWIDTH 9 0
BBX 7 15 1 -3
BITMAP
F8
FC
CE
C6
C6
C6
C6
C6
C6
CE
FC
F8
00
70
70
ENDCHAR
STARTCHAR d_dotbelowcomb.ccmp
ENCODING -1
SWIDTH 495 0
DWIDTH 8 0
BBX 6 15 1 -3
BITMAP
0C
0C
0C
7C
FC
CC
CC
CC
CC
CC
FC
7C
00
30
30
ENDCHAR
STARTCHAR D_uniF6C3.ccmp
ENCODING -1
SWIDTH 564 0
DWIDTH 9 0
BBX 7 16 1 -4
BITMAP
F8
FC
CE
C6
C6
C6
C6
C6
C6
CE
FC
F8
00
20
20
60
ENDCHAR
STARTCHAR d_uniF6C3.ccmp
ENCODING -1
SWIDTH 495 0
DWIDTH 8 0
BBX 6 16 1 -4
BITMAP
0C
0C
0C
7C
FC
CC
CC
CC
CC
CC
FC
7C
00
30
30
20
ENDCHAR
STARTCHAR H_dotbelowcomb.ccmp
ENCODING -1
SWIDTH 613 0
DWIDTH 10 0
BBX 8 15 1 -3
BITMAP
C3
C3
C3
C3
C3
FF
FF
C3
C3
C3
C3
C3
00
18
18
ENDCHAR
STARTCHAR h_dotbelowcomb.ccmp
ENCODING -1
SWIDTH 492 0
DWIDTH 8 0
BBX 6 15 1 -3
BITMAP
C0
C0
C0
F8
FC
CC
CC
CC
CC
CC
CC
CC
00
30
30
ENDCHAR
STARTCHAR K_acutecomb.ccmp
ENCODING -1
SWIDTH 553 0
DWIDTH 9 0
BBX 8 15 1 0
BITMAP
1C
30
00
C7
CE
CC
DC
D8
F8
F8
FC
CC
CE
C6
C7
ENDCHAR
STARTCHAR k_acutecomb.ccmp
ENCODING -1
SWIDTH 478 0
DWIDTH 8 0
BBX 7 15 1 0
BITMAP
0E
18
00
C0
C0
C0
CC
D8
F8
F0
F0
F8
D8
DC
CE
ENDCHAR
STARTCHAR K_dotbelowcomb.ccmp
ENCODING -1
SWIDTH 553 0
DWIDTH 9 0
BBX 8 15 1 -3
BITMAP
C7
CE
CC
DC
D8
F8
F8
FC
CC
CE
C6
C7
00
38
38
ENDCHAR
STARTCHAR k_dotbelowcomb.ccmp
ENCODING -1
SWIDTH 478 0
DWIDTH 8 0
BBX 7 15 1 -3
BITMAP
C0
C0
C0
CC
D8
F8
F0
F0
F8
D8
DC
CC
02
30
30
ENDCHAR
STARTCHAR L_dotbelowcomb.ccmp
ENCODING -1
SWIDTH 478 0
DWIDTH 8 0
BBX 6 15 1 -3
BITMAP
C0
C0
C0
C0
C0
C0
C0
C0
C0
C0
FC
FC
00
30
30
ENDCHAR
STARTCHAR l_dotbelowcomb.ccmp
ENCODING -1
SWIDTH 251 0
DWIDTH 4 0
BBX 2 15 1 -3
BITMAP
C0
C0
C0
C0
C0
C0
C0
C0
C0
C0
C0
C0
00
C0
C0
ENDCHAR
STARTCHAR M_dotbelowcomb.ccmp
ENCODING -1
SWIDTH 758 0
DWIDTH 12 0
BBX 10 15 1 -3
BITMAP
E1C0
E1C0
F1C0
F3C0
F3C0
F3C0
DAC0
DEC0
DEC0
CEC0
CCC0
CCC0
0000
0C00
0C00
ENDCHAR
STARTCHAR m_dotbelowcomb.ccmp
ENCODING -1
SWIDTH 741 0
DWIDTH 12 0
BBX 10 12 1 -3
BITMAP
FB80
FFC0
CCC0
CCC0
CCC0
CCC0
CCC0
CCC0
CCC0
0000
0C00
0C00
ENDCHAR
STARTCHAR N_dotbelowcomb.ccmp
ENCODING -1
SWIDTH 612 0
DWIDTH 10 0
BBX 8 15 1 -3
BITMAP
E3
E3
E3
F3
D3
DB
DB
CF
CF
C7
C7
C7
00
18
18
ENDCHAR
STARTCHAR n_dotbelowcomb.ccmp
ENCODING -1
SWIDTH 492 0
DWIDTH 8 0
BBX 6 12 1 -3
BITMAP
F8
FC
CC
CC
CC
CC
CC
CC
CC
00
30
30
ENDCHAR
STARTCHAR O_tildecomb_acutecomb.ccmp
ENCODING -1
SWIDTH 603 0
DWIDTH 10 0
BBX 8 18 1 0
BITMAP
0C
18
00
34
28
00
3C
7E
E7
C3
C3
C3
C3
C3
C3
E7
7E
3C
ENDCHAR
STARTCHAR P_acutecomb.ccmp
ENCODING -1
SWIDTH 568 0
DWIDTH 9 0
BBX 7 15 1 0
BITMAP
1C
30
00
FC
FE
C6
C6
C6
C6
FE
FC
C0
C0
C0
C0
ENDCHAR
STARTCHAR p_acutecomb.ccmp
ENCODING -1
SWIDTH 495 0
DWIDTH 8 0
BBX 7 15 1 -3
BITMAP
0E
18
00
F8
FC
CC
CC
CC
CC
CC
FC
F8
C0
C0
C0
ENDCHAR
STARTCHAR R_dotbelowcomb.ccmp
ENCODING -1
SWIDTH 553 0
DWIDTH 9 0
BBX 8 15 1 -3
BITMAP
FC
FE
C6
C6
C6
C6
FE
FC
CC
CE
CE
C6
01
30
30
ENDCHAR
STARTCHAR r_dotbelowcomb.ccmp
ENCODING -1
SWIDTH 331 0
DWIDTH 5 0
BBX 4 12 1 -3
BITMAP
F0
F0
C0
C0
C0
C0
C0
C0
C0
00
C0
C0
ENDCHAR
STARTCHAR S_dotbelowcomb.ccmp
ENCODING -1
SWIDTH 540 0
DWIDTH 9 0
BBX 7 15 1 -3
BITMAP
3C
7E
E6
C6
E0
78
3C
0E
C6
C6
FE
3C
00
38
38
ENDCHAR
STARTCHAR s_dotbelowcomb.ccmp
ENCODING -1
SWIDTH 454 0
DWIDTH 7 0
BBX 7 12 0 -3
BITMAP
38
7C
6E
70
7C
1C
EE
7C
38
00
18
38
ENDCHAR
STARTCHAR T_dotbelowcomb.ccmp
ENCODING -1
SWIDTH 542 0
DWIDTH 9 0
BBX 8 15 0 -3
BITMAP
FF
FF
18
18
18
18
18
18
18
18
18
18
00
18
1C
ENDCHAR
STARTCHAR t_dotbelowcomb.ccmp
ENCODING -1
SWIDTH 307 0
DWIDTH 5 0
BBX 5 14 0 -3
BITMAP
60
60
F8
F8
60
60
60
60
60
78
38
00
30
30
ENDCHAR
STARTCHAR U_tildecomb_acutecomb.ccmp
ENCODING -1
SWIDTH 571 0
DWIDTH 9 0
BBX 7 18 1 0
BITMAP
18
10
00
28
58
00
C6
C6
C6
C6
C6
C6
C6
C6
C6
C6
FE
7C
ENDCHAR
STARTCHAR V_tildecomb.ccmp
ENCODING -1
SWIDTH 578 0
DWIDTH 9 0
BBX 9 15 0 0
BITMAP
1A00
2600
0000
E380
E380
6300
6300
7700
3600
3600
3600
3600
1C00
1C00
1C00
ENDCHAR
STARTCHAR v_tildecomb.ccmp
ENCODING -1
SWIDTH 449 0
DWIDTH 7 0
BBX 7 12 0 0
BITMAP
24
5C
00
EE
EC
6C
6C
6C
28
38
38
38
ENDCHAR
STARTCHAR V_dotbelowcomb.ccmp
ENCODING -1
SWIDTH 578 0
DWIDTH 9 0
BBX 9 15 0 -3
BITMAP
E380
E380
6300
6300
7700
3600
3600
3600
3600
1C00
1C00
1C00
0000
1C00
1C00
ENDCHAR
STARTCHAR v_dotbelowcomb.ccmp
ENCODING -1
SWIDTH 449 0
DWIDTH 7 0
BBX 7 12 0 -3
BITMAP
EE
EC
6C
6C
6C
28
38
38
38
00
38
38
ENDCHAR
STARTCHAR W_dotbelowcomb.ccmp
ENCODING -1
SWIDTH 749 0
DWIDTH 12 0
BBX 12 15 0 -3
BITMAP
E670
6660
6660
6F60
6F60
6F60
7FE0
3FC0
39C0
39C0
39C0
39C0
0000
0600
0600
ENDCHAR
STARTCHAR w_dotbelowcomb.ccmp
ENCODING -1
SWIDTH 632 0
DWIDTH 10 0
BBX 10 12 0 -3
BITMAP
CCC0
ED80
6D80
7F80
7F80
7F80
7380
3300
3300
0000
0C00
0C00
ENDCHAR
STARTCHAR Z_dotbelowcomb.ccmp
ENCODING -1
SWIDTH 530 0
DWIDTH 8 0
BBX 7 15 1 -3
BITMAP
FE
FE
0C
1C
18
38
30
70
60
E0
FE
FE
00
30
38
ENDCHAR
STARTCHAR z_dotbelowcomb.ccmp
ENCODING -1
SWIDTH 452 0
DWIDTH 7 0
BBX 6 12 1 -3
BITMAP
FC
FC
18
30
70
60
E0
FC
FC
00
70
70
ENDCHAR
STARTCHAR Alphatonos.c2sc
ENCODING -1
SWIDTH 521 0
DWIDTH 8 0
BBX 8 11 0 0
BITMAP
C0
C0
98
1C
3C
3C
36
66
7E
7F
E3
ENDCHAR
STARTCHAR Epsilontonos.c2sc
ENCODING -1
SWIDTH 452 0
DWIDTH 7 0
BBX 9 11 -2 0
BITMAP
E000
C000
DF80
1F80
1800
1F00
1F00
1800
1800
1F80
1F80
ENDCHAR
STARTCHAR Etatonos.c2sc
ENCODING -1
SWIDTH 556 0
DWIDTH 9 0
BBX 10 11 -2 0
BITMAP
E000
C000
D8C0
18C0
18C0
1FC0
1FC0
18C0
18C0
18C0
18C0
ENDCHAR
STARTCHAR Iotatonos.c2sc
ENCODING -1
SWIDTH 270 0
DWIDTH 4 0
BBX 6 11 -2 0
BITMAP
E0
C0
9C
1C
1C
1C
1C
1C
1C
1C
1C
ENDCHAR
STARTCHAR Omicrontonos.c2sc
ENCODING -1
SWIDTH 526 0
DWIDTH 8 0
BBX 9 11 -1 0
BITMAP
C000
C000
9E00
3F00
3300
7380
7180
7380
3300
3F00
1E00
ENDCHAR
STARTCHAR Upsilontonos.c2sc
ENCODING -1
SWIDTH 504 0
DWIDTH 8 0
BBX 10 11 -2 0
BITMAP
C000
C000
99C0
1D80
0D80
0F00
0700
0700
0600
0600
0600
ENDCHAR
STARTCHAR Omegatonos.c2sc
ENCODING -1
SWIDTH 529 0
DWIDTH 8 0
BBX 9 11 -1 0
BITMAP
C000
C000
9E00
3F00
3380
7380
7180
3300
3300
3F80
3F80
ENDCHAR
STARTCHAR Alpha.c2sc
ENCODING -1
SWIDTH 521 0
DWIDTH 8 0
BBX 8 9 0 0
BITMAP
18
1C
3C
3C
36
66
7E
7F
E3
ENDCHAR
STARTCHAR Beta.c2sc
ENCODING -1
SWIDTH 489 0
DWIDTH 8 0
BBX 6 9 1 0
BITMAP
F8
FC
CC
FC
FC
CC
CC
FC
F8
ENDCHAR
STARTCHAR Epsilon.c2sc
ENCODING -1
SWIDTH 422 0
DWIDTH 7 0
BBX 5 9 1 0
BITMAP
F8
F8
C0
F8
F8
C0
C0
F8
F8
ENDCHAR
STARTCHAR Zeta.c2sc
ENCODING -1
SWIDTH 461 0
DWIDTH 7 0
BBX 7 9 0 0
BITMAP
FE
FE
0C
1C
18
30
70
7E
7E
ENDCHAR
STARTCHAR Eta.c2sc
ENCODING -1
SWIDTH 527 0
DWIDTH 8 0
BBX 7 9 1 0
BITMAP
C6
C6
C6
FE
FE
C6
C6
C6
C6
ENDCHAR
STARTCHAR Iota.c2sc
ENCODING -1
SWIDTH 241 0
DWIDTH 4 0
BBX 2 9 1 0
BITMAP
C0
C0
C0
C0
C0
C0
C0
C0
C0
ENDCHAR
STARTCHAR Kappa.c2sc
ENCODING -1
SWIDTH 480 0
DWIDTH 8 0
BBX 7 9 1 0
BITMAP
CE
DC
D8
F0
F0
F8
D8
DC
CE
ENDCHAR
STARTCHAR Mu.c2sc
ENCODING -1
SWIDTH 655 0
DWIDTH 10 0
BBX 10 9 0 0
BITMAP
F3C0
F3C0
F3C0
F3C0
FFC0
FFC0
EDC0
EDC0
EDC0
ENDCHAR
STARTCHAR Nu.c2sc
ENCODING -1
SWIDTH 526 0
DWIDTH 8 0
BBX 7 9 1 0
BITMAP
CE
EE
EE
FE
FE
DE
DE
CE
CE
ENDCHAR
STARTCHAR Omicron.c2sc
ENCODING -1
SWIDTH 521 0
DWIDTH 8 0
BBX 8 9 0 0
BITMAP
3C
7E
66
E7
E7
E7
66
7E
3C
ENDCHAR
STARTCHAR Rho.c2sc
ENCODING -1
SWIDTH 495 0
DWIDTH 8 0
BBX 6 9 1 0
BITMAP
F8
FC
CC
CC
FC
F8
C0
C0
C0
ENDCHAR
STARTCHAR Tau.c2sc
ENCODING -1
SWIDTH 477 0
DWIDTH 8 0
BBX 7 9 0 0
BITMAP
FE
FE
18
18
18
18
18
18
18
ENDCHAR
STARTCHAR Upsilon.c2sc
ENCODING -1
SWIDTH 475 0
DWIDTH 8 0
BBX 8 9 0 0
BITMAP
E7
66
6C
3C
38
18
18
18
18
ENDCHAR
STARTCHAR Chi.c2sc
ENCODING -1
SWIDTH 485 0
DWIDTH 8 0
BBX 8 9 0 0
BITMAP
E6
6E
7C
3C
38
3C
7C
6E
E7
ENDCHAR
STARTCHAR Iotadieresis.c2sc
ENCODING -1
SWIDTH 241 0
DWIDTH 4 0
BBX 6 12 -1 0
BITMAP
CC
CC
00
30
30
30
30
30
30
30
30
30
ENDCHAR
STARTCHAR Upsilondieresis.c2sc
ENCODING -1
SWIDTH 475 0
DWIDTH 8 0
BBX 8 12 0 0
BITMAP
66
66
00
E7
66
6C
3C
38
18
18
18
18
ENDCHAR
STARTCHAR uni0401.c2sc
ENCODING -1
SWIDTH 422 0
DWIDTH 7 0
BBX 6 12 1 0
BITMAP
CC
CC
00
F8
F8
C0
F8
F8
C0
C0
F8
F8
ENDCHAR
STARTCHAR uni0403.c2sc
ENCODING -1
SWIDTH 416 0
DWIDTH 7 0
BBX 6 12 1 0
BITMAP
38
70
00
FC
FC
C0
C0
C0
C0
C0
C0
C0
ENDCHAR
STARTCHAR uni0405.c2sc
ENCODING -1
SWIDTH 474 0
DWIDTH 8 0
BBX 6 9 1 0
BITMAP
78
FC
CC
E0
78
1C
CC
FC
78
ENDCHAR
STARTCHAR uni0406.c2sc
ENCODING -1
SWIDTH 241 0
DWIDTH 4 0
BBX 2 9 1 0
BITMAP
C0
C0
C0
C0
C0
C0
C0
C0
C0
ENDCHAR
STARTCHAR uni0407.c2sc
ENCODING -1
SWIDTH 241 0
DWIDTH 4 0
BBX 6 12 -1 0
BITMAP
CC
CC
00
30
30
30
30
30
30
30
30
30
ENDCHAR
STARTCHAR uni0408.c2sc
ENCODING -1
SWIDTH 426 0
DWIDTH 7 0
BBX 6 9 0 0
BITMAP
0C
0C
0C
0C
0C
0C
EC
7C
38
ENDCHAR
STARTCHAR uni040C.c2sc
ENCODING -1
SWIDTH 480 0
DWIDTH 8 0
BBX 7 12 1 0
BITMAP
38
70
00
CE
DC
D8
F0
F0
F8
D8
DC
CE
ENDCHAR
STARTCHAR uni040E.c2sc
ENCODING -1
SWIDTH 493 0
DWIDTH 8 0
BBX 8 12 0 0
BITMAP
66
3C
00
E7
66
36
3C
3C
1C
18
38
30
ENDCHAR
STARTCHAR uni0410.c2sc
ENCODING -1
SWIDTH 521 0
DWIDTH 8 0
BBX 8 9 0 0
BITMAP
18
1C
3C
3C
36
66
7E
7F
E3
ENDCHAR
STARTCHAR uni0412.c2sc
ENCODING -1
SWIDTH 489 0
DWIDTH 8 0
BBX 6 9 1 0
BITMAP
F8
FC
CC
FC
FC
CC
CC
FC
F8
ENDCHAR
STARTCHAR uni0413.c2sc
ENCODING -1
SWIDTH 416 0
DWIDTH 7 0
BBX 6 9 1 0
BITMAP
FC
FC
C0
C0
C0
C0
C0
C0
C0
ENDCHAR
STARTCHAR uni0415.c2sc
ENCODING -1
SWIDTH 422 0
DWIDTH 7 0
BBX 5 9 1 0
BITMAP
F8
F8
C0
F8
F8
C0
C0
F8
F8
ENDCHAR
STARTCHAR uni0419.c2sc
ENCODING -1
SWIDTH 528 0
DWIDTH 8 0
BBX 7 12 0 0
BITMAP
26
3C
00
E6
EE
EE
FE
FE
F6
F6
E6
E6
ENDCHAR
STARTCHAR uni041C.c2sc
ENCODING -1
SWIDTH 655 0
DWIDTH 10 0
BBX 10 9 0 0
BITMAP
F3C0
F3C0
F3C0
F3C0
FFC0
FFC0
EDC0
EDC0
EDC0
ENDCHAR
STARTCHAR uni041D.c2sc
ENCODING -1
SWIDTH 527 0
DWIDTH 8 0
BBX 7 9 1 0
BITMAP
C6
C6
C6
FE
FE
C6
C6
C6
C6
ENDCHAR
STARTCHAR uni041E.c2sc
ENCODING -1
SWIDTH 521 0
DWIDTH 8 0
BBX 8 9 0 0
BITMAP
3C
7E
66
E7
E7
E7
66
7E
3C
ENDCHAR
STARTCHAR uni041F.c2sc
ENCODING -1
SWIDTH 534 0
DWIDTH 9 0
BBX 7 9 1 0
BITMAP
FE
FE
C6
C6
C6
C6
C6
C6
C6
ENDCHAR
STARTCHAR uni0420.c2sc
ENCODING -1
SWIDTH 495 0
DWIDTH 8 0
BBX 6 9 1 0
BITMAP
F8
FC
CC
CC
FC
F8
C0
C0
C0
ENDCHAR
STARTCHAR uni0421.c2sc
ENCODING -1
SWIDTH 494 0
DWIDTH 8 0
BBX 7 9 1 0
BITMAP
78
FC
CC
C2
C0
C0
CE
FC
78
ENDCHAR
STARTCHAR uni0422.c2sc
ENCODING -1
SWIDTH 477 0
DWIDTH 8 0
BBX 7 9 0 0
BITMAP
FE
FE
18
18
18
18
18
18
18
ENDCHAR
STARTCHAR uni0425.c2sc
ENCODING -1
SWIDTH 485 0
DWIDTH 8 0
BBX 8 9 0 0
BITMAP
E6
6E
7C
3C
38
3C
7C
6E
E7
ENDCHAR
STARTCHAR uni0498.c2sc
ENCODING -1
SWIDTH 472 0
DWIDTH 8 0
BBX 6 13 1 -4
BITMAP
78
FC
CC
38
38
0C
CC
FC
78
30
30
30
30
ENDCHAR
STARTCHAR uni04A2.c2sc
ENCODING -1
SWIDTH 527 0
DWIDTH 8 0
BBX 8 12 1 -3
BITMAP
C6
C6
C6
FE
FE
C6
C6
C7
C7
03
03
03
ENDCHAR
STARTCHAR uni04AA.c2sc
ENCODING -1
SWIDTH 494 0
DWIDTH 8 0
BBX 7 13 1 -4
BITMAP
78
FC
CC
C2
C0
C0
CE
FC
78
30
30
30
30
ENDCHAR
STARTCHAR uni04AE.c2sc
ENCODING -1
SWIDTH 475 0
DWIDTH 8 0
BBX 8 9 0 0
BITMAP
E7
66
6C
3C
38
18
18
18
18
ENDCHAR
STARTCHAR uni04BE.c2sc
ENCODING -1
SWIDTH 687 0
DWIDTH 11 0
BBX 10 12 0 -3
BITMAP
0780
0FC0
DCC0
D8C0
7FC0
3FC0
1800
1F80
07C0
0300
0300
0300
ENDCHAR
STARTCHAR uni04E2.c2sc
ENCODING -1
SWIDTH 528 0
DWIDTH 8 0
BBX 7 11 0 0
BITMAP
3C
00
E6
EE
EE
FE
FE
F6
F6
E6
E6
ENDCHAR
STARTCHAR uni04EE.c2sc
ENCODING -1
SWIDTH 493 0
DWIDTH 8 0
BBX 8 11 0 0
BITMAP
3C
00
E7
66
36
3C
3C
1C
18
38
30
ENDCHAR
STARTCHAR uni0424.c2sc
ENCODING -1
SWIDTH 644 0
DWIDTH 10 0
BBX 9 9 1 0
BITMAP
1800
7E00
FF00
DB80
D980
DB80
FF00
7E00
1800
ENDCHAR
STARTCHAR IJ.c2sc
ENCODING -1
SWIDTH 667 0
DWIDTH 11 0
BBX 9 9 1 0
BITMAP
C180
C180
C180
C180
C180
C180
DD80
CF80
CF00
ENDCHAR
STARTCHAR AEacute.c2sc
ENCODING -1
SWIDTH 687 0
DWIDTH 11 0
BBX 10 12 0 0
BITMAP
0380
0600
0000
1FC0
1FC0
3600
37C0
37C0
7E00
7E00
E7C0
C7C0
ENDCHAR
STARTCHAR Oslashacute.c2sc
ENCODING -1
SWIDTH 521 0
DWIDTH 8 0
BBX 8 12 0 0
BITMAP
0E
18
00
3F
7E
67
6B
6B
73
77
7E
FC
ENDCHAR
STARTCHAR uni0218.c2sc
ENCODING -1
SWIDTH 474 0
DWIDTH 8 0
BBX 6 13 1 -4
BITMAP
78
FC
CC
E0
78
1C
CC
FC
78
00
30
30
20
ENDCHAR
STARTCHAR Wgrave.c2sc
ENCODING -1
SWIDTH 643 0
DWIDTH 10 0
BBX 10 12 0 0
BITMAP
3800
0C00
0000
CCC0
EDC0
6D80
7F80
7F80
7F80
7F80
3300
3300
ENDCHAR
STARTCHAR Wacute.c2sc
ENCODING -1
SWIDTH 643 0
DWIDTH 10 0
BBX 10 12 0 0
BITMAP
0700
0C00
0000
CCC0
EDC0
6D80
7F80
7F80
7F80
7F80
3300
3300
ENDCHAR
STARTCHAR Wdieresis.c2sc
ENCODING -1
SWIDTH 643 0
DWIDTH 10 0
BBX 10 12 0 0
BITMAP
3300
3300
0000
CCC0
EDC0
6D80
7F80
7F80
7F80
7F80
3300
3300
ENDCHAR
STARTCHAR Ygrave.c2sc
ENCODING -1
SWIDTH 475 0
DWIDTH 8 0
BBX 8 12 0 0
BITMAP
70
38
00
E7
66
6C
3C
38
18
18
18
18
ENDCHAR
STARTCHAR Aogonek.locl
ENCODING -1
SWIDTH 597 0
DWIDTH 10 0
BBX 10 15 0 -3
BITMAP
0C00
0C00
1E00
1E00
1E00
3300
3300
3300
7F80
7F80
6180
6180
8C40
1800
1C00
ENDCHAR
STARTCHAR aogonek.locl
ENCODING -1
SWIDTH 470 0
DWIDTH 8 0
BBX 6 12 1 -3
BITMAP
78
FC
CC
0C
7C
FC
CC
FC
7C
60
40
60
ENDCHAR
STARTCHAR Eogonek.locl
ENCODING -1
SWIDTH 490 0
DWIDTH 8 0
BBX 6 15 1 -3
BITMAP
FC
FC
C0
C0
C0
FC
FC
C0
C0
C0
FC
FC
30
20
30
ENDCHAR
STARTCHAR eogonek.locl
ENCODING -1
SWIDTH 478 0
DWIDTH 8 0
BBX 6 12 1 -3
BITMAP
78
FC
CC
CC
FC
FC
C8
FC
78
30
60
30
ENDCHAR
STARTCHAR Aogonek.c2sc.locl
ENCODING -1
SWIDTH 521 0
DWIDTH 8 0
BBX 8 12 0 -3
BITMAP
18
1C
3C
3C
36
66
7E
7F
E3
18
10
18
ENDCHAR
STARTCHAR Eogonek.c2sc.locl
ENCODING -1
SWIDTH 422 0
DWIDTH 7 0
BBX 5 12 1 -3
BITMAP
F8
F8
C0
F8
F8
C0
C0
F8
F8
30
60
70
ENDCHAR
STARTCHAR glyph1293
ENCODING -1
SWIDTH 262 0
DWIDTH 4 0
BBX 2 12 1 -3
BITMAP
C0
C0
C0
C0
C0
C0
C0
C0
C0
00
C0
C0
ENDCHAR
ENDFONT
